<svg width="256" height="256" viewBox="0 0 256 256" fill="none" xmlns="http://www.w3.org/2000/svg">
<path d="M117.515 75.6102L114.372 67.5362L110.724 59.914L108.231 51.84L105.07 44.0189L102.072 36.1253L98.7663 28.3767L95.6959 20.5193L92.4447 12.7163L89.5726 4.58813L82.2753 7.35169L75.1587 10.314L78.5906 18.1351L81.4082 26.1006L84.4971 33.9398L87.3871 41.8692L90.7105 49.6181L93.8534 57.4392L96.7616 65.3689L100.139 73.0996L102.939 81.2458L110.001 77.9403L117.515 75.6102Z" fill="#816259"/>
<path d="M82.8343 154.02L75.9525 158.969L69.4319 164.333L62.8391 169.571L56.3367 174.954L49.2562 179.578L42.6813 184.852L35.926 189.91L29.2607 195.094L22.4331 200.405L27.2557 206.582L32.0242 212.488L38.852 207.539L45.4448 202.301L51.8933 196.846L58.5764 191.716L65.1874 186.46L71.8524 181.312L78.5537 176.165L85.2187 170.998L92.4075 166.158L87.639 159.962L82.8343 154.02Z" fill="#816259"/>
<path d="M167.875 165.235L174.612 170.365L181.439 175.314L188.159 180.39L195.221 185.014L201.959 190.108L208.588 195.31L215.65 199.952L222.261 205.208L229.233 210.247L233.767 203.962L238.265 197.748L231.22 192.98L224.718 187.597L217.547 183.117L211.116 177.645L204.307 172.659L197.425 167.782L190.489 162.978L183.716 157.938L176.906 152.953L172.499 159.148L167.875 165.235Z" fill="#816259"/>
<path d="M56.8437 25.7391L49.7271 28.1778L42.8632 30.9954L45.5545 38.2205L48.228 45.6261L50.7928 53.0859L53.5203 60.4918L56.5546 67.7889L59.2281 75.4837L51.1359 74.5263L43.2426 74.472L35.3672 73.9122L27.4921 73.4426L19.6168 73.0633L11.5789 72.3047L11.5428 80.0715L10.6577 87.7843L18.6594 87.8204L26.4807 88.326L34.2654 89.3918L42.1408 89.1931L49.9258 90.0963L57.7468 90.5118L65.5861 90.8548L73.4072 91.5232L81.2826 91.8845L78.2298 84.6232L76.0624 77.0733L72.8652 69.8842L70.7159 62.334L67.4286 55.1992L64.972 47.7394L62.4975 40.2977L59.5711 33.0185L56.8437 25.7391Z" fill="#C99E2D"/>
<path d="M140.491 252.607L148.132 253.546L155.447 255.063L156.982 247.44L158.355 239.674L159.493 231.87L161.354 224.194L162.798 216.427L163.9 208.606L170.493 212.923L176.96 217.457L183.498 221.864L190.037 226.271L196.847 230.281L203.222 234.869L207.485 228.655L211.748 222.315L205.083 218.107L198.563 213.736L192.331 208.985L185.612 204.903L179.163 200.46L172.516 196.305L165.959 191.988L159.565 187.437L153.117 183.21L151.401 190.742L149.992 198.437L148.782 206.186L147.355 213.898L146.036 221.629L144.79 229.36L143.273 237.054L141.665 244.731L140.491 252.607Z" fill="#C99E2D"/>
<path d="M247.512 85.618L246.898 78.0677L246.284 70.6078L238.499 70.8608L230.623 71.4207L222.766 72.1433L214.927 72.938L207.07 73.7689L198.887 74.347L201.759 66.6882L204.089 59.1382L207.034 51.8227L209.49 44.3268L212.127 36.8669L214.62 29.5156L207.648 26.8421L200.441 24.4038L197.695 31.7732L195.528 39.3235L192.529 46.5665L189.82 53.936L187.689 61.4863L185.07 68.874L182.378 76.2435L179.452 83.5226L176.923 91.2536L185.033 90.7838L192.836 90.0432L200.64 89.3569L208.461 88.9235L216.246 87.8759L224.049 87.2254L231.906 86.9545L239.691 85.9974L247.512 85.618Z" fill="#C99E2D"/>
<path d="M150.967 41.9953L159.312 41.5258L167.151 38.5094L174.087 33.7951L180.138 27.9608L184.04 20.519L186.604 12.2463L179 11.0903L171.45 9.60919L168.614 17.5025L162.997 23.4632L155.483 26.7505L147.264 27.1299L139.732 23.8606L133.573 18.4057L130.358 10.8013L130.412 2.58283L122.934 1.19201L115.438 -0.00012207L114.697 8.0558L116.052 16.0575L119.394 23.4271L124.072 29.9658L129.798 35.6555L136.824 39.7556L144.699 41.6523L150.967 41.9953Z" fill="#528CA2"/>
<path d="M99.8671 209.489L91.9377 207.574L83.8276 207.719L76.0065 209.706L68.6549 212.957L62.0439 217.653L57.3657 224.264L53.5186 231.363L60.7255 233.783L67.806 236.601L71.9243 229.485L78.481 224.517L86.5007 222.675L94.5386 224.138L101.746 228.039L106.333 234.867L107.977 242.778L107.128 250.708L114.173 253.399L121.289 256L123.348 246.825L123.005 237.414L119.862 228.563L114.985 220.543L107.905 214.42L99.8671 209.489Z" fill="#528CA2"/>
<path d="M229.52 112.024L223.036 118.797L218.628 127.052L216.244 136.156L216.443 144.248L218.122 152.177L222.187 159.185L227.136 165.525L233.638 170.24L240.845 173.798L248.703 175.568L249.696 168.054L250.166 160.486L242.435 158.048L236.185 152.881L232.085 145.819L231.489 137.655L233.801 129.852L239.184 123.819L246.21 119.845L254.338 118.96L255.187 111.392L256 103.733L246.372 104.239L237.341 106.84L229.52 112.024Z" fill="#528CA2"/>
<path d="M39.8642 136.805L37.3716 127.702L32.8559 119.483L26.2992 112.8L18.6406 107.309L9.4648 105.051L0 104.618L0.885068 112.186L1.84238 119.628L9.66348 120.765L16.8163 124.45L22.3434 130.483L24.3664 138.395L23.9149 146.523L20.0314 153.766L13.6915 158.932L6.19546 161.352L6.91797 168.794L7.4418 176.38L15.281 174.538L22.7047 171.359L28.8099 166.066L33.8674 159.853L37.5341 152.7L39.6653 144.915L39.8642 136.805Z" fill="#528CA2"/>
</svg>
