<svg width="620" height="576" viewBox="0 0 620 576" fill="none" xmlns="http://www.w3.org/2000/svg">
<rect opacity="0.2" x="306" y="79" width="8" height="418" fill="#FFFCF2"/>
<rect width="620" height="79" rx="10" fill="white"/>
<path d="M257.36 57.45C257.337 57.0767 257.278 56.6217 257.185 56.085C257.092 55.5483 256.987 55.0233 256.87 54.51C256.753 53.9967 256.625 53.5883 256.485 53.285H260.055C260.545 53.285 260.895 53.2033 261.105 53.04C261.315 52.8767 261.42 52.5733 261.42 52.13V31.375H245.845V30.36C245.635 30.64 245.378 30.99 245.075 31.41C244.795 31.83 244.515 32.25 244.235 32.67C243.978 33.0667 243.792 33.3817 243.675 33.615C243.255 33.2417 242.66 32.7867 241.89 32.25C241.12 31.7133 240.327 31.2 239.51 30.71C238.693 30.22 237.982 29.8583 237.375 29.625L239.51 26.16C240.117 26.4167 240.817 26.7667 241.61 27.21C242.427 27.6533 243.22 28.12 243.99 28.61C244.76 29.0767 245.378 29.5083 245.845 29.905V27.49H268.28V31.375H265.655V53.81C265.655 55.0933 265.293 56.015 264.57 56.575C263.847 57.1583 262.75 57.45 261.28 57.45H257.36ZM246.79 48.21V34.98H258.2V48.21H246.79ZM239.93 57.38L236.22 54.825C236.757 54.125 237.305 53.2967 237.865 52.34C238.425 51.3833 238.973 50.38 239.51 49.33C240.047 48.2567 240.525 47.2183 240.945 46.215C241.388 45.2117 241.727 44.3133 241.96 43.52C242.403 43.8933 242.975 44.3367 243.675 44.85C244.375 45.3633 244.958 45.7483 245.425 46.005C245.168 46.8217 244.818 47.7433 244.375 48.77C243.955 49.7733 243.488 50.8117 242.975 51.885C242.462 52.935 241.937 53.9383 241.4 54.895C240.887 55.8517 240.397 56.68 239.93 57.38ZM241.995 41.63C241.575 41.2567 240.98 40.8017 240.21 40.265C239.44 39.7283 238.647 39.215 237.83 38.725C237.013 38.235 236.302 37.8617 235.695 37.605L237.795 34.07C238.495 34.3967 239.242 34.7817 240.035 35.225C240.852 35.6683 241.633 36.135 242.38 36.625C243.15 37.0917 243.815 37.5467 244.375 37.99C244.188 38.2233 243.932 38.585 243.605 39.075C243.278 39.5417 242.963 40.02 242.66 40.51C242.357 41 242.135 41.3733 241.995 41.63ZM250.71 44.535H254.28V38.655H250.71V44.535ZM277.765 53.81V29.59H303.735V53.81H277.765ZM282.28 49.785H299.22V33.615H282.28V49.785ZM333.135 57.59C332.762 57.2633 332.237 56.8783 331.56 56.435C330.907 55.9917 330.312 55.6533 329.775 55.42C330.148 55.0467 330.487 54.6733 330.79 54.3C331.093 53.9033 331.385 53.5067 331.665 53.11H321.445V41.035H324.98V35.505H320.43V31.935H324.98V25.985H328.725V31.935H332.925V35.505H328.725V41.035H332.26V52.025C332.913 50.7883 333.38 49.3767 333.66 47.79C333.94 46.2033 334.08 44.3017 334.08 42.085V26.685H344.615V54.3C344.615 55.42 344.3 56.225 343.67 56.715C343.04 57.205 342.083 57.45 340.8 57.45H338.42C338.397 57.1233 338.338 56.715 338.245 56.225C338.152 55.7583 338.047 55.2917 337.93 54.825C337.813 54.335 337.697 53.9617 337.58 53.705H339.785C340.205 53.705 340.508 53.635 340.695 53.495C340.882 53.355 340.975 53.075 340.975 52.655V45.795H337.615C337.405 48.3383 336.938 50.5667 336.215 52.48C335.492 54.37 334.465 56.0733 333.135 57.59ZM316.335 56.645L312.625 55C313.068 54.23 313.523 53.3433 313.99 52.34C314.457 51.3133 314.888 50.2517 315.285 49.155C315.705 48.035 316.067 46.95 316.37 45.9C316.697 44.85 316.93 43.9167 317.07 43.1C317.537 43.4033 318.097 43.7533 318.75 44.15C319.427 44.5233 320.022 44.8033 320.535 44.99C320.372 45.83 320.127 46.775 319.8 47.825C319.497 48.8517 319.147 49.9017 318.75 50.975C318.353 52.0483 317.945 53.075 317.525 54.055C317.105 55.035 316.708 55.8983 316.335 56.645ZM318.19 40.965C317.793 40.5683 317.28 40.1483 316.65 39.705C316.02 39.2383 315.355 38.795 314.655 38.375C313.978 37.955 313.337 37.6167 312.73 37.36L314.76 34.21C315.343 34.4667 315.973 34.7933 316.65 35.19C317.35 35.5867 318.027 36.0067 318.68 36.45C319.357 36.8933 319.94 37.3133 320.43 37.71C320.243 37.92 319.998 38.235 319.695 38.655C319.392 39.075 319.1 39.5067 318.82 39.95C318.54 40.37 318.33 40.7083 318.19 40.965ZM318.82 33.195C318.423 32.7983 317.922 32.3667 317.315 31.9C316.732 31.41 316.102 30.9433 315.425 30.5C314.772 30.0567 314.142 29.695 313.535 29.415L315.74 26.475C316.23 26.7083 316.813 27.0467 317.49 27.49C318.167 27.91 318.843 28.365 319.52 28.855C320.197 29.3217 320.768 29.7533 321.235 30.15C321.048 30.36 320.792 30.6517 320.465 31.025C320.162 31.3983 319.858 31.7833 319.555 32.18C319.252 32.5767 319.007 32.915 318.82 33.195ZM325.085 49.505H328.655V44.64H325.085V49.505ZM337.755 42.295H340.975V37.955H337.755V42.295ZM337.755 34.42H340.975V30.15H337.755V34.42ZM368.275 57.66C367.832 57.3333 367.283 57.0183 366.63 56.715C366 56.4117 365.44 56.1783 364.95 56.015C365.837 54.615 366.525 53.1217 367.015 51.535C367.505 49.925 367.843 48.105 368.03 46.075C368.24 44.045 368.345 41.7117 368.345 39.075V26.755H382.31V40.405H377.515C377.842 43.4383 378.623 46.18 379.86 48.63C381.12 51.0567 382.73 53.1333 384.69 54.86C384.2 55.1167 383.628 55.5017 382.975 56.015C382.345 56.5517 381.843 57.0183 381.47 57.415C379.347 55.595 377.643 53.2383 376.36 50.345C375.077 47.4517 374.283 44.1383 373.98 40.405H372.23C372.207 42.6683 372.09 44.815 371.88 46.845C371.67 48.8517 371.285 50.7533 370.725 52.55C370.165 54.3467 369.348 56.05 368.275 57.66ZM357.915 57.52C357.892 57.2167 357.833 56.8317 357.74 56.365C357.67 55.9217 357.588 55.4783 357.495 55.035C357.402 54.615 357.297 54.2883 357.18 54.055H359.42C360.12 54.055 360.657 53.9617 361.03 53.775C361.403 53.5883 361.683 53.0983 361.87 52.305C361.94 52.025 362.01 51.6517 362.08 51.185C361.847 51.255 361.59 51.325 361.31 51.395C361.03 51.465 360.832 51.5233 360.715 51.57C360.622 50.8933 360.47 50.1 360.26 49.19C360.073 48.2567 359.863 47.475 359.63 46.845L361.45 46.39C361.567 46.7633 361.707 47.2533 361.87 47.86C362.033 48.4433 362.185 49.0267 362.325 49.61C362.395 48.9333 362.453 48.245 362.5 47.545C362.57 46.845 362.605 46.1917 362.605 45.585H352.595V26.685H366.56V30.045H362.395V32.005H365.475V35.015H362.395V36.975H365.475V40.02H362.395V42.26H366.42C366.42 43.6367 366.362 45.0367 366.245 46.46C366.128 47.8833 365.977 49.225 365.79 50.485C365.627 51.7217 365.428 52.7833 365.195 53.67C364.822 55.1633 364.227 56.1783 363.41 56.715C362.617 57.2517 361.52 57.52 360.12 57.52H357.915ZM372.23 36.87H378.425V30.29H372.23V36.87ZM351.37 53.74C351.417 53.2267 351.452 52.6083 351.475 51.885C351.498 51.1617 351.498 50.4383 351.475 49.715C351.475 48.9683 351.44 48.3383 351.37 47.825L353.785 47.545C353.832 48.0117 353.867 48.6183 353.89 49.365C353.937 50.0883 353.96 50.8233 353.96 51.57C353.983 52.3167 353.983 52.97 353.96 53.53C353.587 53.53 353.155 53.5533 352.665 53.6C352.198 53.6233 351.767 53.67 351.37 53.74ZM354.8 52.935C354.8 52.515 354.777 51.9667 354.73 51.29C354.683 50.6133 354.625 49.9483 354.555 49.295C354.508 48.6183 354.462 48.105 354.415 47.755L356.48 47.44C356.55 47.8833 356.62 48.42 356.69 49.05C356.783 49.68 356.865 50.3217 356.935 50.975C357.005 51.605 357.04 52.1417 357.04 52.585C356.807 52.6083 356.445 52.6667 355.955 52.76C355.465 52.83 355.08 52.8883 354.8 52.935ZM357.845 52.305C357.822 51.8383 357.763 51.3017 357.67 50.695C357.6 50.065 357.507 49.4467 357.39 48.84C357.297 48.2333 357.192 47.7433 357.075 47.37L359.035 47.02C359.152 47.44 359.268 47.9533 359.385 48.56C359.502 49.1667 359.607 49.7733 359.7 50.38C359.793 50.9633 359.852 51.465 359.875 51.885C359.758 51.9083 359.56 51.955 359.28 52.025C359 52.0717 358.72 52.1183 358.44 52.165C358.16 52.2117 357.962 52.2583 357.845 52.305ZM356.165 42.26H359V40.02H356.165V42.26ZM356.165 36.975H359V35.015H356.165V36.975ZM356.165 32.005H359V30.045H356.165V32.005Z" fill="#816259"/>
<rect y="497" width="620" height="79" rx="10" fill="#528CA2"/>
<path d="M182.145 548.955C182.168 548.652 182.18 548.22 182.18 547.66C182.18 547.077 182.168 546.482 182.145 545.875C182.145 545.268 182.133 544.778 182.11 544.405C182.437 544.405 183.113 544.405 184.14 544.405C185.167 544.405 186.415 544.405 187.885 544.405C189.355 544.405 190.918 544.417 192.575 544.44C194.232 544.44 195.865 544.44 197.475 544.44C199.085 544.44 200.532 544.44 201.815 544.44V533.17C201.325 533.17 200.567 533.17 199.54 533.17C198.537 533.17 197.37 533.182 196.04 533.205C194.733 533.205 193.38 533.217 191.98 533.24C190.58 533.263 189.215 533.287 187.885 533.31C186.578 533.333 185.412 533.357 184.385 533.38C183.382 533.403 182.635 533.427 182.145 533.45C182.168 533.077 182.18 532.61 182.18 532.05C182.18 531.49 182.168 530.918 182.145 530.335C182.145 529.752 182.133 529.262 182.11 528.865C182.833 528.888 183.825 528.912 185.085 528.935C186.368 528.958 187.803 528.982 189.39 529.005C191 529.005 192.657 529.005 194.36 529.005C196.063 528.982 197.708 528.958 199.295 528.935C200.882 528.912 202.293 528.888 203.53 528.865C204.79 528.842 205.747 528.807 206.4 528.76C206.377 529.32 206.353 530.125 206.33 531.175C206.307 532.202 206.283 533.38 206.26 534.71C206.26 536.04 206.26 537.417 206.26 538.84C206.26 540.24 206.26 541.605 206.26 542.935C206.283 544.242 206.307 545.42 206.33 546.47C206.377 547.497 206.412 548.29 206.435 548.85C204.825 548.803 203.087 548.768 201.22 548.745C199.353 548.722 197.475 548.71 195.585 548.71C193.695 548.71 191.875 548.722 190.125 548.745C188.398 548.745 186.835 548.768 185.435 548.815C184.058 548.862 182.962 548.908 182.145 548.955ZM229.535 553.89C229.372 553.657 229.103 553.353 228.73 552.98C228.38 552.607 228.018 552.245 227.645 551.895C227.272 551.545 226.957 551.277 226.7 551.09C230.387 549.83 233.152 548.057 234.995 545.77C236.838 543.483 238.017 540.555 238.53 536.985C238.623 536.355 238.717 535.678 238.81 534.955C238.927 534.232 238.997 533.707 239.02 533.38C239.323 533.45 239.732 533.543 240.245 533.66C240.758 533.753 241.272 533.835 241.785 533.905C242.298 533.975 242.683 534.022 242.94 534.045C242.847 534.372 242.73 534.838 242.59 535.445C242.473 536.028 242.357 536.623 242.24 537.23C241.727 540.17 240.922 542.69 239.825 544.79C238.752 546.89 237.363 548.675 235.66 550.145C233.957 551.592 231.915 552.84 229.535 553.89ZM224.705 541.815C224.588 541.185 224.413 540.473 224.18 539.68C223.97 538.863 223.725 538.058 223.445 537.265C223.165 536.448 222.862 535.713 222.535 535.06C223.048 534.943 223.667 534.78 224.39 534.57C225.113 534.36 225.697 534.197 226.14 534.08C226.397 534.593 226.653 535.27 226.91 536.11C227.19 536.95 227.435 537.813 227.645 538.7C227.878 539.563 228.053 540.333 228.17 541.01C227.68 541.127 227.085 541.255 226.385 541.395C225.685 541.535 225.125 541.675 224.705 541.815ZM231.355 540.485C231.262 539.435 231.087 538.28 230.83 537.02C230.597 535.76 230.305 534.652 229.955 533.695C230.258 533.648 230.643 533.59 231.11 533.52C231.577 533.427 232.043 533.333 232.51 533.24C233 533.123 233.373 533.042 233.63 532.995C233.84 533.578 234.038 534.29 234.225 535.13C234.412 535.947 234.575 536.775 234.715 537.615C234.878 538.455 234.983 539.202 235.03 539.855C234.75 539.878 234.365 539.937 233.875 540.03C233.408 540.123 232.942 540.217 232.475 540.31C232.032 540.38 231.658 540.438 231.355 540.485ZM259.145 548.955C259.168 548.652 259.18 548.22 259.18 547.66C259.18 547.077 259.168 546.482 259.145 545.875C259.145 545.268 259.133 544.778 259.11 544.405C259.437 544.405 260.113 544.405 261.14 544.405C262.167 544.405 263.415 544.405 264.885 544.405C266.355 544.405 267.918 544.417 269.575 544.44C271.232 544.44 272.865 544.44 274.475 544.44C276.085 544.44 277.532 544.44 278.815 544.44V533.17C278.325 533.17 277.567 533.17 276.54 533.17C275.537 533.17 274.37 533.182 273.04 533.205C271.733 533.205 270.38 533.217 268.98 533.24C267.58 533.263 266.215 533.287 264.885 533.31C263.578 533.333 262.412 533.357 261.385 533.38C260.382 533.403 259.635 533.427 259.145 533.45C259.168 533.077 259.18 532.61 259.18 532.05C259.18 531.49 259.168 530.918 259.145 530.335C259.145 529.752 259.133 529.262 259.11 528.865C259.833 528.888 260.825 528.912 262.085 528.935C263.368 528.958 264.803 528.982 266.39 529.005C268 529.005 269.657 529.005 271.36 529.005C273.063 528.982 274.708 528.958 276.295 528.935C277.882 528.912 279.293 528.888 280.53 528.865C281.79 528.842 282.747 528.807 283.4 528.76C283.377 529.32 283.353 530.125 283.33 531.175C283.307 532.202 283.283 533.38 283.26 534.71C283.26 536.04 283.26 537.417 283.26 538.84C283.26 540.24 283.26 541.605 283.26 542.935C283.283 544.242 283.307 545.42 283.33 546.47C283.377 547.497 283.412 548.29 283.435 548.85C281.825 548.803 280.087 548.768 278.22 548.745C276.353 548.722 274.475 548.71 272.585 548.71C270.695 548.71 268.875 548.722 267.125 548.745C265.398 548.745 263.835 548.768 262.435 548.815C261.058 548.862 259.962 548.908 259.145 548.955ZM305.38 554.905C305.31 554.345 305.182 553.657 304.995 552.84C304.832 552.023 304.657 551.382 304.47 550.915H307.025C307.515 550.915 307.83 550.833 307.97 550.67C308.133 550.507 308.215 550.238 308.215 549.865V544.44H296.175V540.905C296.082 540.975 295.965 541.045 295.825 541.115C295.708 541.162 295.592 541.208 295.475 541.255C295.172 540.858 294.775 540.38 294.285 539.82C293.795 539.26 293.305 538.817 292.815 538.49C293.772 538.07 294.728 537.568 295.685 536.985C296.642 536.402 297.563 535.772 298.45 535.095C298.147 534.745 297.797 534.36 297.4 533.94C297.003 533.52 296.618 533.147 296.245 532.82C296.105 532.937 295.965 533.053 295.825 533.17C295.685 533.287 295.533 533.403 295.37 533.52C295.067 533.053 294.682 532.575 294.215 532.085C293.748 531.595 293.282 531.198 292.815 530.895C293.842 530.218 294.845 529.367 295.825 528.34C296.805 527.313 297.692 526.24 298.485 525.12C299.278 523.977 299.897 522.915 300.34 521.935L303.91 523.02C303.7 523.463 303.478 523.907 303.245 524.35H309.09L310.21 525.085C310.117 524.782 310.012 524.478 309.895 524.175C309.802 523.872 309.708 523.568 309.615 523.265L313.43 522.46C313.64 523.253 313.897 524.023 314.2 524.77C314.527 525.517 314.888 526.24 315.285 526.94V524.175H324.7L326.03 525.33C325.633 526.03 325.108 526.882 324.455 527.885C323.825 528.865 323.16 529.845 322.46 530.825C321.783 531.805 321.177 532.645 320.64 533.345C322.717 535.118 324.933 536.472 327.29 537.405C327.01 537.615 326.683 537.918 326.31 538.315C325.96 538.712 325.622 539.132 325.295 539.575C324.968 540.018 324.712 540.403 324.525 540.73C323.242 540.077 321.993 539.33 320.78 538.49C319.567 537.65 318.4 536.705 317.28 535.655V538H303.035V536.005C301.052 537.872 298.917 539.435 296.63 540.695H323.895V544.44H312.415V551.23C312.415 552.513 312.053 553.447 311.33 554.03C310.607 554.613 309.498 554.905 308.005 554.905H305.38ZM304.785 534.185H315.845C314.678 532.925 313.617 531.548 312.66 530.055C311.703 528.538 310.898 526.905 310.245 525.155C309.708 526.788 308.962 528.375 308.005 529.915C307.072 531.432 305.998 532.855 304.785 534.185ZM297.19 553.925C296.957 553.458 296.595 552.887 296.105 552.21C295.615 551.533 295.172 550.985 294.775 550.565C295.405 550.332 296.117 550.005 296.91 549.585C297.703 549.165 298.508 548.698 299.325 548.185C300.142 547.672 300.9 547.147 301.6 546.61C302.3 546.073 302.86 545.583 303.28 545.14L306.045 547.87C305.275 548.663 304.377 549.457 303.35 550.25C302.323 551.043 301.273 551.755 300.2 552.385C299.127 553.015 298.123 553.528 297.19 553.925ZM323.055 553.925C322.145 553.552 321.142 553.038 320.045 552.385C318.972 551.755 317.922 551.043 316.895 550.25C315.868 549.457 314.97 548.663 314.2 547.87L316.895 545.245C317.338 545.712 317.91 546.213 318.61 546.75C319.333 547.263 320.103 547.777 320.92 548.29C321.737 548.78 322.542 549.223 323.335 549.62C324.128 550.017 324.84 550.332 325.47 550.565C325.213 550.798 324.922 551.125 324.595 551.545C324.292 551.942 324 552.35 323.72 552.77C323.44 553.213 323.218 553.598 323.055 553.925ZM317.945 530.755C318.365 530.195 318.797 529.6 319.24 528.97C319.683 528.317 320.01 527.815 320.22 527.465H315.565C316.288 528.655 317.082 529.752 317.945 530.755ZM303.875 529.6C304.132 529.227 304.377 528.853 304.61 528.48C304.867 528.083 305.077 527.698 305.24 527.325H301.32L301.145 527.57C301.565 527.85 302.032 528.188 302.545 528.585C303.058 528.958 303.502 529.297 303.875 529.6ZM300.795 533.1C300.982 532.913 301.168 532.727 301.355 532.54C301.542 532.353 301.717 532.167 301.88 531.98C301.553 531.653 301.157 531.292 300.69 530.895C300.223 530.498 299.768 530.137 299.325 529.81C299.162 529.973 298.998 530.148 298.835 530.335C298.695 530.498 298.543 530.662 298.38 530.825C298.777 531.128 299.197 531.502 299.64 531.945C300.083 532.365 300.468 532.75 300.795 533.1ZM347.905 554.66C347.625 554.357 347.228 554.007 346.715 553.61C346.225 553.237 345.723 552.875 345.21 552.525C344.697 552.198 344.277 551.965 343.95 551.825C347.007 550.378 349.305 548.453 350.845 546.05C352.408 543.647 353.19 540.753 353.19 537.37C353.19 534.687 353.143 532.47 353.05 530.72C352.98 528.97 352.887 527.523 352.77 526.38C352.653 525.213 352.548 524.21 352.455 523.37C352.782 523.37 353.225 523.37 353.785 523.37C354.345 523.37 354.905 523.37 355.465 523.37C356.048 523.347 356.538 523.323 356.935 523.3C357.005 524.303 357.075 525.587 357.145 527.15C357.215 528.713 357.262 530.393 357.285 532.19C357.332 533.963 357.355 535.69 357.355 537.37C357.355 540.17 356.982 542.632 356.235 544.755C355.488 546.878 354.403 548.745 352.98 550.355C351.58 551.942 349.888 553.377 347.905 554.66ZM344.44 544.02C344.043 544.65 343.53 544.988 342.9 545.035C342.27 545.058 341.745 544.708 341.325 543.985C340.695 542.888 340.193 541.418 339.82 539.575C339.447 537.708 339.26 535.725 339.26 533.625C339.26 531.992 339.353 530.242 339.54 528.375C339.75 526.508 340.018 524.793 340.345 523.23C341.022 523.323 341.745 523.428 342.515 523.545C343.308 523.662 343.997 523.755 344.58 523.825C344.207 525.342 343.903 526.975 343.67 528.725C343.46 530.452 343.343 532.108 343.32 533.695C343.297 535.282 343.39 536.623 343.6 537.72C343.647 538.023 343.74 538.175 343.88 538.175C344.02 538.175 344.183 538 344.37 537.65C344.557 537.347 344.778 536.938 345.035 536.425C345.315 535.912 345.525 535.445 345.665 535.025C345.758 535.328 345.887 535.702 346.05 536.145C346.237 536.565 346.412 536.962 346.575 537.335C346.762 537.708 346.902 538 346.995 538.21C346.855 538.723 346.645 539.342 346.365 540.065C346.085 540.765 345.77 541.477 345.42 542.2C345.093 542.9 344.767 543.507 344.44 544.02ZM397.605 554.975C397.325 554.438 396.952 553.843 396.485 553.19C396.042 552.537 395.54 551.872 394.98 551.195C393.907 551.382 392.67 551.58 391.27 551.79C389.87 552 388.388 552.21 386.825 552.42C385.262 552.63 383.71 552.817 382.17 552.98C380.653 553.167 379.23 553.318 377.9 553.435C376.593 553.575 375.473 553.68 374.54 553.75L373.735 549.585C374.248 549.585 374.878 549.573 375.625 549.55C376.395 549.503 377.223 549.445 378.11 549.375C378.647 548.558 379.195 547.59 379.755 546.47C380.338 545.35 380.852 544.288 381.295 543.285H372.685V539.54H401.35V543.285H392.915C393.545 543.775 394.245 544.393 395.015 545.14C395.785 545.887 396.567 546.692 397.36 547.555C398.153 548.395 398.877 549.223 399.53 550.04C400.207 550.857 400.743 551.568 401.14 552.175C400.837 552.362 400.452 552.63 399.985 552.98C399.518 553.33 399.063 553.68 398.62 554.03C398.177 554.403 397.838 554.718 397.605 554.975ZM372.475 537.405C372.312 537.078 372.078 536.693 371.775 536.25C371.472 535.807 371.145 535.375 370.795 534.955C370.445 534.535 370.118 534.197 369.815 533.94C371.262 533.38 372.743 532.657 374.26 531.77C375.8 530.86 377.282 529.868 378.705 528.795C380.128 527.698 381.4 526.59 382.52 525.47C383.64 524.327 384.503 523.253 385.11 522.25L389.065 522.81C389.812 523.813 390.768 524.84 391.935 525.89C393.102 526.94 394.373 527.943 395.75 528.9C397.15 529.833 398.573 530.685 400.02 531.455C401.467 532.225 402.855 532.855 404.185 533.345C403.835 533.625 403.462 534.01 403.065 534.5C402.668 534.967 402.295 535.445 401.945 535.935C401.618 536.425 401.373 536.845 401.21 537.195C400.3 536.798 399.355 536.332 398.375 535.795C397.418 535.258 396.45 534.675 395.47 534.045V537.02H378.565V533.94C377.492 534.663 376.43 535.328 375.38 535.935C374.33 536.518 373.362 537.008 372.475 537.405ZM379.545 533.24H394.315C392.892 532.26 391.538 531.21 390.255 530.09C388.972 528.947 387.887 527.803 387 526.66C386.207 527.71 385.145 528.818 383.815 529.985C382.485 531.128 381.062 532.213 379.545 533.24ZM383.255 548.955C384.818 548.815 386.37 548.663 387.91 548.5C389.45 548.313 390.85 548.138 392.11 547.975C391.107 546.948 390.22 546.155 389.45 545.595L392.18 543.285H386.195C385.798 544.195 385.332 545.152 384.795 546.155C384.282 547.135 383.768 548.068 383.255 548.955ZM426.725 554.765C426.562 554.602 426.293 554.38 425.92 554.1C425.547 553.82 425.162 553.552 424.765 553.295C424.368 553.038 424.042 552.863 423.785 552.77C424.905 552.233 426.013 551.463 427.11 550.46C428.23 549.457 429.245 548.372 430.155 547.205C431.065 546.015 431.753 544.895 432.22 543.845H430.715C429.992 545.105 429.07 546.365 427.95 547.625C426.853 548.862 425.64 549.982 424.31 550.985C423.003 551.988 421.662 552.782 420.285 553.365C420.145 553.155 419.923 552.887 419.62 552.56C419.317 552.233 419.002 551.918 418.675 551.615C418.348 551.312 418.068 551.102 417.835 550.985C418.862 550.588 419.958 550.017 421.125 549.27C422.292 548.5 423.388 547.637 424.415 546.68C425.465 545.723 426.305 544.778 426.935 543.845H425.29C424.403 544.848 423.447 545.77 422.42 546.61C421.417 547.45 420.402 548.138 419.375 548.675C419.142 548.348 418.745 547.94 418.185 547.45C417.648 546.96 417.182 546.598 416.785 546.365C417.765 545.898 418.745 545.292 419.725 544.545C420.728 543.798 421.65 542.982 422.49 542.095C423.33 541.185 424.007 540.287 424.52 539.4H421.23V542.935C420.67 543.238 419.912 543.6 418.955 544.02C418.022 544.417 417.018 544.825 415.945 545.245C414.872 545.665 413.822 546.05 412.795 546.4C411.768 546.75 410.882 547.03 410.135 547.24L409.12 543.285C409.727 543.168 410.392 543.017 411.115 542.83C411.862 542.643 412.632 542.433 413.425 542.2V533.45H409.54V529.845H413.425V523.02H417.485V529.845H421.09V533.45H417.485V540.835C418.162 540.578 418.803 540.333 419.41 540.1C420.017 539.867 420.542 539.633 420.985 539.4H420.425V536.425H441.425V539.4H428.37C428.253 539.633 428.125 539.878 427.985 540.135C427.845 540.392 427.693 540.648 427.53 540.905H440.62C440.62 541.582 440.597 542.398 440.55 543.355C440.503 544.312 440.422 545.315 440.305 546.365C440.212 547.392 440.083 548.372 439.92 549.305C439.78 550.215 439.593 550.973 439.36 551.58C438.963 552.7 438.415 553.47 437.715 553.89C437.015 554.333 436.035 554.555 434.775 554.555H432.325C432.278 553.995 432.173 553.365 432.01 552.665C431.847 551.965 431.648 551.393 431.415 550.95C430.692 551.743 429.933 552.467 429.14 553.12C428.347 553.797 427.542 554.345 426.725 554.765ZM423.155 535.095V523.37H438.345V535.095H423.155ZM431.485 550.845H433.935C434.472 550.845 434.88 550.775 435.16 550.635C435.44 550.472 435.673 550.133 435.86 549.62C436.023 549.223 436.175 548.675 436.315 547.975C436.478 547.252 436.607 546.517 436.7 545.77C436.793 545 436.852 544.358 436.875 543.845H435.825C435.358 545.035 434.74 546.237 433.97 547.45C433.223 548.663 432.395 549.795 431.485 550.845ZM427.005 532.26H434.495V530.58H427.005V532.26ZM427.005 528.025H434.495V526.38H427.005V528.025Z" fill="white"/>
<path d="M41.4123 214.864V200.824H47.2683V197.824H40.2843V195.376H62.0043V197.824H54.4923V200.824H60.9003V214.864H41.4123ZM44.1723 212.32H58.1403V208.84C57.8843 209.144 57.5643 209.352 57.1803 209.464C56.8123 209.576 56.3723 209.632 55.8603 209.632H54.0603C53.2923 209.632 52.7243 209.512 52.3563 209.272C52.0043 209.016 51.8282 208.576 51.8282 207.952V203.368H49.9323C49.8683 204.552 49.6763 205.576 49.3563 206.44C49.0523 207.304 48.5963 208.072 47.9883 208.744C47.3963 209.416 46.6443 210.056 45.7323 210.664C45.5403 210.44 45.3003 210.176 45.0123 209.872C44.7243 209.568 44.4443 209.312 44.1723 209.104V212.32ZM44.1723 208.432C45.1483 207.776 45.8843 207.08 46.3803 206.344C46.8763 205.608 47.1643 204.616 47.2443 203.368H44.1723V208.432ZM55.0923 206.992H55.5723C55.9403 206.992 56.1883 206.872 56.3163 206.632C56.4443 206.376 56.5563 205.832 56.6523 205C56.8443 205.096 57.0763 205.192 57.3483 205.288C57.6203 205.384 57.8843 205.48 58.1403 205.576V203.368H54.4923V206.416C54.4923 206.608 54.5323 206.752 54.6123 206.848C54.6923 206.944 54.8523 206.992 55.0923 206.992ZM49.9563 200.824H51.8282V197.824H49.9563V200.824ZM80.2203 215.776C79.9643 215.552 79.6043 215.288 79.1403 214.984C78.6923 214.68 78.2843 214.448 77.9163 214.288C78.1723 214.032 78.4043 213.776 78.6123 213.52C78.8203 213.248 79.0203 212.976 79.2123 212.704H72.2043V204.424H74.6283V200.632H71.5083V198.184H74.6283V194.104H77.1963V198.184H80.0763V200.632H77.1963V204.424H79.6203V211.96C80.0683 211.112 80.3883 210.144 80.5803 209.056C80.7723 207.968 80.8683 206.664 80.8683 205.144V194.584H88.0923V213.52C88.0923 214.288 87.8763 214.84 87.4443 215.176C87.0123 215.512 86.3563 215.68 85.4763 215.68H83.8443C83.8283 215.456 83.7883 215.176 83.7243 214.84C83.6603 214.52 83.5883 214.2 83.5083 213.88C83.4283 213.544 83.3483 213.288 83.2683 213.112H84.7803C85.0683 213.112 85.2763 213.064 85.4043 212.968C85.5323 212.872 85.5963 212.68 85.5963 212.392V207.688H83.2923C83.1483 209.432 82.8283 210.96 82.3323 212.272C81.8363 213.568 81.1323 214.736 80.2203 215.776ZM68.7003 215.128L66.1563 214C66.4603 213.472 66.7723 212.864 67.0923 212.176C67.4123 211.472 67.7083 210.744 67.9803 209.992C68.2683 209.224 68.5163 208.48 68.7243 207.76C68.9483 207.04 69.1083 206.4 69.2043 205.84C69.5243 206.048 69.9083 206.288 70.3563 206.56C70.8203 206.816 71.2283 207.008 71.5803 207.136C71.4683 207.712 71.3003 208.36 71.0763 209.08C70.8683 209.784 70.6283 210.504 70.3563 211.24C70.0843 211.976 69.8043 212.68 69.5163 213.352C69.2283 214.024 68.9563 214.616 68.7003 215.128ZM69.9723 204.376C69.7003 204.104 69.3483 203.816 68.9163 203.512C68.4843 203.192 68.0283 202.888 67.5483 202.6C67.0843 202.312 66.6443 202.08 66.2283 201.904L67.6203 199.744C68.0203 199.92 68.4523 200.144 68.9163 200.416C69.3963 200.688 69.8603 200.976 70.3083 201.28C70.7723 201.584 71.1723 201.872 71.5083 202.144C71.3803 202.288 71.2123 202.504 71.0043 202.792C70.7963 203.08 70.5963 203.376 70.4043 203.68C70.2123 203.968 70.0683 204.2 69.9723 204.376ZM70.4043 199.048C70.1323 198.776 69.7883 198.48 69.3723 198.16C68.9723 197.824 68.5403 197.504 68.0763 197.2C67.6283 196.896 67.1963 196.648 66.7803 196.456L68.2923 194.44C68.6283 194.6 69.0283 194.832 69.4923 195.136C69.9563 195.424 70.4203 195.736 70.8843 196.072C71.3483 196.392 71.7403 196.688 72.0603 196.96C71.9323 197.104 71.7563 197.304 71.5323 197.56C71.3243 197.816 71.1163 198.08 70.9083 198.352C70.7003 198.624 70.5323 198.856 70.4043 199.048ZM74.7003 210.232H77.1483V206.896H74.7003V210.232ZM83.3883 205.288H85.5963V202.312H83.3883V205.288ZM83.3883 199.888H85.5963V196.96H83.3883V199.888ZM94.7883 215.92C94.6123 215.776 94.3643 215.616 94.0443 215.44C93.7403 215.28 93.4203 215.12 93.0843 214.96C92.7483 214.8 92.4443 214.68 92.1723 214.6C92.7483 213.8 93.2283 212.92 93.6123 211.96C93.9963 211 94.2843 209.904 94.4763 208.672C94.6683 207.44 94.7643 206.024 94.7643 204.424V194.44H113.46V213.28C113.46 214.928 112.468 215.752 110.484 215.752H108.708C108.676 215.384 108.604 214.928 108.492 214.384C108.38 213.84 108.26 213.4 108.132 213.064H99.5163V206.32H108.588V212.968H109.716C110.036 212.968 110.268 212.912 110.412 212.8C110.556 212.688 110.628 212.48 110.628 212.176V196.84H97.5963V204.424C97.5963 206.936 97.3723 209.112 96.9243 210.952C96.4923 212.792 95.7803 214.448 94.7883 215.92ZM98.3403 205.168V202.936H102.732V201.424H99.1323V199.264H102.732V197.344H105.516V199.264H109.044V201.424H105.516V202.936H109.932V205.168H98.3403ZM102.18 210.832H105.948V208.576H102.18V210.832ZM132.708 215.44C131.012 215.44 129.572 215.352 128.388 215.176C127.204 215.016 126.212 214.768 125.412 214.432C124.628 214.096 123.98 213.68 123.468 213.184C123.02 213.52 122.476 213.904 121.836 214.336C121.212 214.768 120.644 215.128 120.132 215.416L119.004 212.704C119.276 212.592 119.596 212.456 119.964 212.296C120.332 212.12 120.7 211.944 121.068 211.768C121.436 211.576 121.748 211.4 122.004 211.24V205.432H119.46V202.912H124.572V209.8C125.308 208.84 125.844 207.72 126.18 206.44C126.516 205.144 126.684 203.6 126.684 201.808V199.168H124.62V197.968C124.364 198.208 124.092 198.472 123.804 198.76C123.516 199.032 123.292 199.28 123.132 199.504C122.844 199.104 122.492 198.696 122.076 198.28C121.676 197.848 121.252 197.44 120.804 197.056C120.356 196.656 119.924 196.32 119.508 196.048L121.404 194.128C121.884 194.432 122.42 194.84 123.012 195.352C123.62 195.864 124.156 196.368 124.62 196.864V196.84H127.38V194.008H130.02V196.84H132.492V198.256C132.86 197.568 133.164 196.848 133.404 196.096C133.66 195.328 133.844 194.6 133.956 193.912L136.356 194.296C136.212 195.032 136.02 195.776 135.78 196.528H141.084V198.856H134.844C134.716 199.112 134.58 199.36 134.436 199.6C134.308 199.84 134.164 200.072 134.004 200.296H139.98L140.796 201.088C140.572 201.424 140.284 201.824 139.932 202.288C139.596 202.736 139.26 203.168 138.924 203.584C138.588 204 138.316 204.336 138.108 204.592V205.072H141.132V207.376H138.108V210.112C138.108 210.896 137.884 211.464 137.436 211.816C136.988 212.168 136.308 212.344 135.396 212.344H134.172C134.14 212.008 134.068 211.592 133.956 211.096C133.86 210.584 133.748 210.184 133.62 209.896H134.724C135.028 209.896 135.244 209.848 135.372 209.752C135.516 209.656 135.588 209.464 135.588 209.176V207.376H132.876V205.072H135.588V203.704H136.116C136.276 203.528 136.444 203.32 136.62 203.08C136.812 202.84 136.964 202.632 137.076 202.456H133.476V201.064C133.412 201.176 133.332 201.28 133.236 201.376C133.156 201.472 133.076 201.568 132.996 201.664C132.788 201.456 132.484 201.232 132.084 200.992C131.7 200.736 131.348 200.552 131.028 200.44C131.38 200.04 131.7 199.616 131.988 199.168H128.988V201.28H132.324C132.324 202.48 132.3 203.632 132.252 204.736C132.22 205.84 132.172 206.824 132.108 207.688C132.044 208.536 131.964 209.192 131.868 209.656C131.676 210.568 131.348 211.2 130.884 211.552C130.436 211.904 129.756 212.08 128.844 212.08H127.98C127.964 211.888 127.932 211.64 127.884 211.336C127.836 211.016 127.78 210.712 127.716 210.424C127.652 210.12 127.588 209.888 127.524 209.728H128.46C128.972 209.728 129.284 209.656 129.396 209.512C129.524 209.368 129.62 209.096 129.684 208.696C129.748 208.328 129.804 207.848 129.852 207.256C129.916 206.664 129.964 206.04 129.996 205.384C130.044 204.712 130.068 204.08 130.068 203.488H128.916C128.788 205.184 128.476 206.728 127.98 208.12C127.484 209.496 126.82 210.68 125.988 211.672C125.812 211.496 125.596 211.312 125.34 211.12C125.084 210.928 124.828 210.752 124.572 210.592V210.712C124.86 211.56 125.66 212.16 126.972 212.512C128.284 212.848 130.196 213.016 132.708 213.016C134.756 213.016 136.516 212.984 137.988 212.92C139.46 212.84 140.652 212.736 141.564 212.608C141.484 212.784 141.396 213.048 141.3 213.4C141.204 213.752 141.124 214.112 141.06 214.48C140.996 214.848 140.956 215.152 140.94 215.392C140.492 215.392 139.908 215.392 139.188 215.392C138.468 215.408 137.7 215.416 136.884 215.416C136.084 215.432 135.316 215.44 134.58 215.44C133.844 215.44 133.22 215.44 132.708 215.44ZM164.748 211.504C164.412 210.592 163.972 209.624 163.428 208.6C162.9 207.56 162.324 206.528 161.7 205.504C161.076 204.464 160.436 203.48 159.78 202.552C159.14 201.624 158.532 200.824 157.956 200.152C158.212 200.024 158.508 199.872 158.844 199.696C159.18 199.504 159.5 199.32 159.804 199.144C160.124 198.952 160.372 198.8 160.548 198.688C161.156 199.328 161.804 200.104 162.492 201.016C163.18 201.928 163.86 202.904 164.532 203.944C165.204 204.984 165.828 206.04 166.404 207.112C166.98 208.168 167.468 209.168 167.868 210.112C167.612 210.192 167.284 210.32 166.884 210.496C166.484 210.672 166.084 210.856 165.684 211.048C165.3 211.224 164.988 211.376 164.748 211.504ZM148.188 211.648C147.98 211.456 147.716 211.248 147.396 211.024C147.076 210.784 146.748 210.56 146.412 210.352C146.092 210.128 145.804 209.952 145.548 209.824C146.204 209.216 146.86 208.488 147.516 207.64C148.188 206.792 148.82 205.888 149.412 204.928C150.004 203.952 150.54 202.968 151.02 201.976C151.5 200.968 151.892 200 152.196 199.072C152.452 199.2 152.756 199.352 153.108 199.528C153.476 199.688 153.844 199.84 154.212 199.984C154.58 200.128 154.884 200.248 155.124 200.344C154.628 201.688 154.012 203.048 153.276 204.424C152.556 205.8 151.756 207.112 150.876 208.36C150.012 209.592 149.116 210.688 148.188 211.648ZM164.772 199.72C164.74 199.688 164.636 199.576 164.46 199.384C164.284 199.176 164.068 198.936 163.812 198.664C163.572 198.392 163.324 198.12 163.068 197.848C162.828 197.576 162.612 197.344 162.42 197.152C162.244 196.944 162.14 196.824 162.108 196.792L163.308 195.76C163.356 195.808 163.508 195.976 163.764 196.264C164.02 196.552 164.308 196.88 164.628 197.248C164.964 197.6 165.26 197.92 165.516 198.208C165.772 198.48 165.924 198.64 165.972 198.688L164.772 199.72ZM166.884 197.896C166.852 197.864 166.748 197.752 166.572 197.56C166.396 197.352 166.18 197.112 165.924 196.84C165.684 196.552 165.436 196.272 165.18 196C164.924 195.728 164.708 195.496 164.532 195.304C164.356 195.112 164.252 195 164.22 194.968L165.396 193.936C165.444 193.984 165.596 194.152 165.852 194.44C166.108 194.712 166.396 195.032 166.716 195.4C167.052 195.752 167.348 196.072 167.604 196.36C167.86 196.632 168.012 196.792 168.06 196.84L166.884 197.896ZM175.404 214.408C175.132 214.072 174.78 213.68 174.348 213.232C173.932 212.784 173.532 212.416 173.148 212.128C174.524 211.456 175.86 210.648 177.156 209.704C178.468 208.744 179.684 207.712 180.804 206.608C181.924 205.488 182.908 204.336 183.756 203.152C184.62 201.952 185.3 200.776 185.796 199.624C185.396 199.624 184.836 199.632 184.116 199.648C183.412 199.664 182.62 199.688 181.74 199.72C180.86 199.736 179.98 199.76 179.1 199.792C178.22 199.824 177.412 199.856 176.676 199.888C175.94 199.92 175.364 199.952 174.948 199.984C174.948 199.744 174.932 199.432 174.9 199.048C174.884 198.664 174.868 198.272 174.852 197.872C174.836 197.456 174.828 197.12 174.828 196.864C175.308 196.88 175.924 196.896 176.676 196.912C177.428 196.928 178.26 196.936 179.172 196.936C180.1 196.936 181.036 196.936 181.98 196.936C182.94 196.92 183.86 196.904 184.74 196.888C185.62 196.856 186.396 196.824 187.068 196.792C187.74 196.76 188.252 196.72 188.604 196.672C188.7 196.768 188.828 196.904 188.988 197.08C189.164 197.24 189.34 197.4 189.516 197.56C189.692 197.72 189.82 197.84 189.9 197.92C189.708 198.176 189.524 198.488 189.348 198.856C189.188 199.224 189.044 199.568 188.916 199.888C188.484 200.864 187.996 201.816 187.452 202.744C186.908 203.656 186.308 204.552 185.652 205.432C186.164 205.784 186.764 206.224 187.452 206.752C188.14 207.28 188.844 207.84 189.564 208.432C190.284 209.008 190.956 209.576 191.58 210.136C192.204 210.68 192.708 211.16 193.092 211.576C192.9 211.72 192.636 211.944 192.3 212.248C191.98 212.536 191.66 212.832 191.34 213.136C191.036 213.424 190.812 213.648 190.668 213.808C190.332 213.424 189.876 212.952 189.3 212.392C188.724 211.832 188.1 211.256 187.428 210.664C186.772 210.072 186.124 209.512 185.484 208.984C184.844 208.44 184.284 208 183.804 207.664C182.604 208.976 181.292 210.208 179.868 211.36C178.46 212.496 176.972 213.512 175.404 214.408ZM215.347 214.384C213.827 214.384 212.475 214.024 211.291 213.304C210.123 212.584 209.203 211.568 208.531 210.256C207.875 208.928 207.547 207.376 207.547 205.6C207.547 203.808 207.875 202.256 208.531 200.944C209.203 199.616 210.123 198.592 211.291 197.872C212.475 197.136 213.827 196.768 215.347 196.768C216.595 196.768 217.739 196.992 218.779 197.44C219.835 197.872 220.707 198.432 221.395 199.12L219.643 201.28C219.163 200.752 218.539 200.32 217.771 199.984C217.019 199.648 216.211 199.48 215.347 199.48C214.339 199.48 213.467 199.736 212.731 200.248C212.011 200.76 211.451 201.48 211.051 202.408C210.651 203.32 210.451 204.384 210.451 205.6C210.451 206.8 210.651 207.864 211.051 208.792C211.451 209.704 212.011 210.416 212.731 210.928C213.467 211.44 214.339 211.696 215.347 211.696C216.099 211.696 216.723 211.624 217.219 211.48C217.731 211.32 218.179 211.128 218.563 210.904V207.304H215.803V204.712H221.371V212.728C220.635 213.24 219.739 213.648 218.683 213.952C217.643 214.24 216.531 214.384 215.347 214.384ZM226.555 214V202.456H229.003L229.171 204.088C229.459 203.512 229.907 203.048 230.515 202.696C231.139 202.344 231.795 202.168 232.483 202.168C232.755 202.168 233.003 202.184 233.227 202.216C233.451 202.248 233.643 202.288 233.803 202.336V204.952C233.595 204.888 233.347 204.84 233.059 204.808C232.787 204.76 232.467 204.736 232.099 204.736C231.315 204.736 230.643 204.992 230.083 205.504C229.539 206.016 229.267 206.736 229.267 207.664V214H226.555ZM243.159 214.264C241.479 214.264 240.119 213.76 239.079 212.752C238.039 211.728 237.519 210.216 237.519 208.216C237.519 206.968 237.751 205.896 238.215 205C238.679 204.088 239.327 203.392 240.159 202.912C240.991 202.416 241.943 202.168 243.015 202.168C244.087 202.168 244.999 202.432 245.751 202.96C246.503 203.472 247.079 204.176 247.479 205.072C247.879 205.968 248.079 206.976 248.079 208.096V208.72H240.183C240.247 209.872 240.551 210.696 241.095 211.192C241.639 211.672 242.343 211.912 243.207 211.912C243.959 211.912 244.575 211.736 245.055 211.384C245.535 211.016 245.951 210.472 246.303 209.752L248.295 211.144C247.703 212.248 246.975 213.048 246.111 213.544C245.263 214.024 244.279 214.264 243.159 214.264ZM240.303 206.632H245.415C245.287 205.88 245.007 205.304 244.575 204.904C244.159 204.488 243.623 204.28 242.967 204.28C242.263 204.28 241.679 204.472 241.215 204.856C240.767 205.24 240.463 205.832 240.303 206.632ZM258.074 214.264C256.394 214.264 255.034 213.76 253.994 212.752C252.954 211.728 252.434 210.216 252.434 208.216C252.434 206.968 252.666 205.896 253.13 205C253.594 204.088 254.242 203.392 255.074 202.912C255.906 202.416 256.858 202.168 257.93 202.168C259.002 202.168 259.914 202.432 260.666 202.96C261.418 203.472 261.994 204.176 262.394 205.072C262.794 205.968 262.994 206.976 262.994 208.096V208.72H255.098C255.162 209.872 255.466 210.696 256.01 211.192C256.554 211.672 257.258 211.912 258.122 211.912C258.874 211.912 259.49 211.736 259.97 211.384C260.45 211.016 260.866 210.472 261.218 209.752L263.21 211.144C262.618 212.248 261.89 213.048 261.026 213.544C260.178 214.024 259.194 214.264 258.074 214.264ZM255.218 206.632H260.33C260.202 205.88 259.922 205.304 259.49 204.904C259.074 204.488 258.538 204.28 257.882 204.28C257.178 204.28 256.594 204.472 256.13 204.856C255.682 205.24 255.378 205.832 255.218 206.632ZM267.95 214V202.456H270.374L270.518 203.824C270.838 203.376 271.262 202.992 271.79 202.672C272.318 202.336 272.942 202.168 273.662 202.168C274.862 202.168 275.838 202.552 276.59 203.32C277.358 204.088 277.742 205.216 277.742 206.704V214H275.03V207.352C275.03 206.44 274.846 205.76 274.478 205.312C274.11 204.848 273.614 204.616 272.99 204.616C272.302 204.616 271.742 204.856 271.31 205.336C270.878 205.8 270.662 206.496 270.662 207.424V214H267.95ZM292.467 214V197.2H295.227V211.432H303.987V214H292.467ZM308.698 214V202.456H311.386V214H308.698ZM310.018 200.56C309.554 200.56 309.154 200.392 308.818 200.056C308.482 199.72 308.314 199.32 308.314 198.856C308.314 198.392 308.482 197.992 308.818 197.656C309.154 197.32 309.554 197.152 310.018 197.152C310.482 197.152 310.882 197.32 311.218 197.656C311.554 197.992 311.722 198.392 311.722 198.856C311.722 199.32 311.554 199.72 311.218 200.056C310.882 200.392 310.482 200.56 310.018 200.56ZM317.042 214V202.456H319.466L319.61 203.824C319.93 203.376 320.354 202.992 320.882 202.672C321.41 202.336 322.034 202.168 322.754 202.168C323.954 202.168 324.93 202.552 325.682 203.32C326.45 204.088 326.834 205.216 326.834 206.704V214H324.122V207.352C324.122 206.44 323.938 205.76 323.57 205.312C323.202 204.848 322.706 204.616 322.082 204.616C321.394 204.616 320.834 204.856 320.402 205.336C319.97 205.8 319.754 206.496 319.754 207.424V214H317.042ZM337.232 214.264C335.552 214.264 334.192 213.76 333.152 212.752C332.112 211.728 331.592 210.216 331.592 208.216C331.592 206.968 331.824 205.896 332.288 205C332.752 204.088 333.4 203.392 334.232 202.912C335.064 202.416 336.016 202.168 337.088 202.168C338.16 202.168 339.072 202.432 339.824 202.96C340.576 203.472 341.152 204.176 341.552 205.072C341.952 205.968 342.152 206.976 342.152 208.096V208.72H334.256C334.32 209.872 334.624 210.696 335.168 211.192C335.712 211.672 336.416 211.912 337.28 211.912C338.032 211.912 338.648 211.736 339.128 211.384C339.608 211.016 340.024 210.472 340.376 209.752L342.368 211.144C341.776 212.248 341.048 213.048 340.184 213.544C339.336 214.024 338.352 214.264 337.232 214.264ZM334.376 206.632H339.488C339.36 205.88 339.08 205.304 338.648 204.904C338.232 204.488 337.696 204.28 337.04 204.28C336.336 204.28 335.752 204.472 335.288 204.856C334.84 205.24 334.536 205.832 334.376 206.632ZM366.956 216.472C365.948 215.528 365.052 214.464 364.268 213.28C363.5 212.096 362.892 210.8 362.444 209.392C361.996 207.984 361.772 206.48 361.772 204.88C361.772 203.264 361.996 201.752 362.444 200.344C362.892 198.936 363.5 197.64 364.268 196.456C365.052 195.272 365.948 194.216 366.956 193.288L368.18 194.416C366.724 195.872 365.58 197.448 364.748 199.144C363.932 200.824 363.524 202.736 363.524 204.88C363.524 207.008 363.932 208.92 364.748 210.616C365.58 212.312 366.724 213.888 368.18 215.344L366.956 216.472ZM379.196 215.2C379.052 215.04 378.82 214.816 378.5 214.528C378.18 214.24 377.844 213.944 377.492 213.64C377.14 213.336 376.844 213.104 376.604 212.944C377.948 212.368 379.228 211.648 380.444 210.784C381.676 209.92 382.812 208.96 383.852 207.904C384.908 206.832 385.844 205.72 386.66 204.568C387.476 203.416 388.148 202.272 388.676 201.136H382.628C381.78 202.304 380.876 203.408 379.916 204.448C378.972 205.472 378.028 206.368 377.084 207.136C376.78 206.848 376.396 206.52 375.932 206.152C375.468 205.784 375.076 205.496 374.756 205.288C375.54 204.728 376.34 204.048 377.156 203.248C377.972 202.432 378.756 201.552 379.508 200.608C380.276 199.648 380.964 198.664 381.572 197.656C382.196 196.648 382.7 195.672 383.084 194.728C383.324 194.824 383.62 194.936 383.972 195.064C384.324 195.192 384.676 195.32 385.028 195.448C385.38 195.56 385.668 195.64 385.892 195.688C385.428 196.696 384.9 197.672 384.308 198.616C384.932 198.616 385.62 198.616 386.372 198.616C387.14 198.616 387.892 198.608 388.628 198.592C389.364 198.576 390.004 198.56 390.548 198.544C391.092 198.528 391.452 198.504 391.628 198.472C391.708 198.552 391.836 198.68 392.012 198.856C392.188 199.016 392.356 199.168 392.516 199.312C392.692 199.456 392.804 199.56 392.852 199.624C392.66 199.88 392.42 200.264 392.132 200.776C391.86 201.288 391.588 201.84 391.316 202.432C390.756 203.664 390.044 204.896 389.18 206.128C388.316 207.36 387.348 208.544 386.276 209.68C385.204 210.816 384.068 211.856 382.868 212.8C381.668 213.744 380.444 214.544 379.196 215.2ZM394.124 199.504C394.092 199.472 393.98 199.36 393.788 199.168C393.612 198.96 393.396 198.728 393.14 198.472C392.884 198.2 392.628 197.928 392.372 197.656C392.116 197.384 391.892 197.16 391.7 196.984C391.524 196.792 391.42 196.68 391.388 196.648L392.564 195.568C392.612 195.616 392.764 195.784 393.02 196.072C393.292 196.344 393.596 196.656 393.932 197.008C394.268 197.36 394.564 197.68 394.82 197.968C395.092 198.24 395.252 198.4 395.3 198.448L394.124 199.504ZM396.188 197.632C396.156 197.584 396.004 197.424 395.732 197.152C395.476 196.864 395.172 196.544 394.82 196.192C394.484 195.84 394.18 195.528 393.908 195.256C393.652 194.968 393.5 194.8 393.452 194.752L394.604 193.696C394.652 193.744 394.804 193.904 395.06 194.176C395.332 194.448 395.636 194.768 395.972 195.136C396.308 195.488 396.604 195.8 396.86 196.072C397.132 196.344 397.292 196.504 397.34 196.552L396.188 197.632ZM408.452 215.392C408.324 215.168 408.132 214.888 407.876 214.552C407.62 214.232 407.348 213.912 407.06 213.592C406.772 213.256 406.508 212.976 406.268 212.752C407.404 212.368 408.372 211.952 409.172 211.504C409.988 211.04 410.66 210.496 411.188 209.872C411.716 209.248 412.124 208.488 412.412 207.592C412.716 206.696 412.924 205.616 413.036 204.352C413.164 203.088 413.228 201.592 413.228 199.864C413.228 198.712 413.212 197.68 413.18 196.768C413.164 195.84 413.132 195.176 413.084 194.776C413.132 194.776 413.18 194.784 413.228 194.8C413.292 194.8 413.356 194.8 413.42 194.8C413.74 194.816 414.1 194.84 414.5 194.872C414.9 194.888 415.284 194.904 415.652 194.92C416.02 194.92 416.308 194.92 416.516 194.92C416.5 195.16 416.476 195.544 416.444 196.072C416.428 196.6 416.412 197.2 416.396 197.872C416.38 198.528 416.372 199.192 416.372 199.864C416.372 201.672 416.308 203.272 416.18 204.664C416.052 206.056 415.82 207.28 415.484 208.336C415.148 209.392 414.684 210.336 414.092 211.168C413.5 212 412.74 212.76 411.812 213.448C410.9 214.12 409.78 214.768 408.452 215.392ZM404.828 206.872C404.844 206.552 404.852 206.08 404.852 205.456C404.868 204.816 404.876 204.096 404.876 203.296C404.892 202.496 404.892 201.672 404.876 200.824C404.876 199.976 404.868 199.16 404.852 198.376C404.836 197.592 404.82 196.912 404.804 196.336C404.788 195.76 404.764 195.344 404.732 195.088C404.972 195.104 405.3 195.12 405.716 195.136C406.148 195.152 406.58 195.168 407.012 195.184C407.444 195.2 407.772 195.208 407.996 195.208C407.964 195.544 407.94 195.888 407.924 196.24C407.924 196.576 407.924 196.968 407.924 197.416C407.924 197.496 407.924 197.592 407.924 197.704C407.924 197.8 407.924 197.896 407.924 197.992C407.924 198.152 407.924 198.376 407.924 198.664C407.924 198.936 407.924 199.24 407.924 199.576C407.908 200.168 407.9 200.824 407.9 201.544C407.9 202.248 407.9 202.952 407.9 203.656C407.9 204.36 407.9 205 407.9 205.576C407.916 206.152 407.932 206.584 407.948 206.872C407.532 206.856 407.012 206.848 406.388 206.848C405.764 206.848 405.244 206.856 404.828 206.872ZM427.052 206.44C427.068 206.216 427.076 205.912 427.076 205.528C427.076 205.144 427.076 204.76 427.076 204.376C427.076 203.992 427.068 203.688 427.052 203.464C427.356 203.48 427.892 203.496 428.66 203.512C429.444 203.528 430.372 203.544 431.444 203.56C432.532 203.576 433.692 203.592 434.924 203.608C436.156 203.608 437.388 203.608 438.62 203.608C439.852 203.608 441.012 203.6 442.1 203.584C443.204 203.568 444.156 203.552 444.956 203.536C445.756 203.52 446.324 203.496 446.66 203.464C446.644 203.672 446.628 203.968 446.612 204.352C446.612 204.736 446.612 205.128 446.612 205.528C446.628 205.912 446.636 206.208 446.636 206.416C446.236 206.4 445.644 206.384 444.86 206.368C444.092 206.352 443.188 206.336 442.148 206.32C441.124 206.304 440.028 206.296 438.86 206.296C437.708 206.296 436.54 206.296 435.356 206.296C434.172 206.296 433.044 206.304 431.972 206.32C430.9 206.336 429.932 206.352 429.068 206.368C428.22 206.384 427.548 206.408 427.052 206.44ZM456.332 213.616C456.22 213.408 456.052 213.112 455.828 212.728C455.604 212.328 455.372 211.936 455.132 211.552C454.892 211.168 454.692 210.896 454.532 210.736C456.116 210.384 457.724 209.872 459.356 209.2C461.004 208.512 462.612 207.704 464.18 206.776C465.764 205.832 467.26 204.792 468.668 203.656C470.092 202.52 471.38 201.32 472.532 200.056C472.564 200.248 472.62 200.504 472.7 200.824C472.796 201.128 472.892 201.448 472.988 201.784C473.084 202.12 473.172 202.424 473.252 202.696C473.348 202.952 473.42 203.128 473.468 203.224C472.076 204.696 470.452 206.104 468.596 207.448C466.756 208.792 464.788 210 462.692 211.072C460.596 212.128 458.476 212.976 456.332 213.616ZM459.788 203.008C459.5 202.704 459.132 202.352 458.684 201.952C458.236 201.536 457.748 201.12 457.22 200.704C456.692 200.272 456.172 199.872 455.66 199.504C455.164 199.12 454.716 198.808 454.316 198.568C454.524 198.376 454.78 198.128 455.084 197.824C455.388 197.504 455.676 197.192 455.948 196.888C456.236 196.584 456.436 196.368 456.548 196.24C456.932 196.48 457.38 196.792 457.892 197.176C458.404 197.56 458.924 197.968 459.452 198.4C459.98 198.832 460.468 199.256 460.916 199.672C461.38 200.072 461.74 200.416 461.996 200.704C461.82 200.864 461.588 201.088 461.3 201.376C461.028 201.664 460.748 201.96 460.46 202.264C460.188 202.552 459.964 202.8 459.788 203.008ZM485.828 215.176C485.716 215 485.548 214.76 485.324 214.456C485.116 214.152 484.884 213.848 484.628 213.544C484.388 213.224 484.164 212.96 483.956 212.752C485.572 212.208 487.06 211.488 488.42 210.592C489.78 209.696 490.964 208.656 491.972 207.472C492.996 206.288 493.788 204.992 494.348 203.584C494.028 203.584 493.54 203.592 492.884 203.608C492.228 203.608 491.476 203.616 490.628 203.632C489.78 203.632 488.9 203.64 487.988 203.656C487.092 203.656 486.212 203.664 485.348 203.68C484.5 203.696 483.74 203.712 483.068 203.728C482.396 203.744 481.876 203.768 481.508 203.8C481.524 203.624 481.524 203.344 481.508 202.96C481.508 202.56 481.492 202.16 481.46 201.76C481.444 201.344 481.428 201.04 481.412 200.848C481.812 200.864 482.42 200.88 483.236 200.896C484.052 200.912 484.988 200.928 486.044 200.944C487.1 200.944 488.196 200.944 489.332 200.944C490.468 200.944 491.556 200.936 492.596 200.92C493.636 200.904 494.54 200.88 495.308 200.848C496.092 200.8 496.652 200.752 496.988 200.704C497.164 200.864 497.396 201.064 497.684 201.304C497.972 201.544 498.204 201.752 498.38 201.928C498.268 202.136 498.116 202.448 497.924 202.864C497.732 203.28 497.548 203.696 497.372 204.112C496.3 206.592 494.796 208.8 492.86 210.736C490.924 212.656 488.58 214.136 485.828 215.176ZM483.284 198.304C483.3 198.064 483.3 197.768 483.284 197.416C483.284 197.064 483.276 196.704 483.26 196.336C483.26 195.968 483.252 195.664 483.236 195.424C483.524 195.44 484.004 195.456 484.676 195.472C485.348 195.472 486.132 195.48 487.028 195.496C487.924 195.496 488.86 195.496 489.836 195.496C490.812 195.496 491.748 195.496 492.644 195.496C493.556 195.48 494.356 195.464 495.044 195.448C495.748 195.432 496.252 195.408 496.556 195.376C496.556 195.584 496.548 195.872 496.532 196.24C496.532 196.592 496.532 196.952 496.532 197.32C496.532 197.688 496.532 198.008 496.532 198.28C496.18 198.264 495.652 198.256 494.948 198.256C494.244 198.24 493.444 198.232 492.548 198.232C491.668 198.216 490.748 198.216 489.788 198.232C488.844 198.232 487.932 198.24 487.052 198.256C486.172 198.256 485.396 198.264 484.724 198.28C484.068 198.28 483.588 198.288 483.284 198.304ZM515.996 215.032C516.012 214.728 516.02 214.256 516.02 213.616C516.036 212.976 516.044 212.232 516.044 211.384C516.06 210.52 516.068 209.608 516.068 208.648C516.084 207.688 516.092 206.736 516.092 205.792C516.092 204.848 516.092 203.968 516.092 203.152C514.892 204.048 513.7 204.88 512.516 205.648C511.332 206.416 510.204 207.072 509.132 207.616C508.988 207.44 508.756 207.208 508.436 206.92C508.116 206.616 507.788 206.32 507.452 206.032C507.132 205.744 506.884 205.528 506.708 205.384C508.004 204.808 509.34 204.088 510.716 203.224C512.108 202.36 513.46 201.432 514.772 200.44C516.1 199.432 517.324 198.424 518.444 197.416C519.58 196.408 520.54 195.464 521.324 194.584C521.516 194.744 521.772 194.944 522.092 195.184C522.412 195.424 522.74 195.656 523.076 195.88C523.428 196.104 523.708 196.28 523.916 196.408C522.508 197.864 520.876 199.36 519.02 200.896C519.02 201.728 519.028 202.696 519.044 203.8C519.06 204.904 519.076 206.048 519.092 207.232C519.108 208.4 519.116 209.52 519.116 210.592C519.132 211.664 519.148 212.592 519.164 213.376C519.18 214.16 519.188 214.712 519.188 215.032H515.996ZM535.532 213.616C535.42 213.408 535.252 213.112 535.028 212.728C534.804 212.328 534.572 211.936 534.332 211.552C534.092 211.168 533.892 210.896 533.732 210.736C535.316 210.384 536.924 209.872 538.556 209.2C540.204 208.512 541.812 207.704 543.38 206.776C544.964 205.832 546.46 204.792 547.868 203.656C549.292 202.52 550.58 201.32 551.732 200.056C551.764 200.248 551.82 200.504 551.9 200.824C551.996 201.128 552.092 201.448 552.188 201.784C552.284 202.12 552.372 202.424 552.452 202.696C552.548 202.952 552.62 203.128 552.668 203.224C551.276 204.696 549.652 206.104 547.796 207.448C545.956 208.792 543.988 210 541.892 211.072C539.796 212.128 537.676 212.976 535.532 213.616ZM538.988 203.008C538.7 202.704 538.332 202.352 537.884 201.952C537.436 201.536 536.948 201.12 536.42 200.704C535.892 200.272 535.372 199.872 534.86 199.504C534.364 199.12 533.916 198.808 533.516 198.568C533.724 198.376 533.98 198.128 534.284 197.824C534.588 197.504 534.876 197.192 535.148 196.888C535.436 196.584 535.636 196.368 535.748 196.24C536.132 196.48 536.58 196.792 537.092 197.176C537.604 197.56 538.124 197.968 538.652 198.4C539.18 198.832 539.668 199.256 540.116 199.672C540.58 200.072 540.94 200.416 541.196 200.704C541.02 200.864 540.788 201.088 540.5 201.376C540.228 201.664 539.948 201.96 539.66 202.264C539.388 202.552 539.164 202.8 538.988 203.008ZM559.532 216.472L558.308 215.344C559.764 213.888 560.9 212.312 561.716 210.616C562.548 208.92 562.964 207.008 562.964 204.88C562.964 202.736 562.548 200.824 561.716 199.144C560.9 197.448 559.764 195.872 558.308 194.416L559.532 193.288C560.54 194.216 561.436 195.272 562.22 196.456C563.004 197.64 563.612 198.936 564.044 200.344C564.492 201.752 564.716 203.264 564.716 204.88C564.716 206.48 564.492 207.984 564.044 209.392C563.612 210.8 563.004 212.096 562.22 213.28C561.436 214.464 560.54 215.528 559.532 216.472ZM284.858 248V247.208C284.858 246.056 285.154 244.936 285.746 243.848C286.354 242.76 287.362 241.544 288.77 240.2C289.266 239.72 289.738 239.24 290.186 238.76C290.634 238.264 291.002 237.784 291.29 237.32C291.578 236.84 291.73 236.384 291.746 235.952C291.762 235.12 291.57 234.504 291.17 234.104C290.786 233.704 290.234 233.504 289.514 233.504C288.826 233.504 288.314 233.752 287.978 234.248C287.642 234.744 287.474 235.44 287.474 236.336H284.93C284.93 234.672 285.354 233.376 286.202 232.448C287.05 231.52 288.154 231.056 289.514 231.056C290.442 231.056 291.266 231.248 291.986 231.632C292.722 232.016 293.298 232.576 293.714 233.312C294.13 234.048 294.322 234.952 294.29 236.024C294.274 236.776 294.098 237.472 293.762 238.112C293.426 238.752 292.978 239.376 292.418 239.984C291.874 240.576 291.25 241.208 290.546 241.88C289.81 242.6 289.154 243.288 288.578 243.944C288.018 244.6 287.69 245.168 287.594 245.648H294.002V248H284.858ZM303.415 248.24C302.135 248.24 301.135 247.92 300.415 247.28C299.695 246.64 299.183 245.68 298.879 244.4C298.591 243.12 298.447 241.52 298.447 239.6C298.447 237.68 298.591 236.08 298.879 234.8C299.183 233.504 299.695 232.536 300.415 231.896C301.135 231.256 302.135 230.936 303.415 230.936C304.695 230.936 305.687 231.256 306.391 231.896C307.111 232.536 307.615 233.504 307.903 234.8C308.207 236.08 308.359 237.68 308.359 239.6C308.359 241.52 308.207 243.12 307.903 244.4C307.615 245.68 307.111 246.64 306.391 247.28C305.687 247.92 304.695 248.24 303.415 248.24ZM303.415 245.792C304.007 245.792 304.471 245.608 304.807 245.24C305.159 244.856 305.415 244.216 305.575 243.32C305.735 242.424 305.815 241.184 305.815 239.6C305.815 238 305.735 236.752 305.575 235.856C305.415 234.96 305.159 234.328 304.807 233.96C304.471 233.576 304.007 233.384 303.415 233.384C302.823 233.384 302.351 233.576 301.999 233.96C301.647 234.328 301.391 234.96 301.231 235.856C301.087 236.752 301.015 238 301.015 239.6C301.015 241.184 301.087 242.424 301.231 243.32C301.391 244.216 301.647 244.856 301.999 245.24C302.351 245.608 302.823 245.792 303.415 245.792ZM315.486 249.752C315.374 249.432 315.166 249.016 314.862 248.504C314.574 248.008 314.27 247.608 313.95 247.304C316.03 246.728 317.646 245.776 318.798 244.448C319.95 243.104 320.63 241.536 320.838 239.744H317.214V237.608C316.702 238.088 316.182 238.536 315.654 238.952C315.142 239.352 314.63 239.712 314.118 240.032C313.91 239.712 313.598 239.328 313.182 238.88C312.782 238.432 312.398 238.056 312.03 237.752C312.942 237.256 313.854 236.608 314.766 235.808C315.694 234.992 316.534 234.088 317.286 233.096C318.054 232.104 318.646 231.104 319.062 230.096L321.798 231.464C321.35 232.44 320.79 233.392 320.118 234.32C319.446 235.248 318.71 236.112 317.91 236.912H329.598C328.734 236.096 327.974 235.2 327.318 234.224C326.678 233.248 326.214 232.216 325.926 231.128H321.966V228.416H328.278C328.502 230.224 329.262 231.872 330.558 233.36C331.854 234.832 333.55 236.072 335.646 237.08C335.422 237.288 335.174 237.552 334.902 237.872C334.646 238.192 334.398 238.52 334.158 238.856C333.934 239.176 333.75 239.464 333.606 239.72C333.11 239.464 332.622 239.184 332.142 238.88C331.678 238.576 331.214 238.248 330.75 237.896C330.734 238.904 330.686 239.968 330.606 241.088C330.542 242.192 330.446 243.24 330.318 244.232C330.206 245.208 330.062 246 329.886 246.608C329.582 247.744 329.07 248.52 328.35 248.936C327.646 249.368 326.678 249.584 325.446 249.584H323.526C323.494 249.312 323.446 248.984 323.382 248.6C323.318 248.232 323.238 247.872 323.142 247.52C323.062 247.152 322.974 246.856 322.878 246.632H325.014C325.654 246.632 326.118 246.536 326.406 246.344C326.71 246.152 326.95 245.784 327.126 245.24C327.254 244.84 327.358 244.312 327.438 243.656C327.534 242.984 327.606 242.296 327.654 241.592C327.702 240.872 327.726 240.256 327.726 239.744H323.742C323.534 242.064 322.75 244.112 321.39 245.888C320.046 247.648 318.078 248.936 315.486 249.752Z" fill="white"/>
<path d="M274.202 479.632C273.946 479.376 273.626 479.136 273.242 478.912C272.874 478.704 272.514 478.528 272.162 478.384V479.608H269.426V470.704C268.866 471.232 268.314 471.712 267.77 472.144C267.642 471.968 267.458 471.76 267.218 471.52C266.978 471.264 266.722 471.024 266.45 470.8C266.194 470.56 265.954 470.376 265.73 470.248C266.226 469.896 266.762 469.44 267.338 468.88C267.93 468.32 268.506 467.712 269.066 467.056C269.642 466.4 270.17 465.736 270.65 465.064C271.13 464.392 271.506 463.776 271.778 463.216L274.202 464.464C273.642 465.552 272.962 466.616 272.162 467.656V478.048C272.738 477.344 273.258 476.528 273.722 475.6C274.186 474.672 274.57 473.664 274.874 472.576C275.178 471.488 275.362 470.376 275.426 469.24L277.994 469.624C277.93 470.184 277.85 470.744 277.754 471.304C277.674 471.848 277.57 472.392 277.442 472.936C278.018 473.992 278.706 474.792 279.506 475.336V468.088H273.698V465.616H279.506V463.096H274.73V460.672H279.506V457.984H282.362V460.672H287.162V463.096H282.362V465.616H288.338V468.088H282.362V470.44H287.234V472.96H282.362V476.488C282.874 476.584 283.41 476.656 283.97 476.704C284.53 476.736 285.13 476.752 285.77 476.752C286.298 476.752 286.802 476.744 287.282 476.728C287.778 476.712 288.25 476.68 288.698 476.632C288.618 476.792 288.522 477.04 288.41 477.376C288.314 477.712 288.226 478.064 288.146 478.432C288.066 478.8 288.018 479.112 288.002 479.368H285.77C284.202 479.368 282.842 479.256 281.69 479.032C280.554 478.824 279.57 478.448 278.738 477.904C277.906 477.36 277.178 476.616 276.554 475.672C276.25 476.408 275.906 477.112 275.522 477.784C275.138 478.44 274.698 479.056 274.202 479.632ZM268.058 464.944C267.85 464.656 267.538 464.32 267.122 463.936C266.722 463.552 266.362 463.256 266.042 463.048C266.73 462.616 267.426 462.112 268.13 461.536C268.834 460.944 269.482 460.336 270.074 459.712C270.666 459.072 271.146 458.464 271.514 457.888L273.722 459.448C273.242 460.168 272.674 460.88 272.018 461.584C271.362 462.272 270.69 462.904 270.002 463.48C269.314 464.056 268.666 464.544 268.058 464.944ZM300.554 474.064C300.522 473.664 300.442 473.2 300.314 472.672C300.186 472.128 300.058 471.696 299.93 471.376H301.514C301.85 471.376 302.09 471.328 302.234 471.232C302.378 471.12 302.45 470.904 302.45 470.584V467.464H292.898V464.872H296.81V459.28H299.714V464.872H302.45V457.768H305.33V460.456H312.266V462.88H305.33V464.872H314.93V467.464H305.33V471.544C305.33 472.424 305.082 473.064 304.586 473.464C304.09 473.864 303.322 474.064 302.282 474.064H300.554ZM294.29 479.944C294.242 479.704 294.17 479.4 294.074 479.032C293.978 478.68 293.866 478.336 293.738 478C293.626 477.648 293.514 477.368 293.402 477.16C294.922 477.176 296.41 477.064 297.866 476.824C299.322 476.584 300.706 476.216 302.018 475.72C303.33 475.224 304.506 474.6 305.546 473.848C306.586 473.096 307.442 472.224 308.114 471.232L310.226 473.224C308.946 474.792 307.482 476.048 305.834 476.992C304.202 477.936 302.418 478.632 300.482 479.08C298.546 479.544 296.482 479.832 294.29 479.944ZM312.962 474.448C312.674 474.112 312.298 473.728 311.834 473.296C311.386 472.864 310.898 472.424 310.37 471.976C309.842 471.528 309.322 471.112 308.81 470.728C308.298 470.344 307.842 470.04 307.442 469.816L309.17 467.752C309.602 467.976 310.09 468.28 310.634 468.664C311.178 469.032 311.73 469.432 312.29 469.864C312.85 470.28 313.37 470.696 313.85 471.112C314.33 471.512 314.714 471.864 315.002 472.168C314.778 472.344 314.53 472.576 314.258 472.864C313.986 473.152 313.73 473.44 313.49 473.728C313.266 474 313.09 474.24 312.962 474.448ZM295.442 475.192C295.202 474.872 294.874 474.528 294.458 474.16C294.058 473.776 293.698 473.488 293.378 473.296C293.89 472.944 294.442 472.472 295.034 471.88C295.642 471.288 296.21 470.664 296.738 470.008C297.282 469.336 297.706 468.728 298.01 468.184L300.314 469.72C299.93 470.408 299.466 471.088 298.922 471.76C298.378 472.432 297.802 473.064 297.194 473.656C296.602 474.232 296.018 474.744 295.442 475.192ZM322.634 478V464.464L319.706 466.384L318.338 464.2L323.234 461.176H325.202V478H322.634ZM334.182 479.752C334.07 479.432 333.862 479.016 333.558 478.504C333.27 478.008 332.966 477.608 332.646 477.304C334.726 476.728 336.342 475.776 337.494 474.448C338.646 473.104 339.326 471.536 339.534 469.744H335.91V467.608C335.398 468.088 334.878 468.536 334.35 468.952C333.838 469.352 333.326 469.712 332.814 470.032C332.606 469.712 332.294 469.328 331.878 468.88C331.478 468.432 331.094 468.056 330.726 467.752C331.638 467.256 332.55 466.608 333.462 465.808C334.39 464.992 335.23 464.088 335.982 463.096C336.75 462.104 337.342 461.104 337.758 460.096L340.494 461.464C340.046 462.44 339.486 463.392 338.814 464.32C338.142 465.248 337.406 466.112 336.606 466.912H348.294C347.43 466.096 346.67 465.2 346.014 464.224C345.374 463.248 344.91 462.216 344.622 461.128H340.662V458.416H346.974C347.198 460.224 347.958 461.872 349.254 463.36C350.55 464.832 352.246 466.072 354.342 467.08C354.118 467.288 353.87 467.552 353.598 467.872C353.342 468.192 353.094 468.52 352.854 468.856C352.63 469.176 352.446 469.464 352.302 469.72C351.806 469.464 351.318 469.184 350.838 468.88C350.374 468.576 349.91 468.248 349.446 467.896C349.43 468.904 349.382 469.968 349.302 471.088C349.238 472.192 349.142 473.24 349.014 474.232C348.902 475.208 348.758 476 348.582 476.608C348.278 477.744 347.766 478.52 347.046 478.936C346.342 479.368 345.374 479.584 344.142 479.584H342.222C342.19 479.312 342.142 478.984 342.078 478.6C342.014 478.232 341.934 477.872 341.838 477.52C341.758 477.152 341.67 476.856 341.574 476.632H343.71C344.35 476.632 344.814 476.536 345.102 476.344C345.406 476.152 345.646 475.784 345.822 475.24C345.95 474.84 346.054 474.312 346.134 473.656C346.23 472.984 346.302 472.296 346.35 471.592C346.398 470.872 346.422 470.256 346.422 469.744H342.438C342.23 472.064 341.446 474.112 340.086 475.888C338.742 477.648 336.774 478.936 334.182 479.752Z" fill="white"/>
<rect y="358" width="620" height="79" rx="10" fill="white"/>
<path d="M118.525 410.2C118.142 409.25 117.658 408.242 117.075 407.175C116.508 406.092 115.892 405.017 115.225 403.95C114.558 402.883 113.883 401.883 113.2 400.95C112.517 400 111.875 399.183 111.275 398.5C111.458 398.417 111.683 398.3 111.95 398.15C112.233 397.983 112.5 397.825 112.75 397.675C113.017 397.508 113.208 397.392 113.325 397.325C113.958 397.992 114.625 398.792 115.325 399.725C116.042 400.658 116.75 401.658 117.45 402.725C118.15 403.792 118.8 404.875 119.4 405.975C120.017 407.058 120.542 408.092 120.975 409.075C120.792 409.142 120.533 409.25 120.2 409.4C119.883 409.55 119.567 409.7 119.25 409.85C118.933 410 118.692 410.117 118.525 410.2ZM100.5 410.275C100.35 410.142 100.142 409.983 99.875 409.8C99.6083 409.6 99.3417 409.408 99.075 409.225C98.8083 409.042 98.5833 408.9 98.4 408.8C99.0833 408.167 99.7667 407.417 100.45 406.55C101.15 405.667 101.808 404.725 102.425 403.725C103.058 402.708 103.633 401.675 104.15 400.625C104.667 399.575 105.083 398.567 105.4 397.6C105.583 397.7 105.825 397.817 106.125 397.95C106.425 398.083 106.725 398.208 107.025 398.325C107.325 398.442 107.558 398.542 107.725 398.625C107.208 400.008 106.558 401.408 105.775 402.825C105.008 404.242 104.167 405.592 103.25 406.875C102.35 408.158 101.433 409.292 100.5 410.275ZM120.225 396.275C120.142 396.175 119.967 395.983 119.7 395.7C119.45 395.4 119.158 395.083 118.825 394.75C118.508 394.4 118.217 394.083 117.95 393.8C117.7 393.517 117.533 393.333 117.45 393.25L118.5 392.325C118.583 392.425 118.758 392.625 119.025 392.925C119.292 393.208 119.575 393.525 119.875 393.875C120.192 394.208 120.483 394.517 120.75 394.8C121.017 395.083 121.192 395.267 121.275 395.35L120.225 396.275ZM118.125 398.1C118.042 398 117.867 397.808 117.6 397.525C117.35 397.242 117.067 396.925 116.75 396.575C116.433 396.225 116.142 395.908 115.875 395.625C115.608 395.342 115.433 395.158 115.35 395.075L116.4 394.15C116.483 394.25 116.658 394.45 116.925 394.75C117.192 395.033 117.475 395.35 117.775 395.7C118.092 396.033 118.383 396.342 118.65 396.625C118.917 396.908 119.092 397.092 119.175 397.175L118.125 398.1ZM128.85 413.2C128.667 412.967 128.392 412.658 128.025 412.275C127.675 411.875 127.358 411.575 127.075 411.375C128.542 410.608 129.967 409.708 131.35 408.675C132.733 407.625 134.025 406.492 135.225 405.275C136.442 404.058 137.508 402.8 138.425 401.5C139.358 400.183 140.1 398.875 140.65 397.575C140.183 397.592 139.55 397.608 138.75 397.625C137.95 397.642 137.075 397.667 136.125 397.7C135.175 397.717 134.225 397.742 133.275 397.775C132.325 397.792 131.45 397.817 130.65 397.85C129.867 397.867 129.242 397.892 128.775 397.925C128.775 397.758 128.767 397.517 128.75 397.2C128.733 396.883 128.717 396.567 128.7 396.25C128.683 395.917 128.675 395.658 128.675 395.475C129.158 395.492 129.792 395.5 130.575 395.5C131.358 395.5 132.225 395.5 133.175 395.5C134.125 395.5 135.092 395.5 136.075 395.5C137.058 395.483 138 395.467 138.9 395.45C139.8 395.417 140.592 395.383 141.275 395.35C141.975 395.317 142.5 395.283 142.85 395.25C142.95 395.35 143.125 395.517 143.375 395.75C143.642 395.983 143.817 396.142 143.9 396.225C143.733 396.442 143.583 396.708 143.45 397.025C143.317 397.342 143.183 397.65 143.05 397.95C142.583 399.017 142.033 400.067 141.4 401.1C140.767 402.133 140.075 403.142 139.325 404.125C139.892 404.508 140.542 404.992 141.275 405.575C142.025 406.158 142.783 406.775 143.55 407.425C144.333 408.058 145.058 408.683 145.725 409.3C146.408 409.9 146.95 410.417 147.35 410.85C147.217 410.95 147.008 411.125 146.725 411.375C146.458 411.608 146.2 411.842 145.95 412.075C145.7 412.308 145.525 412.483 145.425 412.6C145.058 412.167 144.558 411.65 143.925 411.05C143.292 410.433 142.6 409.8 141.85 409.15C141.117 408.5 140.392 407.883 139.675 407.3C138.975 406.717 138.367 406.242 137.85 405.875C135.25 408.775 132.25 411.217 128.85 413.2ZM156.35 414.775V401.775C156.05 402.275 155.742 402.75 155.425 403.2C155.125 403.65 154.817 404.075 154.5 404.475C154.25 404.258 153.942 404.042 153.575 403.825C153.225 403.608 152.908 403.425 152.625 403.275C153.225 402.592 153.808 401.775 154.375 400.825C154.942 399.858 155.458 398.85 155.925 397.8C156.408 396.75 156.817 395.733 157.15 394.75C157.5 393.75 157.75 392.867 157.9 392.1L160.15 392.55C159.933 393.35 159.692 394.158 159.425 394.975C159.158 395.775 158.867 396.567 158.55 397.35V414.775H156.35ZM162.125 402.4V397.625H173.3V402.4H162.125ZM164.375 414.95C164.358 414.65 164.292 414.275 164.175 413.825C164.075 413.375 163.975 413.017 163.875 412.75H165.85C166.2 412.75 166.45 412.692 166.6 412.575C166.75 412.458 166.825 412.242 166.825 411.925V408.6H162.475V406.7H173.05V408.6H169.125V412.65C169.125 413.45 168.9 414.033 168.45 414.4C168.017 414.767 167.342 414.95 166.425 414.95H164.375ZM159.725 408.025V403.5H175.85V408H173.7V405.2H161.825V408.025H159.725ZM160.025 396.475V394.625H166.475V392.075H168.9V394.625H175.575V396.475H160.025ZM164.35 400.9H171.075V399.125H164.35V400.9ZM201.03 403.06V383.425H212.79V389.025H206.875V403.06H201.03ZM202.92 401.275H204.95V387.205H210.865V385.245H202.92V401.275ZM233.475 415.59V399.28H220.28V394.975H233.475V383.81H237.99V394.975H251.29V399.28H237.99V415.59H233.475ZM258.85 411.53V407.19H289.615V411.53H258.85ZM262.21 392.77V388.465H286.255V392.77H262.21ZM309.32 415.905C309.087 415.742 308.76 415.508 308.34 415.205C307.92 414.925 307.477 414.633 307.01 414.33C306.567 414.05 306.193 413.852 305.89 413.735C307.827 412.288 309.402 410.503 310.615 408.38C311.852 406.257 312.622 404.063 312.925 401.8C312.575 401.8 312.225 401.8 311.875 401.8C311.548 401.8 311.222 401.8 310.895 401.8C310.312 401.8 309.763 401.8 309.25 401.8C308.76 401.8 308.317 401.8 307.92 401.8C307.337 402.64 306.73 403.433 306.1 404.18C305.493 404.927 304.887 405.592 304.28 406.175C304.07 406.012 303.767 405.802 303.37 405.545C302.997 405.288 302.612 405.043 302.215 404.81C301.818 404.553 301.468 404.378 301.165 404.285C301.958 403.585 302.728 402.768 303.475 401.835C304.245 400.878 304.968 399.863 305.645 398.79C306.322 397.717 306.928 396.655 307.465 395.605C308.002 394.555 308.433 393.587 308.76 392.7C309.04 392.793 309.402 392.922 309.845 393.085C310.312 393.248 310.767 393.4 311.21 393.54C311.677 393.68 312.038 393.785 312.295 393.855C311.992 394.578 311.63 395.348 311.21 396.165C310.813 396.958 310.382 397.763 309.915 398.58C310.498 398.58 311.257 398.58 312.19 398.58C313.123 398.58 314.127 398.568 315.2 398.545C316.273 398.522 317.347 398.498 318.42 398.475C319.517 398.452 320.532 398.428 321.465 398.405C322.422 398.358 323.203 398.323 323.81 398.3C323.81 398.533 323.798 398.907 323.775 399.42C323.775 399.91 323.763 400.4 323.74 400.89C323.74 401.38 323.74 401.742 323.74 401.975C323.087 401.928 322.118 401.905 320.835 401.905C319.552 401.882 318.152 401.858 316.635 401.835C316.402 403.562 315.958 405.3 315.305 407.05C314.675 408.777 313.858 410.41 312.855 411.95C311.852 413.467 310.673 414.785 309.32 415.905ZM339.245 415.135V405.755H343.41V411.565H349.115V404.18H335.045V400.575H340.645V385.42C342.232 385.397 343.888 385.338 345.615 385.245C347.365 385.152 349.103 385.023 350.83 384.86C352.58 384.673 354.248 384.452 355.835 384.195C357.445 383.915 358.903 383.588 360.21 383.215L362.52 386.61C360.793 387.077 358.938 387.473 356.955 387.8C354.972 388.127 352.953 388.395 350.9 388.605C348.847 388.792 346.852 388.92 344.915 388.99V391.545H364.515V395.115H358.11V400.575H367.42V404.18H353.315V411.565H358.985V405.755H363.185V415.135H339.245ZM344.915 400.575H353.875V395.115H344.915V400.575ZM374.77 414.75V411.25H383.59C383.403 410.667 383.17 410.06 382.89 409.43C382.633 408.8 382.4 408.287 382.19 407.89H379.46V398.405H399.9V407.89H397.38C397.217 408.403 397.007 408.963 396.75 409.57C396.493 410.153 396.237 410.713 395.98 411.25H404.765V414.75H374.77ZM374.84 400.82C374.583 400.353 374.245 399.828 373.825 399.245C373.405 398.638 372.997 398.172 372.6 397.845C373.72 397.332 374.805 396.748 375.855 396.095C376.928 395.418 377.932 394.695 378.865 393.925C378.328 393.365 377.71 392.77 377.01 392.14C376.31 391.51 375.692 391.02 375.155 390.67L377.57 388.29C378.13 388.663 378.783 389.153 379.53 389.76C380.277 390.343 380.942 390.903 381.525 391.44C382.062 390.857 382.552 390.273 382.995 389.69C383.438 389.107 383.812 388.535 384.115 387.975H376.275V384.65H387.86L389.365 385.875C388.852 387.088 388.222 388.278 387.475 389.445C386.752 390.588 385.947 391.697 385.06 392.77H394.37C392.27 390.367 390.637 387.73 389.47 384.86L392.76 383.565C393.343 384.918 394.078 386.237 394.965 387.52C395.408 387.17 395.875 386.785 396.365 386.365C396.878 385.922 397.357 385.49 397.8 385.07C398.267 384.627 398.628 384.253 398.885 383.95L401.44 386.295C401.09 386.668 400.658 387.1 400.145 387.59C399.632 388.08 399.107 388.558 398.57 389.025C398.033 389.468 397.543 389.853 397.1 390.18C397.59 390.693 398.092 391.195 398.605 391.685C399.072 391.358 399.573 390.962 400.11 390.495C400.67 390.005 401.195 389.527 401.685 389.06C402.198 388.57 402.595 388.162 402.875 387.835L405.465 390.145C405.138 390.495 404.73 390.903 404.24 391.37C403.773 391.837 403.283 392.292 402.77 392.735C402.257 393.178 401.778 393.575 401.335 393.925C403.062 395.208 404.905 396.2 406.865 396.9C406.398 397.297 405.92 397.845 405.43 398.545C404.963 399.245 404.625 399.828 404.415 400.295C401.312 398.848 398.558 396.958 396.155 394.625V396.375H383.59V394.38C381.047 397.017 378.13 399.163 374.84 400.82ZM383.555 404.565H395.805V401.66H383.555V404.565ZM387.965 411.25H391.57C391.827 410.783 392.083 410.247 392.34 409.64C392.597 409.033 392.83 408.45 393.04 407.89H386.635C387.218 409.08 387.662 410.2 387.965 411.25ZM414.46 414.26V391.3H418.765V410.165H426.045V385.175H430.35V410.165H437.7V391.3H442.005V414.26H414.46ZM453.765 411.81V387.59H479.735V411.81H453.765ZM458.28 407.785H475.22V391.615H458.28V407.785ZM489.71 415.975V410.375H495.625V396.34H501.47V415.975H489.71ZM491.635 414.155H499.58V398.125H497.55V412.195H491.635V414.155Z" fill="#816259"/>
</svg>
