<svg width="852" height="200" viewBox="0 0 852 200" fill="none" xmlns="http://www.w3.org/2000/svg">
<path d="M91.927 58.7962L89.4766 52.5141L86.6138 46.591L84.6792 40.309L82.203 34.2321L79.8555 28.1039L77.2761 22.0526L74.8517 15.95L72.3239 9.89876L70.0796 3.56543L64.3791 5.71928L58.8076 8.02697L61.4902 14.1039L63.6829 20.309L66.1073 26.3859L68.3772 32.5654L70.9566 38.591L73.4328 44.668L75.7027 50.8475L78.3339 56.8475L80.5261 63.1808L86.0463 60.6167L91.927 58.7962Z" fill="#816259"/>
<path d="M64.7962 119.771L59.431 123.618L54.3238 127.797L49.1651 131.874L44.0837 136.054L38.538 139.669L33.405 143.771L28.1172 147.695L22.9067 151.72L17.5674 155.874L21.3333 160.643L25.0476 165.259L30.3871 161.413L35.5717 157.336L40.6015 153.079L45.8376 149.105L50.9964 145.028L56.2068 141.002L61.443 137.002L66.6791 133.002L72.3022 129.233L68.5621 124.413L64.7962 119.771Z" fill="#816259"/>
<path d="M131.317 128.489L136.605 132.489L141.944 136.335L147.206 140.309L152.726 143.899L157.988 147.848L163.199 151.899L168.719 155.489L173.877 159.591L179.32 163.514L182.879 158.617L186.413 153.796L180.893 150.078L175.812 145.899L170.189 142.412L165.159 138.155L159.845 134.284L154.455 130.489L149.038 126.745L143.724 122.848L138.385 118.95L134.954 123.771L131.317 128.489Z" fill="#816259"/>
<path d="M44.4704 19.9971L38.8989 21.9201L33.5337 24.0996L35.623 29.7149L37.7382 35.4841L39.7501 41.279L41.8652 47.0482L44.2382 52.7149L46.3275 58.7149L40.008 57.9457L33.8175 57.92L27.6785 57.4841L21.5137 57.0995L15.349 56.8175L9.05524 56.2277L9.02944 62.2793L8.33301 68.279H14.6009L20.7141 68.6895L26.8015 69.51L32.9663 69.3559L39.0536 70.0739L45.1926 70.4072L51.3058 70.6636L57.4447 71.1764L63.5837 71.4585L61.2106 65.8175L59.5082 59.9457L57.0062 54.3559L55.3296 48.4841L52.7502 42.92L50.8415 37.1251L48.8811 31.3303L46.6113 25.6636L44.4704 19.9971Z" fill="#C99E2D"/>
<path d="M109.904 196.436L115.888 197.18L121.615 198.359L122.801 192.436L123.885 186.41L124.762 180.333L126.232 174.359L127.367 168.308L128.218 162.231L133.377 165.59L138.432 169.103L143.54 172.539L148.673 175.974L154.012 179.077L158.99 182.641L162.318 177.821L165.645 172.898L160.435 169.616L155.353 166.231L150.452 162.513L145.216 159.359L140.161 155.898L134.95 152.667L129.843 149.308L124.839 145.769L119.783 142.487L118.442 148.333L117.333 154.333L116.404 160.359L115.269 166.359L114.263 172.359L113.258 178.385L112.071 184.359L110.833 190.333L109.904 196.436Z" fill="#C99E2D"/>
<path d="M193.633 66.5899L193.143 60.7181L192.679 54.9233L186.591 55.1028L180.427 55.5387L174.288 56.1028L168.149 56.7181L161.984 57.3592L155.613 57.8207L157.831 51.8463L159.662 46.0002L161.984 40.3079L163.893 34.4617L165.956 28.6669L167.891 22.949L162.448 20.872L156.799 18.9746L154.658 24.7182L152.982 30.5643L150.635 36.231L148.494 41.9489L146.843 47.8207L144.779 53.5643L142.69 59.2822L140.394 64.9489L138.408 70.9746L144.754 70.5899L150.867 70.0258L156.954 69.4874L163.093 69.154L169.18 68.3335L175.294 67.8207L181.432 67.6156L187.52 66.872L193.633 66.5899Z" fill="#C99E2D"/>
<path d="M118.108 32.6667L124.634 32.2821L130.773 29.9487L136.189 26.282L140.935 21.7436L143.979 15.9487L145.991 9.53846L140.033 8.61538L134.126 7.46154L131.907 13.6154L127.522 18.2564L121.641 20.7949L115.219 21.1026L109.312 18.5641L104.489 14.3077L101.986 8.41026L102.012 2L96.1829 0.923077L90.3018 0L89.7344 6.25641L90.7919 12.4872L93.3971 18.2308L97.0599 23.3077L101.548 27.7436L107.042 30.9231L113.207 32.3846L118.108 32.6667Z" fill="#528CA2"/>
<path d="M78.1286 162.92L71.938 161.433L65.5669 161.535L59.4538 163.074L53.7017 165.612L48.5429 169.279L44.8802 174.407L41.8623 179.92L47.5112 181.817L53.0311 183.997L56.2811 178.458L61.3883 174.612L67.682 173.176L73.95 174.304L79.5988 177.356L83.1842 182.638L84.4739 188.817L83.8033 194.971L89.3232 197.048L94.8946 199.099L96.4939 191.945L96.2359 184.638L93.7597 177.74L89.968 171.51L84.4223 166.74L78.1286 162.92Z" fill="#528CA2"/>
<path d="M179.554 87.1256L174.498 92.382L171.042 98.8179L169.185 105.895L169.339 112.177L170.655 118.356L173.827 123.792L177.697 128.715L182.804 132.408L188.427 135.177L194.566 136.536L195.365 130.69L195.727 124.792L189.665 122.92L184.764 118.895L181.566 113.408L181.101 107.049L182.933 100.997L187.137 96.2794L192.605 93.2025L198.977 92.5102L199.647 86.6128L200.292 80.6641L192.734 81.0487L185.667 83.1L179.554 87.1256Z" fill="#528CA2"/>
<path d="M31.1849 106.38L29.2245 99.3032L25.6908 92.9186L20.5836 87.7135L14.5736 83.4571L7.40286 81.6878L0 81.3545L0.696436 87.2519L1.44446 93.0468L7.55762 93.9186L13.1549 96.7904L17.4883 101.457L19.0617 107.637L18.7006 113.944L15.6827 119.585L10.7045 123.585L4.84926 125.483L5.41673 131.278L5.80364 137.175L11.9684 135.739L17.772 133.252L22.5439 129.149L26.4904 124.303L29.3535 118.765L31.0301 112.688L31.1849 106.38Z" fill="#528CA2"/>
<path d="M617.199 173.744C617.199 177.846 616.193 181.821 613.51 184.487C610.802 187.18 606.829 188.821 602.702 188.821C598.575 188.821 594.99 186.769 592.282 184.077C589.573 181.385 587.639 177.821 587.639 173.718C587.639 169.616 589.109 165.59 591.817 162.898C594.526 160.205 598.575 159.18 602.702 159.18C606.829 159.18 610.337 160.769 613.046 163.436C615.754 166.103 617.224 169.616 617.224 173.718L617.199 173.744Z" fill="#528CA2"/>
<path d="M719.601 173.741C719.601 177.843 717.95 181.946 715.242 184.638C712.533 187.331 708.406 189.125 704.279 189.125C700.152 189.125 696.025 187.305 693.343 184.613C690.634 181.92 689.912 177.818 689.912 173.741C689.912 169.664 691.15 166.074 693.859 163.382C696.567 160.69 700.152 158.484 704.279 158.484C708.406 158.484 712.069 160.613 714.777 163.305C717.486 165.997 719.601 169.638 719.601 173.741Z" fill="#C99E2D"/>
<path d="M647.686 99.2806L647.634 87.6139L647.712 75.7421L646.886 63.8447L647.376 51.9729L647.092 40.1011L647.686 28.2037L647.737 10.178L631.074 10.4088L614.644 10.4344L598.213 9.94727L581.911 10.5114L581.344 28.2037V43.0498L581.679 57.896L581.705 72.7421L582.221 87.1011L599.657 87.5627L600.07 72.7678L600.225 57.9216L599.838 43.0755L599.683 28.2037L614.644 27.9216L629.578 28.2037L629.888 40.5627L611.419 39.7421L611.523 52.178L629.862 51.537L629.759 64.1268L611.342 63.4088L612.039 75.1524L629.269 76.178L629.14 87.6139L629.811 99.8191L613.664 99.0755L597.723 99.5883L581.782 99.4857L581.911 117.178L597.697 117.229L613.638 117.614L629.553 117.127L645.493 116.768H661.434L677.375 117.922L693.315 117.383L709.256 116.742L725.248 117.358L724.784 99.8447L709.669 98.9216L694.115 99.7678L678.587 98.7934L663.059 99.4857L647.686 99.2806Z" fill="#528CA2"/>
<path d="M725.713 128.769L710.262 128.666L695.327 129.743L680.393 129.615L665.432 128.948L653.49 129.692L641.547 128.922L626.612 128.666L611.678 129.512L596.717 128.897L581.86 129.281L581.834 146.974L596.691 147.64L611.626 146.692L626.586 146.999L641.418 147.128L640.825 160.871L640.876 174.743L641.108 188.974L653.49 188.743L664.916 188.153L666.025 174.743L664.968 160.871L665.019 146.563L680.367 147.256L695.302 146.563L710.236 147.692L724.758 146.666L725.713 128.769Z" fill="#816259"/>
<path d="M707.269 10.6163L692.334 10.2061L677.4 10.6676L659.395 10.3343L659.266 28.2318L659.086 43.6933L669.919 53.5138L679.592 63.6676L670.513 72.642L661.614 81.7189L674.227 93.9753L683.539 85.5907L692.334 75.9241L701.569 85.1548L710.519 94.5394L722.874 81.6933L713.898 72.8984L704.638 63.6676L715.162 53.9497L725.351 43.6933V28.2318L724.938 10.6676H707.269V10.6163ZM707.45 36.3343L692.309 50.8728L677.142 36.36L677.425 28.3087L692.309 28.4112L707.063 28.5394L707.45 36.3087V36.3343Z" fill="#C99E2D"/>
<path d="M383.274 129.098L371.538 129.15L371.383 111.38L371.434 93.5342L383.377 93.5598L383.351 111.38L383.274 129.098Z" fill="#816259"/>
<path d="M405.739 129.151L393.874 129.177L393.926 111.382L393.797 93.51L405.894 93.4844L405.817 111.382L405.739 129.151Z" fill="#528CA2"/>
<path d="M322.141 45.7435L307.799 45.564L293.484 46.5896L279.142 45.5127L264.801 46.2563L250.563 46.1794L250.872 57.923L250.795 69.3588L264.775 69.2306L279.116 69.4101L293.458 69.564L307.799 70.1281L322.192 69.7435L321.909 84.0512L322.553 98.2819L322.012 112.538L322.218 126.82L322.141 141.077L307.799 141.026L293.484 141.154L279.142 140.59L264.801 141.641L250.382 141L250.356 152.949L250.64 164.59L264.775 164.795L279.116 164.692L293.458 164.359L307.799 164.641L322.141 164.82L334.109 164.487L346.439 165.205L346.516 152.949L345.587 141.077L345.716 126.82L346.335 112.59L346 98.3332L345.562 84.0512L346.31 69.7947L345.897 57.923L345.923 46.1794L334.109 45.5383L322.141 45.7435Z" fill="#C99E2D"/>
<path d="M779.158 129.363L767.034 129.03L755.272 129.055L754.834 115.337L754.886 101.491L755.453 87.645L755.221 73.7732L754.989 59.9014L755.118 46.0809L767.034 45.7988L779.003 46.004L778.848 59.9014L779.08 73.7475L778.951 87.5937L779.287 101.465L779.209 115.337L779.158 129.363Z" fill="#816259"/>
<path d="M525.32 45.4873L511.005 45.8719L496.663 46.5642L482.322 46.4104L467.98 46.436L453.561 45.9488L453.51 57.9232L453.69 69.6924L467.954 70.3335L482.296 69.4617L496.637 69.5642L510.979 69.3078L524.959 70.1796L525.346 84.0514L525.63 98.2822L525.14 112.539L525.836 126.821L525.32 141.077L511.005 140.641L496.663 140.539L482.322 141.41L467.98 141.18L453.742 141.231L453.407 152.949L453.252 165.257L467.954 164.59L482.296 164.974L496.637 164.692H510.979L525.32 164.744L537.289 165.154L549.18 164.795L549.489 152.949L549.567 141.077L549.386 126.821L549.102 112.59L548.793 98.3335L548.741 84.0514L549.025 69.795L549.695 57.9232L549.051 46.2309L537.263 46.3847L525.32 45.4873Z" fill="#816259"/>
<path d="M417.94 93.719L417.45 106.591L417.966 119.642L417.553 132.591L408.448 142.052L398.878 151.181L389.67 160.642L398.079 168.899L409.067 157.924L420.133 146.924L429.599 137.54L429.986 129.206V111.386L429.676 93.5908L417.94 93.719Z" fill="#C99E2D"/>
<path d="M827.054 46.2572L826.435 61.052L826.513 76.052L826.177 91.0777L827.364 106.103L826.281 121.129L826.642 136.103L816.788 146.488L806.342 156.437L815.112 164.565L823.263 173.129L833.322 162.924L843.511 152.796L850.191 145.847L850.527 129.206L850.682 115.334L850.346 101.488L851.197 87.6418L850.604 73.77L850.088 59.8982L850.321 46.3341L838.739 45.9238L827.054 46.2572Z" fill="#528CA2"/>
</svg>
