<svg width="621" height="152" viewBox="0 0 621 152" fill="none" xmlns="http://www.w3.org/2000/svg">
<path d="M0.45089 80.4233C0.608895 80.4233 0.782701 80.439 0.940706 80.4547C0.924906 80.7221 0.909105 80.9894 0.893305 81.2568C1.05131 81.2568 1.22512 81.2725 1.38312 81.2883C2.36275 82.9081 2.61556 83.7888 4.63802 84.6853C4.51162 85.7704 4.59062 86.4782 4.006 87.0601C3.67419 87.1701 3.34238 87.296 2.99477 87.406C2.74196 88.9945 2.47336 90.5829 2.22055 92.1713C2.99477 92.7532 3.40559 93.6182 4.06921 94.2787C4.38522 94.436 4.71703 94.5775 5.03304 94.7348C5.31745 95.5526 5.58606 96.3704 5.87046 97.1882C6.36028 97.3455 6.8343 97.5185 7.32411 97.6757C7.46632 97.9588 7.62432 98.2262 7.76652 98.5093C8.25634 98.5407 8.74616 98.5722 9.25177 98.5879C9.39398 98.9968 9.53618 99.4057 9.67839 99.8146C9.9944 99.9719 10.3262 100.113 10.6422 100.271C10.7686 100.947 10.895 101.623 11.0214 102.299C11.1794 102.299 11.3532 102.315 11.5112 102.331C11.4954 102.724 11.4638 103.133 11.4322 103.526C11.5902 103.526 11.7641 103.542 11.9221 103.558C11.9063 103.825 11.8905 104.092 11.8747 104.36C12.0327 104.36 12.2065 104.375 12.3645 104.391C12.3329 104.784 12.3171 105.193 12.2855 105.586C13.2177 106.577 14.1499 107.568 15.0664 108.559C15.888 108.732 16.6938 108.921 17.4996 109.094C17.9579 109.785 18.4003 110.477 18.8585 111.185C19.3483 111.342 19.8223 111.515 20.3121 111.673C20.3121 111.94 20.2805 112.207 20.2647 112.475C20.5807 112.632 20.9125 112.774 21.2286 112.931C21.2128 113.198 21.197 113.466 21.1812 113.733C21.4972 113.89 21.829 114.032 22.145 114.189C22.145 114.315 22.1292 114.456 22.1134 114.582C22.7612 114.755 23.409 114.928 24.0568 115.101C24.3571 115.526 24.6731 115.935 24.9733 116.359C25.3051 116.375 25.6369 116.391 25.9529 116.422C25.9529 116.548 25.9529 116.69 25.9213 116.815C26.5849 116.847 27.2327 116.894 27.8964 116.926C28.3546 117.618 28.797 118.309 29.2552 119.017C31.0407 119.395 32.8419 119.756 34.6274 120.134C34.6274 120.134 35.291 119.442 36.1284 119.819C36.1284 119.945 36.1284 120.087 36.1126 120.212C36.4444 120.228 36.7763 120.244 37.0923 120.275C37.6927 121.376 38.2773 122.477 38.8777 123.594C39.3675 123.751 39.8416 123.924 40.3314 124.081C40.3314 124.207 40.3314 124.349 40.2998 124.474C40.7896 124.506 41.2794 124.537 41.785 124.553C41.785 124.679 41.785 124.82 41.7692 124.946C42.7488 125.009 43.7443 125.056 44.7239 125.119C44.7239 125.245 44.7081 125.387 44.7081 125.512C45.0399 125.528 45.3717 125.544 45.6877 125.575C45.6877 125.701 45.6719 125.843 45.6561 125.968C46.146 126 46.6358 126.031 47.1256 126.047C47.4258 126.472 47.7418 126.881 48.042 127.305C48.3738 127.321 48.7056 127.337 49.0216 127.368C49.0216 127.494 49.0058 127.636 48.99 127.761C50.7913 127.997 52.5926 128.233 54.3938 128.469C54.536 128.752 54.694 129.02 54.8362 129.303C55.168 129.318 55.4999 129.334 55.8159 129.366C55.9581 129.649 56.1161 129.916 56.2583 130.199C56.5901 130.215 56.9219 130.231 57.2379 130.262C57.2379 130.388 57.2379 130.529 57.2221 130.655C58.5336 130.734 59.845 130.812 61.1564 130.891C61.1564 131.017 61.1564 131.158 61.1248 131.284C61.4566 131.3 61.7885 131.316 62.1045 131.347C62.1045 131.473 62.0887 131.614 62.0729 131.74C62.5627 131.772 63.0525 131.803 63.5581 131.819C63.5581 131.945 63.5581 132.086 63.5265 132.212C64.1901 132.244 64.838 132.291 65.5016 132.322C65.6438 132.605 65.8018 132.873 65.944 133.156C66.2758 133.171 66.6076 133.187 66.9236 133.219C66.9236 133.344 66.9236 133.486 66.892 133.612C67.2238 133.628 67.5556 133.643 67.8717 133.675C67.8717 133.801 67.8559 133.942 67.84 134.068C69.6413 134.178 71.4584 134.272 73.2596 134.382C73.2596 134.508 73.2438 134.65 73.228 134.776C73.5598 134.791 73.8916 134.807 74.2077 134.839C74.2077 134.964 74.2077 135.106 74.1919 135.232C75.9931 135.342 77.8102 135.436 79.6114 135.546C79.6114 135.42 79.6272 135.279 79.643 135.153C80.1487 135.043 80.6385 134.949 81.1441 134.839C81.1441 134.964 81.1283 135.106 81.1283 135.232C81.6181 135.389 82.0921 135.562 82.5819 135.719C82.5819 135.845 82.5661 135.987 82.5503 136.112C84.3358 136.616 86.1212 137.119 87.8909 137.622C87.8909 137.748 87.8751 137.89 87.8593 138.015C88.1911 138.031 88.5229 138.047 88.8389 138.078C88.8389 138.204 88.8231 138.346 88.8231 138.471C90.7982 138.581 92.7575 138.707 94.7325 138.817C94.7325 138.943 94.7325 139.085 94.7167 139.211C95.2065 139.242 95.6963 139.273 96.1862 139.289C96.1862 139.415 96.1704 139.557 96.1704 139.682C97.8768 140.233 101.938 139.478 102.601 139.651C102.601 139.777 102.601 139.918 102.57 140.044C102.901 140.06 103.233 140.076 103.549 140.107C103.549 140.233 103.533 140.374 103.518 140.5C105.319 140.61 107.136 140.705 108.937 140.815C108.937 140.689 108.937 140.547 108.953 140.422C109.285 140.437 109.617 140.453 109.933 140.484C109.933 140.359 109.933 140.217 109.964 140.091C110.454 140.249 110.928 140.422 111.418 140.579C111.418 140.705 111.402 140.846 111.402 140.972C111.734 140.988 112.066 141.003 112.382 141.035C112.382 141.161 112.382 141.302 112.366 141.428C113.188 141.475 114.009 141.522 114.831 141.57C114.831 141.695 114.815 141.837 114.815 141.963C114.973 141.963 115.147 141.979 115.305 141.994C115.305 141.868 115.305 141.727 115.321 141.601C116.142 141.648 116.964 141.695 117.785 141.743C118.718 141.507 119.919 140.673 120.835 140.311C123.331 143.866 128.988 142.812 134.502 143.111C137.125 143.268 139.764 143.41 142.387 143.567C143.224 143.41 146.827 142.859 148.328 143.504C148.47 143.787 148.628 144.054 148.77 144.338C149.655 144.809 154.316 145.942 156.117 145.564C156.117 145.438 156.133 145.297 156.149 145.171C156.639 145.203 157.129 145.234 157.619 145.25C157.619 145.124 157.634 144.982 157.65 144.857C157.982 144.872 158.314 144.888 158.63 144.919C159.041 144.746 159.42 143.614 160.178 143.803C160.178 143.929 160.178 144.07 160.162 144.196C160.494 144.212 160.826 144.227 161.142 144.259C161.142 144.385 161.126 144.526 161.11 144.652C162.564 145.14 164.018 145.627 165.471 146.115C166.562 146.398 166.925 145.816 166.972 145.8C167.636 145.832 168.284 145.879 168.948 145.91C169.848 145.706 171.586 144.589 172.961 144.935C172.961 145.061 172.961 145.203 172.929 145.328C174.557 145.564 176.2 145.784 177.827 146.02C177.827 146.146 177.827 146.288 177.812 146.414C178.143 146.429 178.475 146.445 178.791 146.476C178.791 146.602 178.775 146.744 178.775 146.87C181.73 147.043 184.685 147.216 187.64 147.389C187.64 147.263 187.639 147.121 187.671 146.995C188.493 146.917 189.33 146.822 190.152 146.744C190.152 146.618 190.168 146.476 190.183 146.351C191.037 145.863 191.89 145.376 192.743 144.888C192.743 144.762 192.759 144.621 192.759 144.495C193.896 144.825 195.034 145.155 196.156 145.501C196.156 145.627 196.156 145.769 196.124 145.895C197.973 146.791 201.971 148.222 205.415 147.64C205.415 147.514 205.431 147.373 205.447 147.247C208.07 147.404 210.708 147.546 213.331 147.703C213.331 147.577 213.347 147.436 213.347 147.31C213.679 147.326 214.011 147.341 214.327 147.373C214.674 146.995 215.038 146.618 215.385 146.225C216.523 146.429 217.676 146.618 218.814 146.822C218.814 146.948 218.814 147.09 218.798 147.216C219.952 147.279 221.105 147.341 222.243 147.42C224.565 147.294 226.872 147.153 229.195 147.027C229.195 146.901 229.195 146.76 229.211 146.634C229.542 146.649 229.874 146.665 230.19 146.697C230.19 146.571 230.206 146.429 230.206 146.303C231.249 146.115 235.12 147.562 237.079 147.106C237.079 146.98 237.079 146.838 237.095 146.712C237.601 146.602 238.09 146.508 238.596 146.398C238.596 146.272 238.612 146.13 238.628 146.005C238.723 146.005 241.977 147.514 244 147.121C244 146.995 244 146.854 244.016 146.728C244.506 146.76 244.995 146.791 245.501 146.807C245.501 146.681 245.501 146.539 245.517 146.414C248.203 145.895 249.356 147.373 251.916 146.791C251.916 146.665 251.932 146.524 251.948 146.398C252.279 146.414 252.611 146.429 252.927 146.461C252.927 146.335 252.943 146.193 252.959 146.068C253.622 146.099 254.27 146.146 254.934 146.178C254.934 146.303 254.934 146.445 254.918 146.571C257.383 146.571 259.864 146.587 262.328 146.602C262.328 146.476 262.344 146.335 262.344 146.209C262.676 146.225 263.008 146.241 263.324 146.272C263.324 146.146 263.34 146.005 263.355 145.879C263.687 145.895 264.003 145.91 264.335 145.942C264.683 145.564 265.046 145.187 265.394 144.794C266.042 144.967 266.689 145.14 267.337 145.313C271.272 145.549 275.222 145.769 279.156 146.005C279.156 145.879 279.156 145.737 279.172 145.611C279.504 145.627 279.835 145.643 280.151 145.674C280.151 145.549 280.151 145.407 280.183 145.281C282.316 145.407 284.449 145.533 286.582 145.659C286.582 145.533 286.598 145.391 286.614 145.265C286.946 145.281 287.277 145.297 287.594 145.328C287.767 145.077 287.957 144.809 288.131 144.558C289.442 144.636 290.754 144.715 292.065 144.794C292.065 144.668 292.065 144.526 292.081 144.4C292.744 144.432 293.392 144.479 294.056 144.511C294.056 144.385 294.056 144.243 294.072 144.117C297.516 144.448 300.961 144.778 304.389 145.124C304.389 144.998 304.389 144.857 304.405 144.731C305.227 144.778 306.048 144.825 306.87 144.872C306.87 144.746 306.886 144.605 306.902 144.479C307.234 144.495 307.565 144.511 307.881 144.542C307.881 144.416 307.897 144.275 307.913 144.149C309.872 144.4 311.831 144.636 313.807 144.888C313.807 144.762 313.822 144.621 313.838 144.495C314.502 144.4 315.165 144.306 315.829 144.212C316.35 143.708 316.872 143.205 317.409 142.702C318.562 142.765 319.716 142.828 320.854 142.906C320.854 142.781 320.869 142.639 320.885 142.513C321.328 142.513 323.919 143.803 324.266 143.913C325.91 144.007 327.553 144.102 329.196 144.196C329.196 144.322 329.196 144.463 329.18 144.589C331.977 144.621 334.774 144.652 337.586 144.668C337.586 144.542 337.602 144.4 337.602 144.275C338.092 144.306 338.582 144.338 339.087 144.353C339.087 144.227 339.087 144.086 339.103 143.96C341.568 144.102 344.033 144.243 346.498 144.385C346.498 144.259 346.498 144.117 346.514 143.992C347.351 143.929 347.351 144.416 347.477 144.448C349.452 144.558 351.412 144.684 353.387 144.794C354.082 144.746 355.062 144.212 356.373 144.558C357.021 144.746 359.359 145.549 360.781 145.218C360.781 145.092 360.797 144.951 360.813 144.825C361.145 144.841 361.477 144.857 361.793 144.888C361.793 144.762 361.793 144.621 361.824 144.495C362.82 144.416 363.815 144.338 364.811 144.259C364.811 144.133 364.826 143.992 364.842 143.866C365.174 143.881 365.506 143.897 365.822 143.929C365.822 143.803 365.822 143.661 365.838 143.535C367.323 143.488 368.808 143.441 370.293 143.394C370.293 143.268 370.309 143.127 370.325 143.001C371.147 142.922 371.984 142.828 372.806 142.749C372.806 142.623 372.821 142.482 372.837 142.356C373.88 142.23 379.315 144.825 380.579 145.218C383.692 145.391 386.821 145.58 389.933 145.753C389.933 145.627 389.949 145.486 389.965 145.36C390.96 145.281 391.956 145.203 392.951 145.124C392.951 145.25 392.951 145.391 392.935 145.517C393.267 145.533 393.599 145.549 393.915 145.58C393.915 145.706 393.899 145.847 393.899 145.973C395.953 146.807 400.583 147.64 402.274 146.461C405.197 146.036 405.908 143.111 407.045 141.114C408.041 141.035 409.036 140.956 410.032 140.878C410.205 140.626 410.395 140.359 410.569 140.107C411.059 140.138 411.548 140.17 412.054 140.186C412.228 139.934 412.418 139.667 412.591 139.415C412.923 139.431 413.255 139.446 413.571 139.478C413.571 139.352 413.587 139.211 413.603 139.085C414.408 139.273 415.23 139.446 416.036 139.619C416.21 139.368 416.399 139.1 416.573 138.849L417.047 139.273C418.596 139.226 419.765 138.629 422.024 138.755C422.024 138.629 422.024 138.487 422.04 138.361C421.06 138.173 420.081 137.984 419.101 137.795C419.101 137.669 419.101 137.528 419.133 137.402C418.801 137.386 418.485 137.371 418.153 137.339C418.153 137.213 418.153 137.072 418.169 136.946C417.837 136.93 417.505 136.914 417.189 136.883C417.189 136.757 417.205 136.616 417.221 136.49C416.889 136.474 416.557 136.458 416.241 136.427C416.241 136.301 416.241 136.16 416.273 136.034C415.783 136.002 415.293 135.971 414.788 135.955C414.788 135.829 414.788 135.688 414.803 135.562C414.266 135.184 414.724 135.609 414.329 135.137C414.993 135.043 415.657 134.949 416.32 134.854C416.699 134.681 416.352 134.32 417.331 134.508C417.331 134.634 417.316 134.776 417.3 134.901C417.948 135.074 418.595 135.247 419.243 135.42C419.243 135.546 419.243 135.688 419.212 135.814C421.487 136.348 423.762 136.883 426.038 137.418C426.038 137.292 426.053 137.15 426.069 137.025C426.227 137.025 426.401 137.04 426.559 137.056C426.559 137.182 426.559 137.323 426.543 137.449C426.875 137.465 427.207 137.481 427.523 137.512C427.523 137.638 427.507 137.779 427.491 137.905C428.313 137.952 429.134 138 429.956 138.047C429.956 138.173 429.956 138.314 429.924 138.44C430.414 138.471 430.904 138.503 431.41 138.519C431.41 138.644 431.394 138.786 431.394 138.912C432.721 139.336 434.317 138.723 434.87 138.707C434.87 138.833 434.854 138.975 434.838 139.1C435.17 139.116 435.486 139.132 435.818 139.163C435.818 139.289 435.818 139.431 435.786 139.557C436.608 139.604 437.43 139.651 438.251 139.698C438.251 139.824 438.236 139.965 438.22 140.091C441.996 140.437 445.757 140.799 449.533 141.145C449.675 141.428 449.833 141.695 449.975 141.979C450.307 141.994 450.639 142.01 450.955 142.041C450.955 142.167 450.939 142.309 450.923 142.435C452.898 142.545 454.858 142.655 456.833 142.781C456.833 142.906 456.833 143.048 456.801 143.174C457.133 143.189 457.465 143.205 457.781 143.237C457.781 143.363 457.781 143.504 457.765 143.63C459.25 143.708 460.72 143.803 462.205 143.881C462.205 143.756 462.205 143.614 462.236 143.488C463.074 143.41 463.896 143.315 464.717 143.237C464.891 142.985 465.081 142.718 465.254 142.466C467.087 141.931 471.306 143.252 472.112 143.661C472.112 143.787 472.112 143.929 472.08 144.054C472.412 144.07 472.744 144.086 473.06 144.117C473.202 144.4 473.36 144.668 473.502 144.951C473.834 144.967 474.15 144.982 474.482 145.014C474.482 145.14 474.466 145.281 474.45 145.407C474.782 145.423 475.114 145.438 475.43 145.47C475.43 145.596 475.414 145.737 475.398 145.863C475.888 145.895 476.378 145.926 476.884 145.942C476.884 146.068 476.884 146.209 476.868 146.335C478.669 146.445 480.486 146.539 482.287 146.649C482.287 146.524 482.303 146.382 482.319 146.256C483.156 146.178 483.978 146.083 484.8 146.005C484.942 146.288 485.1 146.555 485.242 146.838C486.048 147.011 486.869 147.2 487.675 147.389C487.675 147.514 487.675 147.656 487.659 147.782C489.145 147.735 490.63 147.687 492.115 147.64C492.115 147.514 492.115 147.373 492.131 147.247C492.463 147.263 492.795 147.279 493.111 147.31C493.111 147.184 493.111 147.043 493.142 146.917C495.433 147.184 497.724 147.452 500.016 147.719C500.016 147.845 500.016 147.986 500 148.112C500.332 148.128 500.663 148.143 500.979 148.175C500.979 148.301 500.964 148.442 500.948 148.568C501.438 148.6 501.927 148.631 502.433 148.647C502.433 148.773 502.417 148.914 502.401 149.04C505.008 149.873 506.731 147.97 508.848 148.615C508.848 148.741 508.832 148.883 508.816 149.008C509.464 149.181 510.112 149.354 510.76 149.527C510.76 149.653 510.76 149.795 510.728 149.921C511.882 149.984 513.019 150.046 514.173 150.125C514.173 150.251 514.173 150.392 514.157 150.518C518.107 150.613 522.057 150.707 526.007 150.801C526.007 150.676 526.007 150.534 526.023 150.408C526.513 150.44 527.003 150.471 527.508 150.487C528.377 149.732 529.246 148.977 530.115 148.238C530.305 147.892 531.395 149.826 531.49 149.921C532.391 150.707 535.804 152.39 538.3 151.918C538.3 151.792 538.316 151.651 538.332 151.525C538.822 151.556 539.311 151.588 539.817 151.603C539.817 151.478 539.817 151.336 539.833 151.21C540.812 151.273 541.808 151.32 542.787 151.383C542.787 151.509 542.772 151.651 542.756 151.776C544.225 152.201 546.469 151.761 547.212 151.635C549.013 151.745 550.83 151.839 552.631 151.949C552.631 151.824 552.647 151.682 552.663 151.556C553.5 151.478 554.322 151.383 555.143 151.305C555.317 151.053 555.507 150.786 555.681 150.534C557.624 149.968 561.179 151.132 563.091 150.565C563.091 150.44 563.107 150.298 563.123 150.172C563.455 150.188 563.786 150.204 564.102 150.235C564.45 149.858 564.813 149.48 565.161 149.087C567.104 148.584 568.432 150.738 571.023 150.235C571.023 150.109 571.023 149.968 571.055 149.842C571.892 149.763 572.714 149.669 573.535 149.59C573.883 149.213 574.246 148.835 574.594 148.442C575.763 148.238 576.917 148.049 578.086 147.845C578.26 147.593 578.449 147.326 578.623 147.074C580.772 147.074 582.905 147.058 585.054 147.043C585.054 146.917 585.054 146.775 585.07 146.649C585.559 146.681 586.049 146.712 586.555 146.728C586.555 146.602 586.571 146.461 586.571 146.335C586.902 146.351 587.234 146.366 587.55 146.398C587.898 146.02 588.261 145.643 588.609 145.25C588.767 145.25 588.941 145.265 589.099 145.281C589.288 144.888 589.478 144.495 589.668 144.117C590.821 144.18 591.974 144.243 593.112 144.322C595.861 143.661 597.599 141.522 598.374 139.006C600.602 139.179 602.719 139.352 603.841 138.519C606.306 138.125 608.597 134.886 608.186 131.945C608.028 131.945 607.854 131.929 607.696 131.913C607.696 131.787 607.696 131.646 607.712 131.52C607.87 131.52 608.044 131.536 608.202 131.552C608.217 131.284 608.233 131.017 608.249 130.749C608.581 130.639 608.913 130.514 609.26 130.404C609.45 129.885 609.655 129.35 609.845 128.831C610.003 128.831 610.177 128.847 610.335 128.862C610.335 128.736 610.35 128.595 610.366 128.469C610.872 128.359 611.362 128.265 611.867 128.155C611.867 128.029 611.867 127.887 611.899 127.761C612.231 127.777 612.562 127.793 612.879 127.824C613.052 127.573 613.242 127.305 613.416 127.054C613.748 127.069 614.079 127.085 614.395 127.117C614.569 126.865 614.759 126.598 614.933 126.346C615.612 125.984 616.291 125.623 616.971 125.261C616.987 124.993 617.003 124.726 617.018 124.459C617.176 124.459 617.35 124.474 617.508 124.49C617.524 124.223 617.54 123.955 617.555 123.688C617.714 123.688 617.887 123.704 618.045 123.72C618.298 122.257 618.551 120.81 618.804 119.347C618.962 119.347 619.136 119.363 619.294 119.379C619.183 118.577 619.057 117.759 618.946 116.957C619.104 116.957 619.278 116.973 619.436 116.988C619.452 116.595 619.483 116.186 619.515 115.793C619.673 115.793 619.847 115.809 620.005 115.825C620.052 115.164 620.084 114.488 620.131 113.827C619.973 113.827 619.799 113.812 619.641 113.796C619.831 113.277 620.036 112.742 620.226 112.223C620.068 112.223 619.894 112.207 619.736 112.192C619.736 112.066 619.736 111.924 619.752 111.799C619.91 111.799 620.084 111.814 620.242 111.83C620.494 110.367 620.747 108.921 621 107.458C620.842 107.458 620.668 107.442 620.51 107.426C620.526 107.159 620.542 106.892 620.558 106.624C620.4 106.624 620.226 106.609 620.068 106.593C620.147 105.398 620.21 104.187 620.289 102.991C620.131 102.991 619.957 102.976 619.799 102.96C619.815 102.693 619.831 102.425 619.847 102.158C619.057 101.576 618.266 100.994 617.476 100.412C617.476 100.412 618.377 97.4241 618.188 96.8422C618.029 96.8422 617.856 96.8265 617.698 96.8108C617.729 96.4176 617.745 96.0087 617.777 95.6155C617.619 95.6155 617.445 95.5998 617.287 95.5841C617.145 95.1751 617.003 94.7663 616.86 94.3574C616.37 94.2001 615.896 94.0271 615.407 93.8698C615.185 93.3508 615.28 92.879 615.012 92.2342C614.854 92.2342 614.68 92.2185 614.522 92.2028C614.538 91.8096 614.569 91.4007 614.601 91.0075C614.443 91.0075 614.269 90.9918 614.111 90.9761C614.127 90.7087 614.143 90.4413 614.158 90.174C614 90.174 613.827 90.1583 613.669 90.1425C613.574 89.0731 613.463 87.9879 613.368 86.9185C613.21 86.9185 613.036 86.9028 612.879 86.8871C612.894 86.6197 612.91 86.3523 612.926 86.085C612.452 85.7862 611.978 85.4874 611.488 85.2043C611.488 85.0785 611.504 84.9369 611.52 84.8111C611.03 84.6538 610.556 84.4808 610.066 84.3236C610.113 83.663 610.145 82.9868 610.192 82.3262C610.034 82.3262 609.861 82.3105 609.703 82.2948C609.718 82.0274 609.734 81.7601 609.75 81.4927C609.592 81.4927 609.418 81.477 609.26 81.4613C609.276 81.1939 609.292 80.9266 609.308 80.6592C608.834 80.3604 608.36 80.0616 607.87 79.7785C607.87 79.5111 607.901 79.2438 607.917 78.9764C607.143 78.1271 606.369 77.2779 605.594 76.4286C605.263 76.4129 604.931 76.3972 604.615 76.3657C604.473 76.0826 604.315 75.8153 604.172 75.5322C604.014 75.5322 603.841 75.5165 603.683 75.5007C603.714 75.1076 603.73 74.6987 603.762 74.3055C603.446 74.1482 603.114 74.0067 602.798 73.8494C602.671 73.299 602.529 72.7643 602.403 72.2296C600.981 71.3488 599.543 70.4524 598.105 69.5717C597.268 69.2257 596.13 69.6975 595.672 69.037C595.071 68.172 595.877 66.9768 595.34 66.2061C595.182 66.2061 595.008 66.1904 594.85 66.1747C594.234 65.467 593.618 64.7593 593.002 64.0673C592.67 64.0515 592.338 64.0358 592.022 64.0044C591.248 63.1551 590.473 62.3058 589.699 61.4566C589.209 61.4251 588.72 61.3937 588.214 61.378C588.214 61.2521 588.214 61.1106 588.246 60.9848C587.914 60.9691 587.582 60.9533 587.266 60.9219C587.124 60.6388 586.966 60.3714 586.823 60.0884C586.492 60.0726 586.16 60.0569 585.844 60.0254C585.844 59.8996 585.86 59.7581 585.875 59.6323C584.738 59.302 583.616 58.9717 582.478 58.6257C581.72 57.6507 580.946 56.6599 580.187 55.6848C579.176 55.0557 576.806 54.4581 574.815 54.5682C574.31 54.6783 573.82 54.7726 573.314 54.8827C573.282 54.8827 571.655 51.9261 571.039 51.5486C570.707 51.5329 570.375 51.5172 570.059 51.4857C570.059 51.3599 570.075 51.2184 570.091 51.0925C569.443 50.9195 568.795 50.7466 568.147 50.5736C568.147 50.4477 568.163 50.3062 568.179 50.1804C567.199 49.9917 566.22 49.8029 565.24 49.6142C565.24 49.4884 565.24 49.3469 565.256 49.221C564.924 49.2053 564.592 49.1896 564.276 49.1581C564.276 49.0323 564.292 48.8908 564.292 48.765C563.802 48.7335 563.312 48.702 562.807 48.6863C562.807 48.5605 562.823 48.419 562.838 48.2931C560.373 48.1516 557.909 48.0101 555.444 47.8685C555.143 47.4439 554.827 47.035 554.527 46.6104C553.879 46.4374 553.232 46.2644 552.584 46.0914C552.584 45.9656 552.584 45.824 552.6 45.6982C549.74 44.676 546.69 46.8148 545.632 46.5003C545.489 46.2172 545.331 45.9498 545.189 45.6667C544.857 45.651 544.526 45.6353 544.21 45.6038C544.21 45.478 544.225 45.3365 544.241 45.2107C543.909 45.1949 543.578 45.1792 543.261 45.1478C543.261 45.0219 543.261 44.8804 543.277 44.7546C540.828 44.4715 538.363 44.2041 535.914 43.9211C535.914 44.0469 535.898 44.1884 535.883 44.3142C535.393 44.2828 534.903 44.2513 534.413 44.2356C534.413 44.3614 534.413 44.503 534.382 44.6288C532.58 44.3929 530.779 44.157 528.994 43.9211C528.994 44.0469 528.978 44.1884 528.962 44.3142C528.472 44.2828 527.982 44.2513 527.477 44.2356C527.303 44.4872 527.113 44.7546 526.94 45.0062C526.608 44.9905 526.276 44.9748 525.96 44.9433C525.786 45.1949 525.597 45.4623 525.423 45.7139C524.933 45.6825 524.443 45.651 523.953 45.6353C523.953 45.7611 523.953 45.9027 523.922 46.0285C521.741 46.3587 520.414 44.2828 517.57 44.8647C517.57 44.9905 517.57 45.132 517.538 45.2579C517.048 45.2264 516.559 45.1949 516.069 45.1792C515.895 45.4308 515.705 45.6982 515.532 45.9498C514.552 45.7611 513.572 45.5724 512.593 45.3837C512.593 45.5095 512.577 45.651 512.561 45.7768C511.897 45.7454 511.25 45.6982 510.586 45.6667C510.586 45.7926 510.57 45.9341 510.57 46.0599C509.417 45.997 508.279 45.9341 507.126 45.8555C507.126 45.9813 507.11 46.1228 507.094 46.2486C505.593 46.5632 504.092 46.8777 502.591 47.1923C502.417 47.4439 502.228 47.7113 502.054 47.9629C500.411 47.8685 498.767 47.7742 497.124 47.6798C497.124 47.8056 497.108 47.9472 497.092 48.073C496.097 48.1516 495.102 48.2302 494.106 48.3089C493.664 46.3273 491.878 44.9433 489.398 44.4243C489.334 43.292 489.287 42.9617 488.529 42.3641C488.276 41.3418 488.307 41.6878 487.612 41.1059C487.612 40.9801 487.628 40.8386 487.628 40.7128C487.296 40.697 486.964 40.6813 486.648 40.6499C486.648 40.524 486.648 40.3825 486.68 40.2567C486.19 40.0994 485.716 39.9264 485.226 39.7691C484.784 37.2371 482.603 35.6644 479.57 35.0353C479.601 34.5006 479.633 33.9659 479.664 33.4312C479.506 33.4312 479.333 33.4155 479.175 33.3997C478.669 31.2766 474.529 29.0906 471.037 28.9176C471.069 26.3069 469.442 24.168 467.435 23.0986C466.945 23.0671 466.455 23.0357 465.95 23.02C465.491 22.4538 465.033 21.9033 464.559 21.3372C463.911 21.1642 463.264 20.9912 462.616 20.8182C462.616 20.6924 462.632 20.5508 462.647 20.425C461.826 20.3778 461.004 20.3307 460.182 20.2835C460.04 20.0004 459.882 19.733 459.74 19.4499C459.408 19.4342 459.076 19.4185 458.76 19.387C457.986 18.5378 457.212 17.6885 456.438 16.8393C455.79 16.6663 455.142 16.4933 454.494 16.3203C454.494 16.1945 454.51 16.0529 454.51 15.9271C453.357 15.8642 452.203 15.8013 451.066 15.7227C450.513 15.4238 450.56 14.1185 450.197 13.6624C450.023 13.4265 447.637 12.0111 447.337 11.8853C444.224 10.6586 441.569 12.1684 438.425 12.1684C437.983 9.93515 435.66 7.87492 433.29 7.05712C432.31 6.99421 431.315 6.94703 430.335 6.88412C430.335 6.75831 430.335 6.61676 430.367 6.49095C429.229 6.2865 428.076 6.09777 426.938 5.89332C426.938 6.01914 426.938 6.16068 426.922 6.2865C425.453 6.53813 424.584 6.1135 423.446 6.49095C423.446 6.61676 423.43 6.75831 423.415 6.88412C423.083 6.86839 422.751 6.85267 422.435 6.82121C422.435 6.94703 422.419 7.08857 422.403 7.21439C421.329 7.40311 418.343 5.94051 417.553 5.73605C416.399 5.79896 415.23 5.86187 414.077 5.94051C413.65 6.06632 413.95 6.99421 412.544 6.64822C412.544 6.5224 412.544 6.38086 412.56 6.25504C412.228 6.23932 411.896 6.22359 411.58 6.19214C411.438 5.90905 411.28 5.64169 411.138 5.35861C410.158 5.16989 409.178 4.98116 408.199 4.79244C408.199 4.66662 408.215 4.52508 408.23 4.39927C406.413 4.55653 404.58 4.72953 402.763 4.8868C402.763 5.01262 402.748 5.15416 402.732 5.27997C401.721 5.39006 400.599 4.54081 398.797 5.04407C398.797 5.16989 398.782 5.31143 398.782 5.43724C398.118 5.5316 397.454 5.62597 396.791 5.72033C396.791 5.84614 396.775 5.98769 396.775 6.1135C395.511 6.34941 393.899 5.20134 391.845 5.83042C391.845 5.95623 391.829 6.09777 391.814 6.22359C391.482 6.20786 391.166 6.19214 390.834 6.16068C390.139 6.78976 389.444 7.41884 388.748 8.04791C387.927 7.87492 387.121 7.6862 386.315 7.5132C386.315 7.38738 386.315 7.24584 386.331 7.12003C384.688 7.15148 383.029 7.19866 381.385 7.23011C381.212 7.48174 381.022 7.7491 380.848 8.00073C380.516 7.98501 380.184 7.96928 379.868 7.93783C379.173 8.5669 378.478 9.19598 377.783 9.82506C377.451 9.80933 377.119 9.7936 376.803 9.76215C376.803 9.88797 376.787 10.0295 376.772 10.1553C375.286 10.0767 373.817 9.98233 372.332 9.90369C372.332 10.0295 372.316 10.1711 372.3 10.2969C371.81 10.2654 371.32 10.234 370.815 10.2182C370.815 10.344 370.815 10.4856 370.799 10.6114C370.309 10.58 369.819 10.5485 369.314 10.5328C369.314 10.6586 369.298 10.8001 369.282 10.9259C368.95 10.9102 368.618 10.8945 368.302 10.863C368.302 10.9889 368.287 11.1304 368.271 11.2562C367.939 11.2405 367.607 11.2248 367.291 11.1933C366.77 11.6966 366.248 12.1998 365.711 12.7031C363.689 13.3636 361.856 11.8067 359.802 12.3571C359.802 12.4829 359.786 12.6245 359.77 12.7503C359.438 12.7345 359.107 12.7188 358.791 12.6874C358.617 12.939 358.427 13.2064 358.253 13.458C357.764 13.4265 357.274 13.3951 356.768 13.3793C356.594 13.631 356.405 13.8983 356.231 14.15C355.899 14.1342 355.567 14.1185 355.251 14.0871C355.251 14.2129 355.251 14.3544 355.22 14.4802C354.556 14.4488 353.908 14.4016 353.245 14.3701C353.245 14.496 353.245 14.6375 353.213 14.7633C352.549 14.8577 351.886 14.952 351.222 15.0464C351.222 15.1722 351.222 15.3138 351.191 15.4396C350.859 15.4238 350.527 15.4081 350.211 15.3767C350.037 15.6283 349.848 15.8957 349.674 16.1473C349.184 16.1158 348.694 16.0844 348.188 16.0687C348.188 16.1945 348.173 16.336 348.157 16.4618C347.825 16.4461 347.493 16.4304 347.177 16.3989C347.177 16.5247 347.161 16.6663 347.146 16.7921C346.814 16.7764 346.482 16.7606 346.166 16.7292C346.166 16.855 346.166 16.9965 346.15 17.1224C345.818 17.1066 345.487 17.0909 345.171 17.0595C345.171 17.1853 345.171 17.3268 345.155 17.4526C344.649 17.5627 344.159 17.6571 343.654 17.7672C342.816 19.6859 342.548 18.5692 340.604 19.1983C340.604 19.3241 340.588 19.4657 340.573 19.5915C340.241 19.5758 339.909 19.56 339.593 19.5286C339.072 20.0318 338.55 20.5351 338.013 21.0384C337.191 21.117 336.354 21.2114 335.532 21.29C334.489 22.1707 333.447 23.0357 332.404 23.9164C332.183 24.8443 331.961 25.7564 331.74 26.6843C331.582 26.6843 331.408 26.6686 331.25 26.6529C330.365 28.1312 330.207 26.2754 327.774 26.8573C327.774 26.9831 327.758 27.1247 327.758 27.2505C327.095 27.3449 326.431 27.4392 325.768 27.5336C325.594 27.7852 325.404 28.0526 325.23 28.3042C324.898 28.2885 324.567 28.2728 324.251 28.2413C324.077 28.4929 323.887 28.7603 323.713 29.0119C323.05 28.9805 322.402 28.9333 321.738 28.9018C321.738 29.0276 321.723 29.1692 321.723 29.295C320.806 29.3736 318.689 28.0369 317.851 27.8639C316.35 28.0369 314.865 28.2256 313.364 28.4143C313.396 27.0932 313.364 26.6057 312.527 25.9609C312.037 24.1208 310.725 24.0894 308.735 23.3345C308.735 23.2087 308.735 23.0671 308.766 22.9413C307.787 22.8784 306.791 22.8312 305.811 22.7683C305.811 22.8941 305.796 23.0357 305.78 23.1615C305.622 23.1615 305.448 23.1458 305.29 23.13C305.29 22.8627 305.322 22.5953 305.337 22.328C305.179 22.328 305.006 22.3122 304.848 22.2965C304.389 21.7304 303.931 21.1799 303.473 20.6137C303.141 20.598 302.809 20.5823 302.493 20.5508C302.351 20.2677 302.193 20.0004 302.051 19.7173C301.719 19.7016 301.387 19.6858 301.071 19.6544C300.929 19.3713 300.771 19.104 300.629 18.8209C299.965 18.7894 299.317 18.7422 298.654 18.7108C298.354 18.1603 298.053 17.6099 297.769 17.0595C297.437 17.0437 297.105 17.028 296.789 16.9965C296.647 16.7135 296.489 16.4461 296.347 16.163C295.857 16.1316 295.367 16.1001 294.862 16.0844C294.862 15.9586 294.862 15.817 294.878 15.6912C294.388 15.6598 293.898 15.6283 293.408 15.6126C293.266 15.3295 293.108 15.0621 292.966 14.779C292.634 14.7633 292.302 14.7476 291.986 14.7161C291.986 14.5903 292.002 14.4488 292.018 14.323C291.686 14.3072 291.354 14.2915 291.038 14.2601C291.038 14.1342 291.054 13.9927 291.054 13.8669C289.079 13.8826 287.104 13.8983 285.113 13.9298C285.129 13.6624 285.144 13.3951 285.16 13.1277C283.88 12.766 282.648 12.0268 281.811 11.3348C281.668 11.0518 281.51 10.7844 281.368 10.5013C280.215 9.7936 279.061 9.91942 277.481 9.47907C277.292 9.43189 277.386 8.94435 276.517 9.02299C276.517 9.1488 276.502 9.29034 276.486 9.41616C274.842 9.58916 273.041 8.89717 272.03 9.5577C269.012 9.02298 270.387 8.53545 269.217 6.99421C268.111 6.25504 267.005 5.5316 265.884 4.79244C263.909 4.80817 261.933 4.82389 259.943 4.85535C259.642 4.43072 259.326 4.02182 259.026 3.59719C258.22 3.40847 257.399 3.23547 256.593 3.04675C256.593 2.92093 256.593 2.77939 256.625 2.65358C254.965 2.82657 253.306 2.99957 251.647 3.17256C251.189 3.32983 251.41 3.88028 250.62 3.91173C250.478 3.62865 250.32 3.36129 250.178 3.0782C249.53 2.90521 248.882 2.73221 248.234 2.55921C248.234 2.4334 248.25 2.29186 248.266 2.16604C245.296 2.13459 242.341 2.08741 239.37 2.05595C239.228 1.77287 239.07 1.50551 238.928 1.22242C238.438 1.19097 237.948 1.15952 237.443 1.14379C237.443 1.01797 237.458 0.876431 237.474 0.750615C235.831 0.656254 234.188 0.561892 232.545 0.467531C232.418 0.436077 232.434 -0.0829122 231.581 0.0114494C231.581 0.137265 231.581 0.278807 231.549 0.404623C231.059 0.373169 230.569 0.341715 230.08 0.325988C230.08 0.451804 230.064 0.593346 230.048 0.719162C229.716 0.703435 229.384 0.687708 229.068 0.656254C229.068 0.782069 229.053 0.923612 229.037 1.04943C228.373 1.01797 227.725 0.970793 227.062 0.939339C227.062 1.06515 227.062 1.2067 227.03 1.33251C226.367 1.42687 225.703 1.52124 225.039 1.6156C225.039 1.74141 225.039 1.88296 225.023 2.00877C223.601 2.18177 222.085 0.26308 220.173 0.530438C220.173 0.656254 220.173 0.797796 220.141 0.923612C219.478 0.892158 218.83 0.844977 218.166 0.813523C218.166 0.939339 218.166 1.08088 218.15 1.2067C217.818 1.19097 217.487 1.17524 217.171 1.14379C217.171 1.2696 217.171 1.41115 217.155 1.53696C215.512 1.56842 213.853 1.6156 212.209 1.64705C211.514 2.27613 210.819 2.90521 210.124 3.53428C208.496 3.29838 206.853 3.0782 205.225 2.8423C205.225 2.96811 205.21 3.10966 205.194 3.23547C204.704 3.20402 204.214 3.17256 203.709 3.15684C203.535 3.40847 203.345 3.67583 203.171 3.92746C202.84 3.91173 202.508 3.896 202.192 3.86455C202.018 4.11618 201.828 4.38354 201.655 4.63517C200.833 4.58799 200.011 4.54081 199.19 4.49363C199.19 4.61944 199.19 4.76098 199.158 4.8868C198.826 4.87107 198.494 4.85535 198.178 4.82389C198.178 4.94971 198.178 5.09125 198.163 5.21707C197.341 5.16989 196.519 5.1227 195.698 5.07552C195.698 5.20134 195.682 5.34288 195.682 5.4687C195.018 5.56306 194.355 5.65742 193.691 5.75178C193.343 6.12923 192.98 6.50667 192.632 6.89985C191.811 6.85267 190.989 6.80549 190.168 6.75831C190.168 6.88412 190.152 7.02566 190.152 7.15148C189.82 7.13575 189.488 7.12003 189.172 7.08857C187.829 7.57611 186.518 8.81853 186.028 10.1081C185.87 10.1081 185.696 10.0924 185.538 10.0767C185.522 10.4699 185.491 10.8788 185.459 11.2719C185.127 11.2562 184.795 11.2405 184.479 11.209C184.479 11.3348 184.464 11.4764 184.448 11.6022C182.647 11.4921 180.829 11.3978 179.028 11.2877C179.028 11.4135 179.012 11.555 178.997 11.6808C178.665 11.6651 178.333 11.6494 178.017 11.6179C178.017 11.7437 178.001 11.8853 178.001 12.0111C177.496 12.1212 177.006 12.2156 176.5 12.3256C175.916 13.7882 175.015 13.8512 174.809 15.8327C169.027 15.5654 168.679 18.0345 165.661 20.1105C165.487 20.3621 165.298 20.6295 165.124 20.8811C164.792 20.8654 164.46 20.8496 164.144 20.8182C163.97 21.0698 163.781 21.3372 163.607 21.5888C163.275 21.5731 162.943 21.5574 162.627 21.5259C162.28 21.9033 161.916 22.2808 161.569 22.674C160.905 22.7683 160.241 22.8627 159.578 22.9571C159.578 23.0829 159.578 23.2244 159.546 23.3502C159.214 23.4603 158.867 23.5861 158.535 23.6962C158.519 23.9636 158.503 24.2309 158.488 24.4983C157.808 24.86 157.129 25.2217 156.449 25.5834C156.07 26.3698 155.691 27.1404 155.327 27.9268C154.822 28.1627 154.316 28.3986 153.795 28.6345C153.779 28.9018 153.763 29.1692 153.747 29.4366C152.894 29.9241 152.041 30.4116 151.188 30.8992C150.998 31.4181 150.793 31.9529 150.603 32.4718C150.098 32.7078 149.592 32.9437 149.07 33.1796C148.265 34.0917 148.375 36.0261 148.312 37.5517C146.953 37.7561 147.159 38.0235 145.8 38.2122C145.61 38.6054 145.421 38.9985 145.231 39.376C145.073 39.376 144.899 39.3602 144.741 39.3445C144.741 39.6119 144.71 39.8792 144.694 40.1466C144.536 40.1466 144.362 40.1309 144.204 40.1151C144.172 40.7757 144.125 41.4519 144.078 42.1125C143.92 42.1125 143.746 42.0967 143.588 42.081C143.398 42.6 143.193 43.1347 143.003 43.6537C142.845 43.6537 142.671 43.638 142.513 43.6222L142.418 45.2264C142.26 45.2264 142.087 45.2107 141.929 45.1949C142.181 46.5475 142.418 47.9 142.671 49.2525C142.513 49.2525 142.339 49.2368 142.181 49.221C142.181 49.3469 142.166 49.4884 142.15 49.6142C140.902 48.9851 138.374 47.1294 135.845 47.6483C134.929 47.8371 132.038 49.4098 130.821 48.9694C130.679 48.6863 130.521 48.419 130.378 48.1359C130.047 48.1202 129.715 48.1044 129.399 48.073C129.399 47.9472 129.399 47.8056 129.415 47.6798C128.767 47.5068 128.119 47.3338 127.471 47.1608C127.471 47.035 127.471 46.8935 127.487 46.7676C124.532 46.4688 121.593 46.1543 118.639 45.8555C118.639 45.7297 118.639 45.5881 118.654 45.4623C118.165 45.4308 117.675 45.3994 117.169 45.3837C117.169 45.2578 117.169 45.1163 117.185 44.9905C115.4 44.44 113.756 45.3679 112.698 45.5409C110.738 45.2893 108.779 45.0534 106.804 44.8018C106.662 44.3929 106.52 43.984 106.378 43.5751C105.414 43.2448 104.434 42.9303 103.47 42.6C103.47 42.4742 103.486 42.3326 103.502 42.2068C102.68 42.1596 101.859 42.1125 101.037 42.0653C101.037 42.1911 101.021 42.3326 101.005 42.4585C100.026 42.5214 100.041 42.0024 100.041 42.0024C98.0506 42.1596 96.0756 42.3012 94.0847 42.4585C94.0847 42.3326 94.0847 42.1911 94.1163 42.0653C93.7845 42.0496 93.4527 42.0338 93.1367 42.0024C93.1367 41.8766 93.1525 41.735 93.1525 41.6092C91.683 41.5306 90.1978 41.4362 88.7125 41.3576C88.7125 41.4834 88.6967 41.6249 88.6967 41.7507C88.1911 41.8608 87.7013 41.9552 87.1957 42.0653C87.1957 41.9395 87.2115 41.7979 87.2273 41.6721C86.5795 41.4991 85.9316 41.3261 85.2838 41.1531C85.2838 41.0273 85.2838 40.8858 85.3154 40.7599C83.8144 40.241 80.7807 40.5398 79.88 40.8386C79.4218 40.9958 79.6588 41.5777 78.853 41.5777C78.7108 41.2947 78.5528 41.0273 78.4106 40.7442C77.9208 40.7128 77.431 40.6813 76.9253 40.6656C76.9253 40.5398 76.9253 40.3982 76.9411 40.2724C74.4763 40.1309 72.0114 39.9893 69.5465 39.8478C69.5465 39.9736 69.5307 40.1151 69.5307 40.241C69.0409 40.2095 68.5511 40.178 68.0455 40.1623C68.0455 40.2881 68.0297 40.4297 68.0139 40.5555C67.1922 40.5083 66.3706 40.4611 65.549 40.414C65.549 40.5398 65.549 40.6813 65.5174 40.8071C64.8538 40.9015 64.1901 40.9958 63.5265 41.0902C63.5265 41.216 63.5107 41.3576 63.5107 41.4834C60.793 42.0653 59.4816 39.6748 57.1747 39.9107C57.1747 40.0365 57.1589 40.178 57.1431 40.3039C56.6533 40.2724 56.1635 40.241 55.6579 40.2252C55.6579 40.351 55.6421 40.4926 55.6421 40.6184C55.3102 40.6027 54.9784 40.5869 54.6624 40.5555C54.6624 40.6813 54.6466 40.8229 54.6308 40.9487C53.9672 40.9172 53.3194 40.87 52.6558 40.8386C52.6558 40.9644 52.64 41.1059 52.64 41.2318C51.9763 41.2003 51.3285 41.1531 50.6649 41.1217C50.6649 41.2475 50.6491 41.389 50.6491 41.5148C49.6537 41.7193 48.6424 41.9395 47.647 42.1439C47.647 42.2697 47.6312 42.4113 47.6154 42.5371C47.2836 42.5214 46.9518 42.5056 46.6358 42.4742C46.462 42.7258 46.2724 42.9932 46.0986 43.2448C43.1281 43.2133 40.1734 43.1662 37.2029 43.1347C37.2029 43.2605 37.2029 43.4021 37.1713 43.5279C36.8395 43.5122 36.5076 43.4964 36.1916 43.465C35.844 43.8424 35.4806 44.2199 35.133 44.613C33.7742 45.0691 32.2889 44.3142 31.1671 44.786C30.9933 45.0377 30.8037 45.305 30.6299 45.5567C30.298 45.5409 29.9662 45.5252 29.6502 45.4938L28.6232 46.2329C28.6232 46.5003 28.5916 46.7676 28.5758 47.035C27.8964 47.3967 27.2169 47.7584 26.5375 48.1202C26.3637 48.3718 26.1741 48.6391 26.0003 48.8908C25.0207 48.8279 24.0252 48.7807 23.0456 48.7178C23.0456 48.8436 23.0298 48.9851 23.014 49.111C22.5242 49.0795 22.0344 49.048 21.5288 49.0323C21.5288 49.1581 21.5288 49.2997 21.513 49.4255C21.0074 49.5356 20.5175 49.6299 20.0119 49.74C20.0119 50.0074 19.9803 50.2747 19.9645 50.5421C19.4589 50.778 18.9533 51.0139 18.4319 51.2498C18.4161 51.5172 18.4003 51.7845 18.3845 52.0519C18.0527 52.162 17.7208 52.2878 17.3732 52.3979C17.3732 52.5237 17.3574 52.6652 17.3574 52.7911C17.0256 52.7753 16.6938 52.7596 16.3778 52.7281C16.3778 52.854 16.362 52.9955 16.362 53.1213C14.9874 53.7032 16.0618 52.8068 14.8294 53.829C14.6713 53.829 14.4975 53.8133 14.3395 53.7976C14.3395 54.0649 14.3079 54.3323 14.2921 54.5996C14.1341 54.5996 13.9603 54.5839 13.8023 54.5682C13.8023 54.8356 13.7707 55.1029 13.7549 55.3703C13.5969 55.3703 13.4231 55.3545 13.2651 55.3388C13.2335 55.8735 13.2019 56.4082 13.1703 56.943C12.8385 57.0531 12.4909 57.1789 12.1591 57.289C12.1591 57.4148 12.1433 57.5563 12.1275 57.6821C11.7957 57.6664 11.4638 57.6507 11.1478 57.6192C11.1478 57.745 11.132 57.8866 11.1162 58.0124C9.53618 58.6729 8.63555 58.6887 8.01933 60.2456C7.1029 60.9691 7.26091 63.564 7.24511 65.0109C5.44385 65.2311 5.03304 65.8916 3.70579 66.4106C3.51619 66.9296 3.31078 67.4643 3.12118 67.9833C2.96317 67.9833 2.78937 67.9675 2.63136 67.9518C2.69456 69.556 2.77356 71.1758 2.83677 72.78C2.33115 73.0159 1.82553 73.2518 1.30412 73.4877C1.11451 74.0067 0.909105 74.5414 0.719499 75.0604C0.561494 75.0604 0.387688 75.0447 0.229683 75.0289C-0.354935 76.1298 0.340287 78.1114 0.514092 78.6619C0.482491 79.1966 0.45089 79.7313 0.419289 80.266L0.45089 80.4233Z" fill="#FFFCF2"/>
</svg>
