<svg width="228" height="320" viewBox="0 0 228 320" fill="none" xmlns="http://www.w3.org/2000/svg">
<path d="M104.664 67.7094L101.865 60.5233L98.6152 53.7394L96.3952 46.5533L93.58 39.5924L90.9094 32.5669L87.9655 25.6704L85.2308 18.6772L82.3352 11.7323L79.7772 4.49805L73.2781 6.95768L66.9398 9.59417L69.9964 16.5552L72.5058 23.6447L75.2569 30.6218L77.8308 37.6791L80.7907 44.5759L83.5899 51.5368L86.18 58.5944L89.1883 65.4749L91.6817 72.7253L97.9718 69.7833L104.664 67.7094Z" fill="#816259"/>
<path d="M73.7681 137.49L67.6389 141.895L61.8315 146.67L55.9598 151.332L50.1685 156.122L43.8624 160.238L38.0067 164.932L31.9901 169.434L26.0539 174.047L19.973 178.774L24.2682 184.272L28.5152 189.529L34.5962 185.124L40.4679 180.462L46.2111 175.607L52.1633 171.041L58.0512 166.363L63.9873 161.781L69.9557 157.2L75.8917 152.602L82.2942 148.293L78.0472 142.779L73.7681 137.49Z" fill="#816259"/>
<path d="M149.512 147.479L155.513 152.044L161.593 156.449L167.578 160.966L173.868 165.082L179.869 169.616L185.772 174.245L192.063 178.377L197.95 183.055L204.16 187.54L208.198 181.946L212.204 176.416L205.93 172.171L200.138 167.381L193.752 163.394L188.025 158.523L181.96 154.086L175.831 149.745L169.653 145.469L163.621 140.984L157.556 136.547L153.63 142.061L149.512 147.479Z" fill="#816259"/>
<path d="M50.6271 23.3164L44.2889 25.4869L38.1757 27.9946L40.5727 34.4251L42.9537 41.0163L45.2381 47.6557L47.6672 54.2471L50.3697 60.7417L52.7507 67.5903L45.5436 66.7382L38.5136 66.6899L31.4996 66.1916L24.4858 65.7737L17.4717 65.436L10.313 64.7609L10.2808 71.6736L9.49255 78.5382L16.6191 78.5703L23.5849 79.0203L30.5182 79.9688L37.5323 79.792L44.4658 80.5959L51.4315 80.9657L58.4134 81.271L65.3791 81.8659L72.3931 82.1874L69.6742 75.7247L67.7439 69.005L64.8964 62.6066L62.9821 55.8867L60.0543 49.5366L57.8664 42.8972L55.6625 36.2739L53.0562 29.7952L50.6271 23.3164Z" fill="#C99E2D"/>
<path d="M125.123 225.237L131.928 226.073L138.444 227.424L139.811 220.639L141.034 213.727L142.047 206.782L143.704 199.949L144.991 193.037L145.972 186.076L151.844 189.918L157.603 193.953L163.427 197.876L169.25 201.798L175.315 205.367L180.994 209.45L184.79 203.92L188.587 198.278L182.651 194.532L176.843 190.641L171.293 186.413L165.309 182.78L159.566 178.825L153.646 175.128L147.806 171.286L142.111 167.234L136.368 163.473L134.84 170.176L133.585 177.025L132.507 183.922L131.237 190.786L130.062 197.667L128.952 204.547L127.601 211.396L126.169 218.228L125.123 225.237Z" fill="#C99E2D"/>
<path d="M220.44 76.613L219.893 69.8931L219.346 63.2536L212.413 63.4787L205.398 63.977L198.401 64.6202L191.419 65.3275L184.421 66.0671L177.134 66.5815L179.691 59.765L181.767 53.0454L184.389 46.5344L186.577 39.8628L188.925 33.2233L191.145 26.6804L184.936 24.301L178.517 22.1309L176.072 28.6898L174.141 35.4097L171.471 41.8562L169.058 48.4153L167.16 55.1352L164.827 61.7104L162.43 68.2694L159.824 74.748L157.572 81.6288L164.795 81.2107L171.744 80.5515L178.694 79.9407L185.66 79.5549L192.593 78.6226L199.543 78.0436L206.541 77.8026L213.474 76.9506L220.44 76.613Z" fill="#C99E2D"/>
<path d="M134.455 37.7883L141.887 37.3704L148.869 34.6856L155.046 30.4897L160.435 25.2969L163.91 18.6732L166.194 11.3101L159.422 10.2812L152.697 8.96294L150.172 15.9884L145.169 21.2937L138.476 24.2196L131.157 24.5573L124.449 21.6474L118.963 16.7923L116.099 10.024L116.147 2.70912L109.487 1.47122L102.811 0.410156L102.152 7.58035L103.358 14.7023L106.334 21.2616L110.501 27.0814L115.601 32.1455L121.858 35.7948L128.872 37.483L134.455 37.7883Z" fill="#528CA2"/>
<path d="M88.9506 186.86L81.8884 185.156L74.6653 185.285L67.6996 187.053L61.1521 189.947L55.2642 194.127L51.0977 200.011L47.6713 206.329L54.09 208.483L60.3961 210.991L64.0639 204.657L69.9035 200.236L77.0461 198.596L84.2049 199.898L90.6237 203.371L94.7097 209.448L96.1737 216.489L95.4176 223.546L101.692 225.942L108.03 228.257L109.864 220.09L109.558 211.714L106.759 203.837L102.415 196.699L96.1094 191.249L88.9506 186.86Z" fill="#528CA2"/>
<path d="M204.416 100.113L198.641 106.142L194.716 113.489L192.592 121.591L192.769 128.793L194.265 135.851L197.885 142.088L202.293 147.731L208.084 151.927L214.503 155.094L221.501 156.669L222.385 149.981L222.804 143.246L215.918 141.075L210.352 136.477L206.7 130.192L206.169 122.925L208.229 115.981L213.023 110.611L219.28 107.074L226.52 106.287L227.276 99.5507L228 92.7344L219.425 93.1844L211.382 95.4993L204.416 100.113Z" fill="#528CA2"/>
<path d="M35.5046 122.171L33.2846 114.069L29.2628 106.754L23.4232 100.806L16.6022 95.9188L8.42999 93.9092L0.000366211 93.5234L0.788633 100.259L1.64125 106.883L8.60694 107.895L14.9774 111.175L19.9001 116.544L21.7018 123.586L21.2997 130.82L17.8409 137.266L12.1944 141.864L5.51822 144.019L6.16171 150.642L6.62825 157.394L13.61 155.754L20.2218 152.925L25.6593 148.214L30.1637 142.684L33.4293 136.318L35.3275 129.389L35.5046 122.171Z" fill="#528CA2"/>
<path d="M139.217 313.525C139.217 315.085 138.847 316.596 137.817 317.624C136.788 318.654 135.276 319.28 133.715 319.28C132.155 319.28 130.787 318.492 129.758 317.48C128.728 316.466 128.004 315.085 128.004 313.525C128.004 311.966 128.567 310.421 129.581 309.393C130.594 308.364 132.155 307.979 133.715 307.979C135.276 307.979 136.611 308.589 137.64 309.603C138.67 310.615 139.233 311.95 139.233 313.525H139.217Z" fill="#528CA2"/>
<path d="M178.068 313.524C178.068 315.085 177.441 316.659 176.411 317.689C175.382 318.717 173.821 319.41 172.245 319.41C170.668 319.41 169.124 318.717 168.094 317.689C167.065 316.659 166.791 315.101 166.791 313.54C166.791 311.982 167.258 310.614 168.288 309.587C169.317 308.557 170.684 307.721 172.245 307.721C173.805 307.721 175.205 308.541 176.218 309.555C177.232 310.567 178.052 311.966 178.052 313.524H178.068Z" fill="#C99E2D"/>
<path d="M150.771 285.119V280.665L150.787 276.133L150.482 271.614L150.659 267.08L150.562 262.548L150.787 258.014L150.803 251.132L144.481 251.212L138.24 251.228L132.014 251.053L125.82 251.262L125.595 258.014L125.611 263.674L125.724 269.331L125.74 275.007L125.933 280.473L132.545 280.649L132.706 275.007L132.77 269.347L132.625 263.674L132.561 257.998L138.24 257.902L143.918 258.014L144.031 262.723L137.017 262.402L137.049 267.146L144.015 266.921L143.983 271.71L137.001 271.437L137.258 275.923L143.79 276.308L143.741 280.665L143.999 285.329L137.87 285.04L131.821 285.247L125.772 285.199L125.82 291.953L131.805 291.969L137.853 292.112L143.902 291.918L149.951 291.791H156L162.048 292.242L168.097 292.032L174.146 291.791L180.211 292.016L180.034 285.345L174.307 284.989L168.403 285.313L162.515 284.926L156.611 285.199L150.771 285.119Z" fill="#528CA2"/>
<path d="M180.377 296.372L174.521 296.34L168.859 296.741L163.18 296.693L157.501 296.436L152.965 296.725L148.428 296.436L142.765 296.34L137.103 296.661L131.424 296.42L125.794 296.563L125.778 303.317L131.424 303.574L137.087 303.203L142.765 303.317L148.396 303.381L148.171 308.621L148.187 313.91L148.267 319.328L152.965 319.248L157.308 319.023L157.726 313.91L157.324 308.621L157.34 303.155L163.164 303.428L168.843 303.155L174.505 303.59L180.023 303.187L180.377 296.372Z" fill="#816259"/>
<path d="M173.388 251.295L167.726 251.133L162.063 251.311L155.226 251.181L155.178 258.014L155.114 263.915L159.232 267.661L162.9 271.535L159.457 274.96L156.079 278.416L160.857 283.094L164.38 279.895L167.726 276.213L171.233 279.733L174.627 283.32L179.309 278.416L175.898 275.055L172.391 271.535L176.381 267.821L180.258 263.915V258.014L180.097 251.311H173.388V251.295ZM173.469 261.101L167.726 266.647L161.967 261.101L162.063 258.03L167.71 258.078L173.308 258.126L173.453 261.085L173.469 261.101Z" fill="#C99E2D"/>
<path d="M50.4555 296.498L45.9995 296.514L45.9349 289.731L45.9511 282.93L50.4877 282.946L50.4715 289.731L50.4555 296.498Z" fill="#816259"/>
<path d="M58.9592 296.515L54.471 296.531L54.487 289.731L54.4388 282.914H59.0235L58.9914 289.731L58.9592 296.515Z" fill="#528CA2"/>
<path d="M27.2519 264.705L21.7983 264.625L16.3609 265.026L10.9235 264.609L5.48605 264.899L0.0808014 264.867L0.209498 269.351L0.161237 273.707L5.46998 273.659L10.9074 273.723L16.3609 273.789L21.7983 274.013L27.268 273.853L27.1554 279.319L27.3966 284.753L27.1876 290.185L27.268 295.635L27.2357 301.07L21.7983 301.054L16.3609 301.101L10.9235 300.876L5.48605 301.279L0.000366211 301.038V305.604L0.112976 310.04L5.46998 310.12L10.9074 310.088L16.3609 309.944L21.7983 310.056L27.2519 310.12L31.7722 309.992L36.4536 310.281L36.4859 305.604L36.148 301.07L36.1964 295.635L36.4214 290.203L36.2928 284.769L36.1318 279.319L36.4214 273.869L36.2607 269.351V264.867L31.7884 264.625L27.2519 264.705Z" fill="#C99E2D"/>
<path d="M200.665 296.6L196.064 296.47H191.592L191.431 291.246L191.447 285.973L191.672 280.682L191.576 275.394L191.495 270.105L191.544 264.833L196.064 264.719L200.601 264.799L200.536 270.089L200.633 275.378L200.585 280.666L200.713 285.957L200.681 291.246L200.665 296.6Z" fill="#816259"/>
<path d="M104.339 264.609L98.9011 264.753L93.4637 265.01L88.0261 264.963H82.5728L77.103 264.785L77.087 269.351L77.1675 273.837L82.5728 274.079L88.0102 273.757L93.4476 273.789L98.9011 273.691L104.194 274.013L104.354 279.319L104.451 284.753L104.274 290.185L104.532 295.635L104.339 301.07L98.9011 300.91L93.4637 300.86L88.0261 301.199L82.5728 301.117H77.1835L77.0549 305.604L76.9906 310.297L82.5728 310.04L88.0102 310.186L93.4476 310.072L98.9011 310.088H104.339L108.875 310.249L113.395 310.12L113.508 305.604L113.54 301.07L113.476 295.635L113.363 290.203L113.251 284.769L113.235 279.319L113.331 273.869L113.589 269.351L113.347 264.883L108.875 264.947L104.339 264.609Z" fill="#816259"/>
<path d="M63.5936 282.997L63.4167 287.917L63.6096 292.884L63.4489 297.835L59.9901 301.435L56.3705 304.926L52.8636 308.526L56.0488 311.677L60.2315 307.496L64.4302 303.302L68.0176 299.715L68.1624 296.532V289.733L68.0497 282.947L63.5936 282.997Z" fill="#C99E2D"/>
<path d="M218.844 264.895L218.603 270.537L218.635 276.261L218.507 281.984L218.957 287.724L218.539 293.463L218.683 299.171L214.935 303.14L210.978 306.917L214.308 310.021L217.397 313.283L221.209 309.41L225.086 305.537L227.612 302.882L227.741 296.532L227.805 291.244L227.676 285.971L227.998 280.683L227.773 275.392L227.58 270.104L227.676 264.927L223.268 264.766L218.844 264.895Z" fill="#528CA2"/>
</svg>
