<svg width="567" height="556" viewBox="0 0 567 556" fill="none" xmlns="http://www.w3.org/2000/svg">
<path d="M269.126 103.668L264.817 92.5975L259.814 82.1468L256.397 71.0766L252.063 60.3532L247.952 49.5304L243.419 38.9063L239.21 28.1332L234.752 17.4345L230.814 6.29004L220.809 10.0791L211.051 14.1407L215.757 24.8641L219.62 35.7856L223.855 46.5339L227.818 57.4058L232.374 68.0303L236.683 78.7537L240.671 89.626L245.302 100.225L249.14 111.395L258.824 106.863L269.126 103.668Z" fill="#816259"/>
<path d="M221.576 211.176L212.14 217.962L203.2 225.317L194.16 232.499L185.245 239.879L175.537 246.219L166.522 253.45L157.26 260.385L148.121 267.492L138.76 274.774L145.372 283.243L151.911 291.342L161.272 284.556L170.311 277.374L179.153 269.895L188.316 262.861L197.38 255.655L206.518 248.596L215.707 241.538L224.845 234.455L234.701 227.818L228.163 219.324L221.576 211.176Z" fill="#816259"/>
<path d="M338.171 226.554L347.409 233.588L356.77 240.373L365.983 247.332L375.666 253.673L384.904 260.656L393.993 267.789L403.676 274.153L412.74 281.36L422.299 288.27L428.516 279.652L434.682 271.132L425.024 264.594L416.108 257.214L406.276 251.072L397.46 243.568L388.123 236.733L378.688 230.046L369.178 223.459L359.891 216.549L350.554 209.714L344.511 218.208L338.171 226.554Z" fill="#816259"/>
<path d="M185.939 35.29L176.181 38.6337L166.77 42.4968L170.46 52.4031L174.126 62.5569L177.643 72.785L181.382 82.9391L185.543 92.9441L189.208 103.494L178.113 102.182L167.291 102.107L156.493 101.34L145.695 100.696L134.897 100.176L123.877 99.1357L123.827 109.785L122.614 120.36L133.585 120.409L144.308 121.102L154.982 122.564L165.78 122.291L176.454 123.53L187.177 124.099L197.925 124.57L208.649 125.486L219.447 125.981L215.261 116.026L212.289 105.674L207.906 95.817L204.959 85.4649L200.452 75.6825L197.083 65.4544L193.691 55.2511L189.678 45.2708L185.939 35.29Z" fill="#C99E2D"/>
<path d="M300.628 346.346L311.104 347.634L321.134 349.714L323.239 339.263L325.122 328.614L326.682 317.915L329.232 307.39L331.214 296.741L332.724 286.017L341.764 291.936L350.63 298.152L359.595 304.195L368.56 310.238L377.897 315.736L386.639 322.026L392.483 313.507L398.328 304.814L389.19 299.044L380.249 293.051L371.705 286.537L362.493 280.94L353.651 274.848L344.537 269.152L335.548 263.233L326.781 256.992L317.939 251.197L315.587 261.524L313.655 272.074L311.996 282.699L310.039 293.274L308.231 303.873L306.522 314.473L304.442 325.023L302.238 335.548L300.628 346.346Z" fill="#C99E2D"/>
<path d="M447.363 117.389L446.521 107.037L445.679 96.8089L435.005 97.1557L424.207 97.9234L413.434 98.9143L402.686 100.004L391.913 101.143L380.694 101.936L384.632 91.4348L387.827 81.083L391.864 71.0528L395.232 60.7752L398.847 50.547L402.265 40.4677L392.706 36.8022L382.824 33.459L379.06 43.5631L376.088 53.9152L371.977 63.8461L368.262 73.9504L365.34 84.3024L361.749 94.4316L358.059 104.536L354.047 114.516L350.58 125.116L361.699 124.472L372.398 123.457L383.097 122.516L393.82 121.921L404.494 120.485L415.192 119.593L425.966 119.222L436.639 117.909L447.363 117.389Z" fill="#C99E2D"/>
<path d="M314.991 57.5796L326.433 56.9359L337.181 52.8L346.691 46.3363L354.987 38.337L360.337 28.1336L363.853 16.791L353.427 15.206L343.075 13.1752L339.187 23.9977L331.485 32.1704L321.183 36.6775L309.914 37.1977L299.587 32.7152L291.142 25.236L286.734 14.8097L286.808 3.54146L276.555 1.63452L266.278 0L265.262 11.0454L267.12 22.0165L271.701 32.1208L278.115 41.0861L285.966 48.8871L295.6 54.5087L306.398 57.1093L314.991 57.5796Z" fill="#528CA2"/>
<path d="M244.928 287.229L234.056 284.604L222.937 284.802L212.213 287.526L202.134 291.984L193.069 298.423L186.655 307.487L181.38 317.22L191.262 320.538L200.97 324.402L206.616 314.644L215.606 307.834L226.602 305.308L237.623 307.314L247.504 312.663L253.794 322.024L256.048 332.871L254.884 343.744L264.543 347.434L274.3 351L277.123 338.419L276.653 325.516L272.343 313.381L265.657 302.385L255.949 293.99L244.928 287.229Z" fill="#528CA2"/>
<path d="M422.695 153.597L413.804 162.884L407.762 174.201L404.493 186.683L404.765 197.778L407.068 208.65L412.64 218.259L419.426 226.952L428.342 233.416L438.223 238.295L448.996 240.722L450.358 230.419L451.002 220.043L440.402 216.699L431.834 209.616L426.212 199.933L425.394 188.739L428.565 178.04L435.945 169.769L445.578 164.32L456.723 163.107L457.887 152.73L459.001 142.229L445.801 142.923L433.419 146.489L422.695 153.597Z" fill="#528CA2"/>
<path d="M162.659 187.573L159.241 175.092L153.05 163.823L144.06 154.66L133.559 147.131L120.979 144.036L108.001 143.441L109.215 153.818L110.528 164.021L121.251 165.581L131.058 170.634L138.636 178.905L141.41 189.753L140.791 200.897L135.466 210.828L126.774 217.911L116.496 221.23L117.487 231.433L118.205 241.834L128.953 239.309L139.132 234.95L147.502 227.693L154.437 219.174L159.464 209.367L162.386 198.693L162.659 187.573Z" fill="#528CA2"/>
<path d="M346.211 540.792C346.211 544.674 345.29 548.431 342.73 550.986C340.17 553.547 336.409 555.106 332.529 555.106C328.648 555.106 325.247 553.145 322.687 550.629C320.127 548.108 318.327 544.674 318.327 540.792C318.327 536.916 319.727 533.074 322.247 530.519C324.768 527.958 328.648 527 332.529 527C336.409 527 339.73 528.519 342.29 531.04C344.85 533.556 346.25 536.877 346.25 540.792H346.211Z" fill="#528CA2"/>
<path d="M442.824 540.791C442.824 544.672 441.263 548.588 438.703 551.149C436.143 553.705 432.262 555.427 428.341 555.427C424.421 555.427 420.58 553.705 418.02 551.149C415.46 548.588 414.78 544.712 414.78 540.83C414.78 536.955 415.94 533.555 418.5 530.999C421.06 528.438 424.461 526.358 428.341 526.358C432.222 526.358 435.703 528.398 438.223 530.92C440.743 533.436 442.783 536.915 442.783 540.791H442.824Z" fill="#C99E2D"/>
<path d="M374.933 470.147V459.069L374.974 447.798L374.213 436.562L374.653 425.286L374.413 414.015L374.974 402.739L375.013 385.626L359.292 385.824L343.769 385.864L328.287 385.428L312.885 385.949L312.325 402.739L312.365 416.814L312.644 430.884L312.685 444.999L313.165 458.593L329.607 459.029L330.007 444.999L330.167 430.924L329.807 416.814L329.647 402.699L343.769 402.461L357.891 402.739L358.171 414.451L340.729 413.652L340.809 425.45L358.131 424.889L358.051 436.8L340.689 436.12L341.329 447.277L357.571 448.235L357.451 459.069L358.091 470.668L342.849 469.949L327.807 470.464L312.765 470.345L312.885 487.141L327.767 487.18L342.809 487.537L357.851 487.056L372.893 486.738H387.935L402.977 487.86L418.02 487.339L433.062 486.738L448.144 487.299L447.704 470.708L433.462 469.824L418.779 470.629L404.138 469.665L389.455 470.345L374.933 470.147Z" fill="#528CA2"/>
<path d="M448.586 498.136L434.024 498.057L419.942 499.054L405.82 498.935L391.698 498.295L380.416 499.014L369.135 498.295L355.053 498.057L340.971 498.856L326.849 498.255L312.847 498.612L312.807 515.407L326.849 516.048L340.931 515.124L355.053 515.407L369.055 515.566L368.494 528.599L368.535 541.751L368.735 555.226L380.416 555.027L391.218 554.466L392.258 541.751L391.258 528.599L391.298 515.005L405.78 515.685L419.902 515.005L433.984 516.087L447.706 515.084L448.586 498.136Z" fill="#816259"/>
<path d="M431.182 386.029L417.1 385.627L403.018 386.069L386.016 385.746L385.896 402.74L385.736 417.416L395.977 426.731L405.098 436.364L396.537 444.881L388.136 453.477L400.017 465.11L408.779 457.155L417.1 447.998L425.821 456.752L434.263 465.671L445.904 453.477L437.423 445.119L428.702 436.364L438.623 427.128L448.265 417.416V402.74L447.864 386.069H431.182V386.029ZM431.382 410.418L417.1 424.21L402.778 410.418L403.018 402.779L417.06 402.898L430.982 403.017L431.342 410.378L431.382 410.418Z" fill="#C99E2D"/>
<path d="M125.459 498.45L114.378 498.489L114.217 481.62L114.258 464.706L125.539 464.746L125.499 481.62L125.459 498.45Z" fill="#816259"/>
<path d="M146.623 498.492L135.461 498.532L135.501 481.623L135.381 464.669H146.783L146.703 481.623L146.623 498.492Z" fill="#528CA2"/>
<path d="M67.771 419.372L54.2091 419.173L40.6872 420.171L27.1653 419.134L13.6434 419.853L0.201493 419.774L0.521538 430.926L0.401521 441.76L13.6034 441.641L27.1252 441.8L40.6872 441.964L54.2091 442.519L67.8112 442.123L67.5311 455.716L68.131 469.231L67.6111 482.74L67.8112 496.294L67.7307 509.808L54.2091 509.769L40.6872 509.888L27.1653 509.327L13.6434 510.33L0.00146484 509.729V521.085L0.281504 532.117L13.6034 532.316L27.1252 532.236L40.6872 531.879L54.2091 532.157L67.771 532.316L79.0123 531.998L90.6539 532.718L90.7344 521.085L89.8941 509.808L90.0143 496.294L90.574 482.785L90.2542 469.271L89.8539 455.716L90.574 442.162L90.1742 430.926V419.774L79.0525 419.173L67.771 419.372Z" fill="#C99E2D"/>
<path d="M499.031 498.696L487.589 498.373H476.468L476.068 485.38L476.108 472.268L476.668 459.11L476.428 445.958L476.228 432.807L476.348 419.694L487.589 419.411L498.871 419.609L498.711 432.767L498.951 445.919L498.831 459.071L499.151 472.228L499.071 485.38L499.031 498.696Z" fill="#816259"/>
<path d="M259.478 419.134L245.956 419.491L232.434 420.131L218.912 420.012H205.35L191.748 419.57L191.708 430.926L191.908 442.083L205.35 442.684L218.872 441.885L232.394 441.964L245.956 441.72L259.118 442.519L259.517 455.716L259.758 469.231L259.318 482.74L259.958 496.294L259.478 509.808L245.956 509.412L232.434 509.287L218.912 510.131L205.35 509.927H191.948L191.628 521.085L191.468 532.758L205.35 532.117L218.872 532.48L232.394 532.197L245.956 532.236H259.478L270.759 532.639L282.001 532.316L282.281 521.085L282.361 509.808L282.201 496.294L281.921 482.785L281.64 469.271L281.601 455.716L281.841 442.162L282.481 430.926L281.881 419.814L270.759 419.972L259.478 419.134Z" fill="#816259"/>
<path d="M158.145 464.872L157.705 477.106L158.185 489.458L157.785 501.772L149.184 510.725L140.182 519.406L131.461 528.359L139.382 536.195L149.784 525.797L160.225 515.366L169.146 506.447L169.507 498.53V481.622L169.226 464.747L158.145 464.872Z" fill="#C99E2D"/>
<path d="M544.239 419.855L543.638 433.885L543.719 448.119L543.399 462.354L544.519 476.627L543.479 490.901L543.839 505.096L534.518 514.967L524.676 524.362L532.957 532.079L540.638 540.194L550.12 530.561L559.761 520.928L566.042 514.326L566.362 498.534L566.522 485.382L566.202 472.27L567.002 459.118L566.442 445.961L565.962 432.809L566.202 419.935L555.24 419.532L544.239 419.855Z" fill="#528CA2"/>
</svg>
