<svg width="129" height="130" viewBox="0 0 129 130" fill="none" xmlns="http://www.w3.org/2000/svg">
<path d="M59.208 38.1304L57.6298 34.0564L55.7859 30.2152L54.5399 26.1412L52.9451 22.2002L51.4331 18.226L49.7718 14.3017L48.2104 10.3441L46.5823 6.41975L45.1368 2.3125L41.4654 3.7093L37.877 5.20587L39.6047 9.14683L41.017 13.1709L42.5784 17.1119L44.0404 21.1194L45.7017 25.0271L47.2965 28.968L48.7584 32.9755L50.4531 36.8666L51.8651 40.9738L55.4204 39.311L59.208 38.1304Z" fill="#816259"/>
<path d="M41.7309 77.6719L38.2754 80.1662L34.9861 82.8766L31.6635 85.5206L28.3907 88.231L24.8189 90.5756L21.5129 93.2362L18.1073 95.7804L14.7514 98.3911L11.3125 101.085L13.738 104.178L16.1303 107.171L19.5692 104.677L22.9084 102.033L26.148 99.2724L29.5204 96.6949L32.843 94.051L36.1988 91.4403L39.5712 88.8463L42.9437 86.2522L46.5653 83.8078L44.1564 80.6816L41.7309 77.6719Z" fill="#816259"/>
<path d="M84.5762 83.3264L87.9818 85.9205L91.4207 88.4148L94.8098 90.9922L98.365 93.3202L101.754 95.881L105.11 98.5083L108.665 100.836L111.988 103.497L115.493 106.041L117.786 102.865L120.062 99.7388L116.506 97.3277L113.234 94.6172L109.612 92.3557L106.372 89.5954L102.95 87.0845L99.478 84.6235L95.9893 82.1957L92.567 79.6682L89.1281 77.1406L86.9186 80.2668L84.5762 83.3264Z" fill="#816259"/>
<path d="M28.64 12.9688L25.0516 14.2159L21.5961 15.6293L22.9418 19.2709L24.304 23.0123L25.5998 26.7704L26.9621 30.5118L28.4905 34.1867L29.8361 38.0778L25.766 37.5789L21.7789 37.5623L17.825 37.2796L13.8545 37.0302L9.88396 36.8473L5.8304 36.4648L5.81378 40.3893L5.36523 44.2802H9.40218L13.3394 44.5464L17.2601 45.0786L21.2306 44.9786L25.1513 45.4442L29.1052 45.6604L33.0424 45.8267L36.9963 46.1592L40.9502 46.3422L39.4218 42.6839L38.3254 38.8759L36.7139 35.2509L35.6341 31.443L33.9728 27.8346L32.7434 24.0765L31.4808 20.3185L30.0189 16.6436L28.64 12.9688Z" fill="#C99E2D"/>
<path d="M70.7871 127.391L74.6413 127.873L78.3294 128.638L79.0936 124.797L79.7913 120.889L80.3562 116.948L81.3031 113.074L82.0341 109.149L82.5823 105.208L85.9049 107.387L89.1611 109.665L92.4504 111.893L95.7564 114.121L99.1953 116.133L102.402 118.445L104.545 115.318L106.688 112.126L103.332 109.997L100.059 107.802L96.9027 105.391L93.5303 103.346L90.2741 101.101L86.9183 99.0058L83.6289 96.8275L80.406 94.5328L77.1499 92.4043L76.286 96.1956L75.5716 100.087L74.9736 103.994L74.2426 107.885L73.5947 111.777L72.9468 115.684L72.1826 119.559L71.3852 123.433L70.7871 127.391Z" fill="#C99E2D"/>
<path d="M124.713 43.1839L124.397 39.3759L124.098 35.6179L120.178 35.7343L116.207 36.017L112.253 36.3828L108.299 36.7819L104.329 37.1976L100.225 37.4969L101.654 33.6225L102.834 29.8312L104.329 26.1396L105.558 22.3483L106.887 18.5903L108.133 14.8821L104.628 13.5352L100.99 12.3047L99.6107 16.0295L98.5308 19.8208L97.0191 23.4957L95.6402 27.2038L94.577 31.0118L93.2479 34.7366L91.9023 38.4447L90.4237 42.1197L89.1445 46.0274L93.2313 45.7779L97.1686 45.4121L101.089 45.0629L105.043 44.8467L108.964 44.3146L112.901 43.9821L116.855 43.849L120.776 43.3668L124.713 43.1839Z" fill="#C99E2D"/>
<path d="M76.0711 21.1848L80.2742 20.9353L84.2281 19.4221L87.7168 17.0443L90.7736 14.101L92.7339 10.343L94.0297 6.18582L90.1921 5.58719L86.3878 4.8389L84.959 8.82975L82.1348 11.8395L78.3471 13.4857L74.2105 13.6853L70.4061 12.0391L67.2995 9.27872L65.688 5.45416L65.7046 1.29703L61.9501 0.598627L58.1624 0L57.7969 4.05736L58.478 8.0981L60.1559 11.8229L62.515 15.1153L65.4056 17.9921L68.9442 20.054L72.9147 21.0018L76.0711 21.1848Z" fill="#528CA2"/>
<path d="M50.3207 105.658L46.3336 104.693L42.2302 104.76L38.2929 105.758L34.5882 107.404L31.2657 109.782L28.9066 113.107L26.9629 116.683L30.6011 117.913L34.1563 119.326L36.2495 115.735L39.5389 113.24L43.5925 112.309L47.6294 113.041L51.2677 115.02L53.5769 118.445L54.4075 122.453L53.9756 126.444L57.5308 127.79L61.1192 129.121L62.1492 124.481L61.9831 119.742L60.3882 115.269L57.9461 111.228L54.3743 108.135L50.3207 105.658Z" fill="#528CA2"/>
<path d="M115.643 56.5029L112.387 59.9118L110.161 64.0855L108.965 68.675L109.065 72.749L109.912 76.7565L111.955 80.2817L114.447 83.4744L117.736 85.8689L121.358 87.6648L125.312 88.5461L125.827 84.7548L126.06 80.9302L122.156 79.7164L118.999 77.1057L116.939 73.5472L116.64 69.4233L117.82 65.4989L120.527 62.4393L124.049 60.4439L128.153 59.9949L128.585 56.1703L129 52.3125L124.132 52.5619L119.581 53.8922L115.643 56.5029Z" fill="#528CA2"/>
<path d="M20.0851 68.9912L18.8225 64.4017L16.5465 60.2612L13.2571 56.8856L9.38632 54.1253L4.76792 52.9779L0 52.7617L0.44855 56.5863L0.930326 60.3443L4.8676 60.9097L8.47261 62.7721L11.2636 65.7985L12.277 69.806L12.0444 73.8966L10.1007 77.5549L6.89438 80.1489L3.12324 81.3794L3.48872 85.1375L3.73792 88.9621L7.70842 88.0309L11.4463 86.4179L14.5197 83.7573L17.0615 80.6145L18.9056 77.0228L19.9854 73.0818L20.0851 68.9912Z" fill="#528CA2"/>
</svg>
