<svg width="506" height="326" viewBox="0 0 506 326" fill="none" xmlns="http://www.w3.org/2000/svg">
<g filter="url(#filter0_d_13_123)">
<path d="M246.99 7C114.459 7 7 44.6302 7 152.296C7 199.55 27.8121 233.36 62.408 256.388C73.3805 263.699 73.5903 279.643 62.8486 287.306C52.2537 294.865 40.7567 300.813 28.8191 305.667C66.3942 309.198 100.067 305.873 126.397 293.791C135.062 289.826 144.67 288.38 154.069 290.073C182.644 295.237 214.051 297.591 247.01 297.591C379.562 297.591 487 266.384 487 152.296C486.979 56.8776 379.541 7 246.99 7Z" fill="#FFFCF2"/>
<path d="M246.989 11.3525C312.807 11.3525 371.994 23.7493 414.562 47.6611C456.67 71.3145 482.236 106.006 482.643 151.227L482.647 152.297C482.647 180.109 476.11 202.61 464.477 220.782C452.833 238.97 435.913 253.09 414.74 263.847C372.25 285.433 313.099 293.239 247.011 293.239C214.248 293.239 183.108 290.897 154.844 285.79H154.841C144.497 283.926 133.99 285.53 124.586 289.833L124.582 289.835C103.157 299.667 76.4233 303.583 46.25 302.461C52.8426 299.059 59.2482 295.221 65.376 290.849C78.5814 281.429 78.3472 261.778 64.8213 252.766L64.8193 252.765C31.3629 230.495 11.3526 198.008 11.3525 152.296C11.3525 100.301 37.1142 65.3464 79.3232 43.124C121.839 20.74 181.008 11.3526 246.989 11.3525Z" stroke="#C99E2D" stroke-width="8.70466"/>
</g>
<defs>
<filter id="filter0_d_13_123" x="0.782383" y="0.782383" width="504.87" height="324.87" filterUnits="userSpaceOnUse" color-interpolation-filters="sRGB">
<feFlood flood-opacity="0" result="BackgroundImageFix"/>
<feColorMatrix in="SourceAlpha" type="matrix" values="0 0 0 0 0 0 0 0 0 0 0 0 0 0 0 0 0 0 127 0" result="hardAlpha"/>
<feOffset dx="6.21762" dy="6.21762"/>
<feGaussianBlur stdDeviation="6.21762"/>
<feComposite in2="hardAlpha" operator="out"/>
<feColorMatrix type="matrix" values="0 0 0 0 0 0 0 0 0 0 0 0 0 0 0 0 0 0 0.25 0"/>
<feBlend mode="normal" in2="BackgroundImageFix" result="effect1_dropShadow_13_123"/>
<feBlend mode="normal" in="SourceGraphic" in2="effect1_dropShadow_13_123" result="shape"/>
</filter>
</defs>
</svg>
