<svg width="621" height="152" viewBox="0 0 621 152" fill="none" xmlns="http://www.w3.org/2000/svg">
<path d="M0.452355 80.4233C0.61036 80.4233 0.784166 80.439 0.942171 80.4547C0.92637 80.7221 0.91057 80.9894 0.894769 81.2568C1.05277 81.2568 1.22658 81.2725 1.38459 81.2883C2.36422 82.9081 2.61702 83.7888 4.63949 84.6853C4.51309 85.7704 4.59209 86.4782 4.00747 87.0601C3.67566 87.1701 3.34385 87.296 2.99624 87.406C2.74343 88.9945 2.47482 90.5829 2.22201 92.1713C2.99624 92.7532 3.40705 93.6182 4.07067 94.2787C4.38668 94.436 4.71849 94.5775 5.0345 94.7348C5.31891 95.5526 5.58752 96.3704 5.87193 97.1882C6.36174 97.3455 6.83576 97.5185 7.32558 97.6757C7.46778 97.9588 7.62578 98.2262 7.76799 98.5093C8.25781 98.5407 8.74762 98.5722 9.25324 98.5879C9.39544 98.9968 9.53765 99.4057 9.67985 99.8146C9.99586 99.9719 10.3277 100.113 10.6437 100.271C10.7701 100.947 10.8965 101.623 11.0229 102.299C11.1809 102.299 11.3547 102.315 11.5127 102.331C11.4969 102.724 11.4653 103.133 11.4337 103.526C11.5917 103.526 11.7655 103.542 11.9235 103.558C11.9077 103.825 11.8919 104.092 11.8761 104.36C12.0341 104.36 12.2079 104.375 12.3659 104.391C12.3343 104.784 12.3185 105.193 12.2869 105.586C13.2192 106.577 14.1514 107.568 15.0678 108.559C15.8895 108.732 16.6953 108.921 17.5011 109.094C17.9593 109.785 18.4017 110.477 18.8599 111.185C19.3498 111.342 19.8238 111.515 20.3136 111.673C20.3136 111.94 20.282 112.207 20.2662 112.475C20.5822 112.632 20.914 112.774 21.23 112.931C21.2142 113.198 21.1984 113.466 21.1826 113.733C21.4986 113.89 21.8304 114.032 22.1465 114.189C22.1465 114.315 22.1307 114.456 22.1149 114.582C22.7627 114.755 23.4105 114.928 24.0583 115.101C24.3585 115.526 24.6745 115.935 24.9747 116.359C25.3066 116.375 25.6384 116.391 25.9544 116.422C25.9544 116.548 25.9544 116.69 25.9228 116.815C26.5864 116.847 27.2342 116.894 27.8978 116.926C28.356 117.618 28.7985 118.309 29.2567 119.017C31.0421 119.395 32.8434 119.756 34.6288 120.134C34.6288 120.134 35.2925 119.442 36.1299 119.819C36.1299 119.945 36.1299 120.087 36.1141 120.212C36.4459 120.228 36.7777 120.244 37.0937 120.275C37.6941 121.376 38.2788 122.477 38.8792 123.594C39.369 123.751 39.843 123.924 40.3328 124.081C40.3328 124.207 40.3328 124.349 40.3012 124.474C40.791 124.506 41.2809 124.537 41.7865 124.553C41.7865 124.679 41.7865 124.82 41.7707 124.946C42.7503 125.009 43.7457 125.056 44.7254 125.119C44.7254 125.245 44.7096 125.387 44.7096 125.512C45.0414 125.528 45.3732 125.544 45.6892 125.575C45.6892 125.701 45.6734 125.843 45.6576 125.968C46.1474 126 46.6372 126.031 47.1271 126.047C47.4273 126.472 47.7433 126.881 48.0435 127.305C48.3753 127.321 48.7071 127.337 49.0231 127.368C49.0231 127.494 49.0073 127.636 48.9915 127.761C50.7928 127.997 52.594 128.233 54.3953 128.469C54.5375 128.752 54.6955 129.02 54.8377 129.303C55.1695 129.318 55.5013 129.334 55.8173 129.366C55.9595 129.649 56.1175 129.916 56.2597 130.199C56.5916 130.215 56.9234 130.231 57.2394 130.262C57.2394 130.388 57.2394 130.529 57.2236 130.655C58.535 130.734 59.8465 130.812 61.1579 130.891C61.1579 131.017 61.1579 131.158 61.1263 131.284C61.4581 131.3 61.7899 131.316 62.1059 131.347C62.1059 131.473 62.0901 131.614 62.0743 131.74C62.5641 131.772 63.054 131.803 63.5596 131.819C63.5596 131.945 63.5596 132.086 63.528 132.212C64.1916 132.244 64.8394 132.291 65.503 132.322C65.6452 132.605 65.8033 132.873 65.9455 133.156C66.2773 133.171 66.6091 133.187 66.9251 133.219C66.9251 133.344 66.9251 133.486 66.8935 133.612C67.2253 133.628 67.5571 133.643 67.8731 133.675C67.8731 133.801 67.8573 133.942 67.8415 134.068C69.6428 134.178 71.4598 134.272 73.2611 134.382C73.2611 134.508 73.2453 134.65 73.2295 134.776C73.5613 134.791 73.8931 134.807 74.2091 134.839C74.2091 134.964 74.2091 135.106 74.1933 135.232C75.9946 135.342 77.8116 135.436 79.6129 135.546C79.6129 135.42 79.6287 135.279 79.6445 135.153C80.1501 135.043 80.6399 134.949 81.1455 134.839C81.1455 134.964 81.1297 135.106 81.1297 135.232C81.6196 135.389 82.0936 135.562 82.5834 135.719C82.5834 135.845 82.5676 135.987 82.5518 136.112C84.3372 136.616 86.1227 137.119 87.8924 137.622C87.8924 137.748 87.8766 137.89 87.8608 138.015C88.1926 138.031 88.5244 138.047 88.8404 138.078C88.8404 138.204 88.8246 138.346 88.8246 138.471C90.7997 138.581 92.7589 138.707 94.734 138.817C94.734 138.943 94.734 139.085 94.7182 139.211C95.208 139.242 95.6978 139.273 96.1876 139.289C96.1876 139.415 96.1718 139.557 96.1718 139.682C97.8783 140.233 101.939 139.478 102.603 139.651C102.603 139.777 102.603 139.918 102.571 140.044C102.903 140.06 103.235 140.076 103.551 140.107C103.551 140.233 103.535 140.374 103.519 140.5C105.32 140.61 107.137 140.705 108.939 140.815C108.939 140.689 108.939 140.547 108.954 140.422C109.286 140.437 109.618 140.453 109.934 140.484C109.934 140.359 109.934 140.217 109.966 140.091C110.455 140.249 110.93 140.422 111.419 140.579C111.419 140.705 111.404 140.846 111.404 140.972C111.735 140.988 112.067 141.003 112.383 141.035C112.383 141.161 112.383 141.302 112.367 141.428C113.189 141.475 114.011 141.522 114.832 141.57C114.832 141.695 114.816 141.837 114.816 141.963C114.974 141.963 115.148 141.979 115.306 141.994C115.306 141.868 115.306 141.727 115.322 141.601C116.144 141.648 116.965 141.695 117.787 141.743C118.719 141.507 119.92 140.673 120.836 140.311C123.333 143.866 128.989 142.812 134.504 143.111C137.127 143.268 139.765 143.41 142.388 143.567C143.226 143.41 146.828 142.859 148.329 143.504C148.472 143.787 148.63 144.054 148.772 144.338C149.657 144.809 154.318 145.942 156.119 145.564C156.119 145.438 156.135 145.297 156.151 145.171C156.64 145.203 157.13 145.234 157.62 145.25C157.62 145.124 157.636 144.982 157.652 144.857C157.983 144.872 158.315 144.888 158.631 144.919C159.042 144.746 159.421 143.614 160.18 143.803C160.18 143.929 160.18 144.07 160.164 144.196C160.496 144.212 160.827 144.227 161.144 144.259C161.144 144.385 161.128 144.526 161.112 144.652C162.566 145.14 164.019 145.627 165.473 146.115C166.563 146.398 166.926 145.816 166.974 145.8C167.638 145.832 168.285 145.879 168.949 145.91C169.85 145.706 171.588 144.589 172.962 144.935C172.962 145.061 172.962 145.203 172.931 145.328C174.558 145.564 176.201 145.784 177.829 146.02C177.829 146.146 177.829 146.288 177.813 146.414C178.145 146.429 178.477 146.445 178.793 146.476C178.793 146.602 178.777 146.744 178.777 146.87C181.732 147.043 184.686 147.216 187.641 147.389C187.641 147.263 187.641 147.121 187.673 146.995C188.494 146.917 189.332 146.822 190.153 146.744C190.153 146.618 190.169 146.476 190.185 146.351C191.038 145.863 191.891 145.376 192.745 144.888C192.745 144.762 192.76 144.621 192.76 144.495C193.898 144.825 195.036 145.155 196.157 145.501C196.157 145.627 196.157 145.769 196.126 145.895C197.975 146.791 201.972 148.222 205.417 147.64C205.417 147.514 205.432 147.373 205.448 147.247C208.071 147.404 210.71 147.546 213.333 147.703C213.333 147.577 213.348 147.436 213.348 147.31C213.68 147.326 214.012 147.341 214.328 147.373C214.676 146.995 215.039 146.618 215.387 146.225C216.524 146.429 217.678 146.618 218.815 146.822C218.815 146.948 218.815 147.09 218.8 147.216C219.953 147.279 221.106 147.341 222.244 147.42C224.567 147.294 226.874 147.153 229.196 147.027C229.196 146.901 229.196 146.76 229.212 146.634C229.544 146.649 229.876 146.665 230.192 146.697C230.192 146.571 230.208 146.429 230.208 146.303C231.25 146.115 235.121 147.562 237.081 147.106C237.081 146.98 237.081 146.838 237.097 146.712C237.602 146.602 238.092 146.508 238.598 146.398C238.598 146.272 238.613 146.13 238.629 146.005C238.724 146.005 241.979 147.514 244.001 147.121C244.001 146.995 244.001 146.854 244.017 146.728C244.507 146.76 244.997 146.791 245.502 146.807C245.502 146.681 245.502 146.539 245.518 146.414C248.204 145.895 249.358 147.373 251.917 146.791C251.917 146.665 251.933 146.524 251.949 146.398C252.281 146.414 252.613 146.429 252.929 146.461C252.929 146.335 252.944 146.193 252.96 146.068C253.624 146.099 254.272 146.146 254.935 146.178C254.935 146.303 254.935 146.445 254.92 146.571C257.384 146.571 259.865 146.587 262.33 146.602C262.33 146.476 262.346 146.335 262.346 146.209C262.678 146.225 263.009 146.241 263.325 146.272C263.325 146.146 263.341 146.005 263.357 145.879C263.689 145.895 264.005 145.91 264.337 145.942C264.684 145.564 265.048 145.187 265.395 144.794C266.043 144.967 266.691 145.14 267.339 145.313C271.273 145.549 275.223 145.769 279.157 146.005C279.157 145.879 279.158 145.737 279.173 145.611C279.505 145.627 279.837 145.643 280.153 145.674C280.153 145.549 280.153 145.407 280.185 145.281C282.318 145.407 284.451 145.533 286.584 145.659C286.584 145.533 286.6 145.391 286.615 145.265C286.947 145.281 287.279 145.297 287.595 145.328C287.769 145.077 287.958 144.809 288.132 144.558C289.444 144.636 290.755 144.715 292.067 144.794C292.067 144.668 292.066 144.526 292.082 144.4C292.746 144.432 293.394 144.479 294.057 144.511C294.057 144.385 294.057 144.243 294.073 144.117C297.518 144.448 300.962 144.778 304.391 145.124C304.391 144.998 304.391 144.857 304.407 144.731C305.228 144.778 306.05 144.825 306.872 144.872C306.872 144.746 306.887 144.605 306.903 144.479C307.235 144.495 307.567 144.511 307.883 144.542C307.883 144.416 307.899 144.275 307.914 144.149C309.874 144.4 311.833 144.636 313.808 144.888C313.808 144.762 313.824 144.621 313.84 144.495C314.503 144.4 315.167 144.306 315.83 144.212C316.352 143.708 316.873 143.205 317.411 142.702C318.564 142.765 319.717 142.828 320.855 142.906C320.855 142.781 320.871 142.639 320.887 142.513C321.329 142.513 323.92 143.803 324.268 143.913C325.911 144.007 327.554 144.102 329.198 144.196C329.198 144.322 329.198 144.463 329.182 144.589C331.979 144.621 334.775 144.652 337.588 144.668C337.588 144.542 337.604 144.4 337.604 144.275C338.093 144.306 338.583 144.338 339.089 144.353C339.089 144.227 339.089 144.086 339.105 143.96C341.569 144.102 344.034 144.243 346.499 144.385C346.499 144.259 346.499 144.117 346.515 143.992C347.352 143.929 347.352 144.416 347.479 144.448C349.454 144.558 351.413 144.684 353.388 144.794C354.083 144.746 355.063 144.212 356.375 144.558C357.022 144.746 359.361 145.549 360.783 145.218C360.783 145.092 360.799 144.951 360.815 144.825C361.146 144.841 361.478 144.857 361.794 144.888C361.794 144.762 361.794 144.621 361.826 144.495C362.821 144.416 363.817 144.338 364.812 144.259C364.812 144.133 364.828 143.992 364.844 143.866C365.175 143.881 365.507 143.897 365.823 143.929C365.823 143.803 365.823 143.661 365.839 143.535C367.324 143.488 368.81 143.441 370.295 143.394C370.295 143.268 370.311 143.127 370.326 143.001C371.148 142.922 371.985 142.828 372.807 142.749C372.807 142.623 372.823 142.482 372.839 142.356C373.882 142.23 379.317 144.825 380.581 145.218C383.694 145.391 386.822 145.58 389.935 145.753C389.935 145.627 389.951 145.486 389.966 145.36C390.962 145.281 391.957 145.203 392.953 145.124C392.953 145.25 392.953 145.391 392.937 145.517C393.269 145.533 393.601 145.549 393.917 145.58C393.917 145.706 393.901 145.847 393.901 145.973C395.955 146.807 400.584 147.64 402.275 146.461C405.198 146.036 405.909 143.111 407.047 141.114C408.042 141.035 409.038 140.956 410.033 140.878C410.207 140.626 410.397 140.359 410.57 140.107C411.06 140.138 411.55 140.17 412.056 140.186C412.229 139.934 412.419 139.667 412.593 139.415C412.925 139.431 413.256 139.446 413.572 139.478C413.572 139.352 413.588 139.211 413.604 139.085C414.41 139.273 415.231 139.446 416.037 139.619C416.211 139.368 416.401 139.1 416.574 138.849L417.049 139.273C418.597 139.226 419.766 138.629 422.026 138.755C422.026 138.629 422.026 138.487 422.041 138.361C421.062 138.173 420.082 137.984 419.103 137.795C419.103 137.669 419.103 137.528 419.134 137.402C418.802 137.386 418.486 137.371 418.155 137.339C418.155 137.213 418.155 137.072 418.17 136.946C417.839 136.93 417.507 136.914 417.191 136.883C417.191 136.757 417.207 136.616 417.222 136.49C416.891 136.474 416.559 136.458 416.243 136.427C416.243 136.301 416.243 136.16 416.274 136.034C415.784 136.002 415.295 135.971 414.789 135.955C414.789 135.829 414.789 135.688 414.805 135.562C414.268 135.184 414.726 135.609 414.331 135.137C414.994 135.043 415.658 134.949 416.322 134.854C416.701 134.681 416.353 134.32 417.333 134.508C417.333 134.634 417.317 134.776 417.301 134.901C417.949 135.074 418.597 135.247 419.245 135.42C419.245 135.546 419.245 135.688 419.213 135.814C421.488 136.348 423.764 136.883 426.039 137.418C426.039 137.292 426.055 137.15 426.071 137.025C426.229 137.025 426.402 137.04 426.56 137.056C426.56 137.182 426.56 137.323 426.545 137.449C426.876 137.465 427.208 137.481 427.524 137.512C427.524 137.638 427.508 137.779 427.493 137.905C428.314 137.952 429.136 138 429.958 138.047C429.958 138.173 429.958 138.314 429.926 138.44C430.416 138.471 430.906 138.503 431.411 138.519C431.411 138.644 431.395 138.786 431.395 138.912C432.723 139.336 434.318 138.723 434.872 138.707C434.872 138.833 434.856 138.975 434.84 139.1C435.172 139.116 435.488 139.132 435.819 139.163C435.819 139.289 435.82 139.431 435.788 139.557C436.61 139.604 437.431 139.651 438.253 139.698C438.253 139.824 438.237 139.965 438.221 140.091C441.998 140.437 445.758 140.799 449.534 141.145C449.677 141.428 449.835 141.695 449.977 141.979C450.309 141.994 450.64 142.01 450.956 142.041C450.956 142.167 450.941 142.309 450.925 142.435C452.9 142.545 454.859 142.655 456.834 142.781C456.834 142.906 456.834 143.048 456.803 143.174C457.134 143.189 457.466 143.205 457.782 143.237C457.782 143.363 457.782 143.504 457.766 143.63C459.252 143.708 460.721 143.803 462.206 143.881C462.206 143.756 462.206 143.614 462.238 143.488C463.075 143.41 463.897 143.315 464.719 143.237C464.892 142.985 465.082 142.718 465.256 142.466C467.089 141.931 471.307 143.252 472.113 143.661C472.113 143.787 472.113 143.929 472.082 144.054C472.413 144.07 472.745 144.086 473.061 144.117C473.204 144.4 473.362 144.668 473.504 144.951C473.836 144.967 474.152 144.982 474.483 145.014C474.483 145.14 474.468 145.281 474.452 145.407C474.784 145.423 475.115 145.438 475.431 145.47C475.431 145.596 475.416 145.737 475.4 145.863C475.89 145.895 476.379 145.926 476.885 145.942C476.885 146.068 476.885 146.209 476.869 146.335C478.671 146.445 480.488 146.539 482.289 146.649C482.289 146.524 482.305 146.382 482.32 146.256C483.158 146.178 483.979 146.083 484.801 146.005C484.943 146.288 485.101 146.555 485.243 146.838C486.049 147.011 486.871 147.2 487.677 147.389C487.677 147.514 487.677 147.656 487.661 147.782C489.146 147.735 490.631 147.687 492.117 147.64C492.117 147.514 492.117 147.373 492.133 147.247C492.464 147.263 492.796 147.279 493.112 147.31C493.112 147.184 493.112 147.043 493.144 146.917C495.435 147.184 497.726 147.452 500.017 147.719C500.017 147.845 500.017 147.986 500.001 148.112C500.333 148.128 500.665 148.143 500.981 148.175C500.981 148.301 500.965 148.442 500.949 148.568C501.439 148.6 501.929 148.631 502.434 148.647C502.434 148.773 502.419 148.914 502.403 149.04C505.01 149.873 506.732 147.97 508.849 148.615C508.849 148.741 508.834 148.883 508.818 149.008C509.466 149.181 510.114 149.354 510.761 149.527C510.761 149.653 510.761 149.795 510.73 149.921C511.883 149.984 513.021 150.046 514.174 150.125C514.174 150.251 514.174 150.392 514.158 150.518C518.109 150.613 522.059 150.707 526.009 150.801C526.009 150.676 526.009 150.534 526.025 150.408C526.514 150.44 527.004 150.471 527.51 150.487C528.379 149.732 529.248 148.977 530.117 148.238C530.307 147.892 531.397 149.826 531.492 149.921C532.392 150.707 535.805 152.39 538.302 151.918C538.302 151.792 538.317 151.651 538.333 151.525C538.823 151.556 539.313 151.588 539.818 151.603C539.818 151.478 539.818 151.336 539.834 151.21C540.814 151.273 541.809 151.32 542.789 151.383C542.789 151.509 542.773 151.651 542.757 151.776C544.227 152.201 546.47 151.761 547.213 151.635C549.014 151.745 550.831 151.839 552.633 151.949C552.633 151.824 552.648 151.682 552.664 151.556C553.502 151.478 554.323 151.383 555.145 151.305C555.319 151.053 555.508 150.786 555.682 150.534C557.626 149.968 561.181 151.132 563.093 150.565C563.093 150.44 563.108 150.298 563.124 150.172C563.456 150.188 563.788 150.204 564.104 150.235C564.451 149.858 564.815 149.48 565.162 149.087C567.106 148.584 568.433 150.738 571.024 150.235C571.024 150.109 571.024 149.968 571.056 149.842C571.893 149.763 572.715 149.669 573.537 149.59C573.884 149.213 574.248 148.835 574.595 148.442C575.765 148.238 576.918 148.049 578.087 147.845C578.261 147.593 578.451 147.326 578.625 147.074C580.773 147.074 582.906 147.058 585.055 147.043C585.055 146.917 585.055 146.775 585.071 146.649C585.561 146.681 586.051 146.712 586.556 146.728C586.556 146.602 586.572 146.461 586.572 146.335C586.904 146.351 587.236 146.366 587.552 146.398C587.899 146.02 588.263 145.643 588.61 145.25C588.768 145.25 588.942 145.265 589.1 145.281C589.29 144.888 589.479 144.495 589.669 144.117C590.823 144.18 591.976 144.243 593.114 144.322C595.863 143.661 597.601 141.522 598.375 139.006C600.603 139.179 602.72 139.352 603.842 138.519C606.307 138.125 608.598 134.886 608.187 131.945C608.029 131.945 607.855 131.929 607.697 131.913C607.697 131.787 607.697 131.646 607.713 131.52C607.871 131.52 608.045 131.536 608.203 131.552C608.219 131.284 608.235 131.017 608.25 130.749C608.582 130.639 608.914 130.514 609.262 130.404C609.451 129.885 609.657 129.35 609.846 128.831C610.004 128.831 610.178 128.847 610.336 128.862C610.336 128.736 610.352 128.595 610.368 128.469C610.873 128.359 611.363 128.265 611.869 128.155C611.869 128.029 611.869 127.887 611.9 127.761C612.232 127.777 612.564 127.793 612.88 127.824C613.054 127.573 613.243 127.305 613.417 127.054C613.749 127.069 614.081 127.085 614.397 127.117C614.571 126.865 614.76 126.598 614.934 126.346C615.614 125.984 616.293 125.623 616.972 125.261C616.988 124.993 617.004 124.726 617.02 124.459C617.178 124.459 617.352 124.474 617.51 124.49C617.525 124.223 617.541 123.955 617.557 123.688C617.715 123.688 617.889 123.704 618.047 123.72C618.3 122.257 618.552 120.81 618.805 119.347C618.963 119.347 619.137 119.363 619.295 119.379C619.184 118.577 619.058 117.759 618.947 116.957C619.105 116.957 619.279 116.973 619.437 116.988C619.453 116.595 619.485 116.186 619.516 115.793C619.674 115.793 619.848 115.809 620.006 115.825C620.053 115.164 620.085 114.488 620.132 113.827C619.974 113.827 619.801 113.812 619.643 113.796C619.832 113.277 620.038 112.742 620.227 112.223C620.069 112.223 619.895 112.207 619.737 112.192C619.737 112.066 619.737 111.924 619.753 111.799C619.911 111.799 620.085 111.814 620.243 111.83C620.496 110.367 620.749 108.921 621.001 107.458C620.843 107.458 620.67 107.442 620.512 107.426C620.527 107.159 620.543 106.892 620.559 106.624C620.401 106.624 620.227 106.609 620.069 106.593C620.148 105.398 620.211 104.187 620.29 102.991C620.132 102.991 619.959 102.976 619.801 102.96C619.816 102.693 619.832 102.425 619.848 102.158C619.058 101.576 618.268 100.994 617.478 100.412C617.478 100.412 618.379 97.4241 618.189 96.8422C618.031 96.8422 617.857 96.8265 617.699 96.8108C617.731 96.4176 617.747 96.0087 617.778 95.6155C617.62 95.6155 617.446 95.5998 617.288 95.5841C617.146 95.1751 617.004 94.7663 616.862 94.3574C616.372 94.2001 615.898 94.0271 615.408 93.8698C615.187 93.3508 615.282 92.879 615.013 92.2342C614.855 92.2342 614.681 92.2185 614.523 92.2028C614.539 91.8096 614.571 91.4007 614.602 91.0075C614.444 91.0075 614.27 90.9918 614.112 90.9761C614.128 90.7087 614.144 90.4413 614.16 90.174C614.002 90.174 613.828 90.1583 613.67 90.1425C613.575 89.0731 613.465 87.9879 613.37 86.9185C613.212 86.9185 613.038 86.9028 612.88 86.8871C612.896 86.6197 612.912 86.3523 612.927 86.085C612.453 85.7862 611.979 85.4874 611.49 85.2043C611.49 85.0785 611.505 84.9369 611.521 84.8111C611.031 84.6538 610.557 84.4808 610.068 84.3236C610.115 83.663 610.147 82.9868 610.194 82.3262C610.036 82.3262 609.862 82.3105 609.704 82.2948C609.72 82.0274 609.736 81.7601 609.752 81.4927C609.594 81.4927 609.42 81.477 609.262 81.4613C609.278 81.1939 609.293 80.9266 609.309 80.6592C608.835 80.3604 608.361 80.0616 607.871 79.7785C607.871 79.5111 607.903 79.2438 607.919 78.9764C607.144 78.1271 606.37 77.2779 605.596 76.4286C605.264 76.4129 604.932 76.3972 604.616 76.3657C604.474 76.0826 604.316 75.8153 604.174 75.5322C604.016 75.5322 603.842 75.5165 603.684 75.5007C603.716 75.1076 603.732 74.6987 603.763 74.3055C603.447 74.1482 603.115 74.0067 602.799 73.8494C602.673 73.299 602.531 72.7643 602.404 72.2296C600.982 71.3488 599.544 70.4524 598.107 69.5717C597.269 69.2257 596.131 69.6975 595.673 69.037C595.073 68.172 595.879 66.9768 595.341 66.2061C595.183 66.2061 595.01 66.1904 594.852 66.1747C594.235 65.467 593.619 64.7593 593.003 64.0673C592.671 64.0515 592.339 64.0358 592.023 64.0044C591.249 63.1551 590.475 62.3058 589.701 61.4566C589.211 61.4251 588.721 61.3937 588.215 61.378C588.215 61.2521 588.215 61.1106 588.247 60.9848C587.915 60.9691 587.583 60.9533 587.267 60.9219C587.125 60.6388 586.967 60.3714 586.825 60.0884C586.493 60.0726 586.161 60.0569 585.845 60.0254C585.845 59.8996 585.861 59.7581 585.877 59.6323C584.739 59.302 583.617 58.9717 582.48 58.6257C581.721 57.6507 580.947 56.6599 580.189 55.6848C579.178 55.0557 576.807 54.4581 574.817 54.5682C574.311 54.6783 573.821 54.7726 573.316 54.8827C573.284 54.8827 571.656 51.9261 571.04 51.5486C570.708 51.5329 570.377 51.5172 570.061 51.4857C570.061 51.3599 570.076 51.2184 570.092 51.0925C569.444 50.9195 568.797 50.7466 568.149 50.5736C568.149 50.4477 568.165 50.3062 568.18 50.1804C567.201 49.9917 566.221 49.8029 565.241 49.6142C565.241 49.4884 565.241 49.3469 565.257 49.221C564.925 49.2053 564.594 49.1896 564.278 49.1581C564.278 49.0323 564.293 48.8908 564.293 48.765C563.804 48.7335 563.314 48.702 562.808 48.6863C562.808 48.5605 562.824 48.419 562.84 48.2931C560.375 48.1516 557.91 48.0101 555.445 47.8685C555.145 47.4439 554.829 47.035 554.529 46.6104C553.881 46.4374 553.233 46.2644 552.585 46.0914C552.585 45.9656 552.585 45.824 552.601 45.6982C549.741 44.676 546.692 46.8148 545.633 46.5003C545.491 46.2172 545.333 45.9498 545.191 45.6667C544.859 45.651 544.527 45.6353 544.211 45.6038C544.211 45.478 544.227 45.3365 544.243 45.2107C543.911 45.1949 543.579 45.1792 543.263 45.1478C543.263 45.0219 543.263 44.8804 543.279 44.7546C540.83 44.4715 538.365 44.2041 535.916 43.9211C535.916 44.0469 535.9 44.1884 535.884 44.3142C535.394 44.2828 534.905 44.2513 534.415 44.2356C534.415 44.3614 534.415 44.503 534.383 44.6288C532.582 44.3929 530.781 44.157 528.995 43.9211C528.995 44.0469 528.979 44.1884 528.964 44.3142C528.474 44.2828 527.984 44.2513 527.478 44.2356C527.304 44.4872 527.115 44.7546 526.941 45.0062C526.609 44.9905 526.277 44.9748 525.961 44.9433C525.788 45.1949 525.598 45.4623 525.424 45.7139C524.934 45.6825 524.445 45.651 523.955 45.6353C523.955 45.7611 523.955 45.9027 523.923 46.0285C521.743 46.3587 520.415 44.2828 517.571 44.8647C517.571 44.9905 517.571 45.132 517.54 45.2579C517.05 45.2264 516.56 45.1949 516.07 45.1792C515.896 45.4308 515.707 45.6982 515.533 45.9498C514.553 45.7611 513.574 45.5724 512.594 45.3837C512.594 45.5095 512.578 45.651 512.563 45.7768C511.899 45.7454 511.251 45.6982 510.588 45.6667C510.588 45.7926 510.572 45.9341 510.572 46.0599C509.418 45.997 508.281 45.9341 507.127 45.8555C507.127 45.9813 507.111 46.1228 507.096 46.2486C505.595 46.5632 504.094 46.8777 502.592 47.1923C502.419 47.4439 502.229 47.7113 502.055 47.9629C500.412 47.8685 498.769 47.7742 497.125 47.6798C497.125 47.8056 497.11 47.9472 497.094 48.073C496.098 48.1516 495.103 48.2302 494.108 48.3089C493.665 46.3273 491.88 44.9433 489.399 44.4243C489.336 43.292 489.288 42.9617 488.53 42.3641C488.277 41.3418 488.309 41.6878 487.614 41.1059C487.614 40.9801 487.629 40.8386 487.629 40.7128C487.298 40.697 486.966 40.6813 486.65 40.6499C486.65 40.524 486.65 40.3825 486.681 40.2567C486.192 40.0994 485.718 39.9264 485.228 39.7691C484.785 37.2371 482.605 35.6644 479.571 35.0353C479.603 34.5006 479.634 33.9659 479.666 33.4312C479.508 33.4312 479.334 33.4155 479.176 33.3997C478.67 31.2766 474.531 29.0906 471.039 28.9176C471.07 26.3069 469.443 24.168 467.436 23.0986C466.947 23.0671 466.457 23.0357 465.951 23.02C465.493 22.4538 465.035 21.9033 464.561 21.3372C463.913 21.1642 463.265 20.9912 462.617 20.8182C462.617 20.6924 462.633 20.5508 462.649 20.425C461.827 20.3778 461.006 20.3307 460.184 20.2835C460.042 20.0004 459.884 19.733 459.741 19.4499C459.41 19.4342 459.078 19.4185 458.762 19.387C457.988 18.5378 457.213 17.6885 456.439 16.8393C455.791 16.6663 455.144 16.4933 454.496 16.3203C454.496 16.1945 454.512 16.0529 454.512 15.9271C453.358 15.8642 452.205 15.8013 451.067 15.7227C450.514 15.4238 450.561 14.1185 450.198 13.6624C450.024 13.4265 447.638 12.0111 447.338 11.8853C444.225 10.6586 441.571 12.1684 438.427 12.1684C437.984 9.93515 435.662 7.87492 433.291 7.05712C432.312 6.99421 431.316 6.94703 430.337 6.88412C430.337 6.75831 430.337 6.61676 430.368 6.49095C429.231 6.2865 428.077 6.09777 426.94 5.89332C426.94 6.01914 426.94 6.16068 426.924 6.2865C425.454 6.53813 424.585 6.1135 423.448 6.49095C423.448 6.61676 423.432 6.75831 423.416 6.88412C423.084 6.86839 422.752 6.85267 422.436 6.82121C422.436 6.94703 422.421 7.08857 422.405 7.21439C421.33 7.40311 418.344 5.94051 417.554 5.73605C416.401 5.79896 415.231 5.86187 414.078 5.94051C413.651 6.06632 413.952 6.99421 412.545 6.64822C412.545 6.5224 412.545 6.38086 412.561 6.25504C412.229 6.23932 411.898 6.22359 411.582 6.19214C411.439 5.90905 411.281 5.64169 411.139 5.35861C410.159 5.16989 409.18 4.98116 408.2 4.79244C408.2 4.66662 408.216 4.52508 408.232 4.39927C406.415 4.55653 404.582 4.72953 402.765 4.8868C402.765 5.01262 402.749 5.15416 402.733 5.27997C401.722 5.39006 400.6 4.54081 398.799 5.04407C398.799 5.16989 398.783 5.31143 398.783 5.43724C398.12 5.5316 397.456 5.62597 396.792 5.72033C396.792 5.84614 396.776 5.98769 396.776 6.1135C395.512 6.34941 393.901 5.20134 391.847 5.83042C391.847 5.95623 391.831 6.09777 391.815 6.22359C391.483 6.20786 391.167 6.19214 390.835 6.16068C390.14 6.78976 389.445 7.41884 388.75 8.04791C387.928 7.87492 387.122 7.6862 386.317 7.5132C386.317 7.38738 386.317 7.24584 386.332 7.12003C384.689 7.15148 383.03 7.19866 381.387 7.23011C381.213 7.48174 381.023 7.7491 380.85 8.00073C380.518 7.98501 380.186 7.96928 379.87 7.93783C379.175 8.5669 378.479 9.19598 377.784 9.82506C377.452 9.80933 377.121 9.7936 376.805 9.76215C376.805 9.88797 376.789 10.0295 376.773 10.1553C375.288 10.0767 373.818 9.98233 372.333 9.90369C372.333 10.0295 372.317 10.1711 372.301 10.2969C371.812 10.2654 371.322 10.234 370.816 10.2182C370.816 10.344 370.816 10.4856 370.8 10.6114C370.311 10.58 369.821 10.5485 369.315 10.5328C369.315 10.6586 369.299 10.8001 369.284 10.9259C368.952 10.9102 368.62 10.8945 368.304 10.863C368.304 10.9889 368.288 11.1304 368.272 11.2562C367.941 11.2405 367.609 11.2248 367.293 11.1933C366.771 11.6966 366.25 12.1998 365.713 12.7031C363.69 13.3636 361.857 11.8067 359.803 12.3571C359.803 12.4829 359.787 12.6245 359.772 12.7503C359.44 12.7345 359.108 12.7188 358.792 12.6874C358.618 12.939 358.429 13.2064 358.255 13.458C357.765 13.4265 357.275 13.3951 356.77 13.3793C356.596 13.631 356.406 13.8983 356.232 14.15C355.901 14.1342 355.569 14.1185 355.253 14.0871C355.253 14.2129 355.253 14.3544 355.221 14.4802C354.557 14.4488 353.91 14.4016 353.246 14.3701C353.246 14.496 353.246 14.6375 353.214 14.7633C352.551 14.8577 351.887 14.952 351.224 15.0464C351.224 15.1722 351.224 15.3138 351.192 15.4396C350.86 15.4238 350.528 15.4081 350.212 15.3767C350.039 15.6283 349.849 15.8957 349.675 16.1473C349.185 16.1158 348.696 16.0844 348.19 16.0687C348.19 16.1945 348.174 16.336 348.158 16.4618C347.827 16.4461 347.495 16.4304 347.179 16.3989C347.179 16.5247 347.163 16.6663 347.147 16.7921C346.815 16.7764 346.483 16.7606 346.167 16.7292C346.167 16.855 346.167 16.9965 346.152 17.1224C345.82 17.1066 345.488 17.0909 345.172 17.0595C345.172 17.1853 345.172 17.3268 345.156 17.4526C344.651 17.5627 344.161 17.6571 343.655 17.7672C342.818 19.6859 342.549 18.5692 340.606 19.1983C340.606 19.3241 340.59 19.4657 340.574 19.5915C340.242 19.5758 339.91 19.56 339.594 19.5286C339.073 20.0318 338.552 20.5351 338.014 21.0384C337.193 21.117 336.355 21.2114 335.534 21.29C334.491 22.1707 333.448 23.0357 332.405 23.9164C332.184 24.8443 331.963 25.7564 331.742 26.6843C331.584 26.6843 331.41 26.6686 331.252 26.6529C330.367 28.1312 330.209 26.2754 327.776 26.8573C327.776 26.9831 327.76 27.1247 327.76 27.2505C327.096 27.3449 326.433 27.4392 325.769 27.5336C325.595 27.7852 325.406 28.0526 325.232 28.3042C324.9 28.2885 324.568 28.2728 324.252 28.2413C324.078 28.4929 323.889 28.7603 323.715 29.0119C323.051 28.9805 322.404 28.9333 321.74 28.9018C321.74 29.0276 321.724 29.1692 321.724 29.295C320.808 29.3736 318.69 28.0369 317.853 27.8639C316.352 28.0369 314.867 28.2256 313.366 28.4143C313.397 27.0932 313.366 26.6057 312.528 25.9609C312.038 24.1208 310.727 24.0894 308.736 23.3345C308.736 23.2087 308.736 23.0671 308.768 22.9413C307.788 22.8784 306.793 22.8312 305.813 22.7683C305.813 22.8941 305.797 23.0357 305.781 23.1615C305.623 23.1615 305.45 23.1458 305.292 23.13C305.292 22.8627 305.323 22.5953 305.339 22.328C305.181 22.328 305.007 22.3122 304.849 22.2965C304.391 21.7304 303.933 21.1799 303.474 20.6137C303.143 20.598 302.811 20.5823 302.495 20.5508C302.353 20.2677 302.195 20.0004 302.052 19.7173C301.721 19.7016 301.389 19.6858 301.073 19.6544C300.931 19.3713 300.773 19.104 300.63 18.8209C299.967 18.7894 299.319 18.7422 298.655 18.7108C298.355 18.1603 298.055 17.6099 297.77 17.0595C297.439 17.0437 297.107 17.028 296.791 16.9965C296.649 16.7135 296.491 16.4461 296.348 16.163C295.859 16.1316 295.369 16.1001 294.863 16.0844C294.863 15.9586 294.863 15.817 294.879 15.6912C294.389 15.6598 293.899 15.6283 293.41 15.6126C293.267 15.3295 293.109 15.0621 292.967 14.779C292.635 14.7633 292.304 14.7476 291.988 14.7161C291.988 14.5903 292.003 14.4488 292.019 14.323C291.687 14.3072 291.355 14.2915 291.039 14.2601C291.039 14.1342 291.055 13.9927 291.055 13.8669C289.08 13.8826 287.105 13.8983 285.114 13.9298C285.13 13.6624 285.146 13.3951 285.162 13.1277C283.882 12.766 282.649 12.0268 281.812 11.3348C281.67 11.0518 281.512 10.7844 281.37 10.5013C280.216 9.7936 279.063 9.91942 277.483 9.47907C277.293 9.43189 277.388 8.94435 276.519 9.02299C276.519 9.1488 276.503 9.29034 276.487 9.41616C274.844 9.58916 273.043 8.89717 272.031 9.5577C269.014 9.02298 270.388 8.53545 269.219 6.99421C268.113 6.25504 267.007 5.5316 265.885 4.79244C263.91 4.80817 261.935 4.82389 259.944 4.85535C259.644 4.43072 259.328 4.02182 259.028 3.59719C258.222 3.40847 257.4 3.23547 256.594 3.04675C256.594 2.92093 256.594 2.77939 256.626 2.65358C254.967 2.82657 253.308 2.99957 251.649 3.17256C251.191 3.32983 251.412 3.88028 250.622 3.91173C250.48 3.62865 250.322 3.36129 250.179 3.0782C249.532 2.90521 248.884 2.73221 248.236 2.55921C248.236 2.4334 248.252 2.29186 248.268 2.16604C245.297 2.13459 242.342 2.08741 239.372 2.05595C239.23 1.77287 239.072 1.50551 238.929 1.22242C238.44 1.19097 237.95 1.15952 237.444 1.14379C237.444 1.01797 237.46 0.876431 237.476 0.750615C235.833 0.656254 234.189 0.561892 232.546 0.467531C232.42 0.436077 232.435 -0.0829122 231.582 0.0114494C231.582 0.137265 231.582 0.278807 231.551 0.404623C231.061 0.373169 230.571 0.341715 230.081 0.325988C230.081 0.451804 230.065 0.593346 230.05 0.719162C229.718 0.703435 229.386 0.687708 229.07 0.656254C229.07 0.782069 229.054 0.923612 229.038 1.04943C228.375 1.01797 227.727 0.970793 227.063 0.939339C227.063 1.06515 227.063 1.2067 227.032 1.33251C226.368 1.42687 225.704 1.52124 225.041 1.6156C225.041 1.74141 225.041 1.88296 225.025 2.00877C223.603 2.18177 222.086 0.26308 220.174 0.530438C220.174 0.656254 220.174 0.797796 220.143 0.923612C219.479 0.892158 218.831 0.844977 218.168 0.813523C218.168 0.939339 218.168 1.08088 218.152 1.2067C217.82 1.19097 217.488 1.17524 217.172 1.14379C217.172 1.2696 217.172 1.41115 217.156 1.53696C215.513 1.56842 213.854 1.6156 212.211 1.64705C211.516 2.27613 210.82 2.90521 210.125 3.53428C208.498 3.29838 206.854 3.0782 205.227 2.8423C205.227 2.96811 205.211 3.10966 205.195 3.23547C204.705 3.20402 204.216 3.17256 203.71 3.15684C203.536 3.40847 203.347 3.67583 203.173 3.92746C202.841 3.91173 202.509 3.896 202.193 3.86455C202.019 4.11618 201.83 4.38354 201.656 4.63517C200.834 4.58799 200.013 4.54081 199.191 4.49363C199.191 4.61944 199.191 4.76098 199.16 4.8868C198.828 4.87107 198.496 4.85535 198.18 4.82389C198.18 4.94971 198.18 5.09125 198.164 5.21707C197.342 5.16989 196.521 5.1227 195.699 5.07552C195.699 5.20134 195.683 5.34288 195.683 5.4687C195.02 5.56306 194.356 5.65742 193.693 5.75178C193.345 6.12923 192.982 6.50667 192.634 6.89985C191.812 6.85267 190.991 6.80549 190.169 6.75831C190.169 6.88412 190.153 7.02566 190.153 7.15148C189.821 7.13575 189.49 7.12003 189.174 7.08857C187.831 7.57611 186.519 8.81853 186.029 10.1081C185.871 10.1081 185.698 10.0924 185.54 10.0767C185.524 10.4699 185.492 10.8788 185.46 11.2719C185.129 11.2562 184.797 11.2405 184.481 11.209C184.481 11.3348 184.465 11.4764 184.449 11.6022C182.648 11.4921 180.831 11.3978 179.03 11.2877C179.03 11.4135 179.014 11.555 178.998 11.6808C178.666 11.6651 178.334 11.6494 178.018 11.6179C178.018 11.7437 178.003 11.8853 178.003 12.0111C177.497 12.1212 177.007 12.2156 176.502 12.3256C175.917 13.7882 175.016 13.8512 174.811 15.8327C169.028 15.5654 168.68 18.0345 165.662 20.1105C165.489 20.3621 165.299 20.6295 165.125 20.8811C164.793 20.8654 164.462 20.8496 164.146 20.8182C163.972 21.0698 163.782 21.3372 163.608 21.5888C163.277 21.5731 162.945 21.5574 162.629 21.5259C162.281 21.9033 161.918 22.2808 161.57 22.674C160.907 22.7683 160.243 22.8627 159.579 22.9571C159.579 23.0829 159.579 23.2244 159.548 23.3502C159.216 23.4603 158.868 23.5861 158.536 23.6962C158.521 23.9636 158.505 24.2309 158.489 24.4983C157.81 24.86 157.13 25.2217 156.451 25.5834C156.072 26.3698 155.692 27.1404 155.329 27.9268C154.823 28.1627 154.318 28.3986 153.796 28.6345C153.78 28.9018 153.765 29.1692 153.749 29.4366C152.896 29.9241 152.042 30.4116 151.189 30.8992C151 31.4181 150.794 31.9529 150.605 32.4718C150.099 32.7078 149.593 32.9437 149.072 33.1796C148.266 34.0917 148.377 36.0261 148.314 37.5517C146.955 37.7561 147.16 38.0235 145.801 38.2122C145.612 38.6054 145.422 38.9985 145.232 39.376C145.074 39.376 144.901 39.3602 144.743 39.3445C144.743 39.6119 144.711 39.8792 144.695 40.1466C144.537 40.1466 144.363 40.1309 144.205 40.1151C144.174 40.7757 144.126 41.4519 144.079 42.1125C143.921 42.1125 143.747 42.0967 143.589 42.081C143.4 42.6 143.194 43.1347 143.005 43.6537C142.847 43.6537 142.673 43.638 142.515 43.6222L142.42 45.2264C142.262 45.2264 142.088 45.2107 141.93 45.1949C142.183 46.5475 142.42 47.9 142.673 49.2525C142.515 49.2525 142.341 49.2368 142.183 49.221C142.183 49.3469 142.167 49.4884 142.151 49.6142C140.903 48.9851 138.375 47.1294 135.847 47.6483C134.93 47.8371 132.039 49.4098 130.822 48.9694C130.68 48.6863 130.522 48.419 130.38 48.1359C130.048 48.1202 129.716 48.1044 129.4 48.073C129.4 47.9472 129.4 47.8056 129.416 47.6798C128.768 47.5068 128.12 47.3338 127.473 47.1608C127.473 47.035 127.473 46.8935 127.488 46.7676C124.534 46.4688 121.595 46.1543 118.64 45.8555C118.64 45.7297 118.64 45.5881 118.656 45.4623C118.166 45.4308 117.676 45.3994 117.171 45.3837C117.171 45.2578 117.171 45.1163 117.187 44.9905C115.401 44.44 113.758 45.3679 112.699 45.5409C110.74 45.2893 108.781 45.0534 106.806 44.8018C106.663 44.3929 106.521 43.984 106.379 43.5751C105.415 43.2448 104.435 42.9303 103.472 42.6C103.472 42.4742 103.487 42.3326 103.503 42.2068C102.682 42.1596 101.86 42.1125 101.038 42.0653C101.038 42.1911 101.023 42.3326 101.007 42.4585C100.027 42.5214 100.043 42.0024 100.043 42.0024C98.0521 42.1596 96.077 42.3012 94.0862 42.4585C94.0862 42.3326 94.0862 42.1911 94.1178 42.0653C93.7859 42.0496 93.4541 42.0338 93.1381 42.0024C93.1381 41.8766 93.1539 41.735 93.1539 41.6092C91.6845 41.5306 90.1992 41.4362 88.714 41.3576C88.714 41.4834 88.6982 41.6249 88.6982 41.7507C88.1926 41.8608 87.7028 41.9552 87.1971 42.0653C87.1971 41.9395 87.2129 41.7979 87.2287 41.6721C86.5809 41.4991 85.9331 41.3261 85.2853 41.1531C85.2853 41.0273 85.2853 40.8858 85.3169 40.7599C83.8158 40.241 80.7821 40.5398 79.8815 40.8386C79.4233 40.9958 79.6603 41.5777 78.8545 41.5777C78.7123 41.2947 78.5543 41.0273 78.4121 40.7442C77.9222 40.7128 77.4324 40.6813 76.9268 40.6656C76.9268 40.5398 76.9268 40.3982 76.9426 40.2724C74.4777 40.1309 72.0129 39.9893 69.548 39.8478C69.548 39.9736 69.5322 40.1151 69.5322 40.241C69.0424 40.2095 68.5525 40.178 68.0469 40.1623C68.0469 40.2881 68.0311 40.4297 68.0153 40.5555C67.1937 40.5083 66.3721 40.4611 65.5504 40.414C65.5504 40.5398 65.5504 40.6813 65.5188 40.8071C64.8552 40.9015 64.1916 40.9958 63.528 41.0902C63.528 41.216 63.5122 41.3576 63.5122 41.4834C60.7945 42.0653 59.483 39.6748 57.1762 39.9107C57.1762 40.0365 57.1604 40.178 57.1446 40.3039C56.6548 40.2724 56.1649 40.241 55.6593 40.2252C55.6593 40.351 55.6435 40.4926 55.6435 40.6184C55.3117 40.6027 54.9799 40.5869 54.6639 40.5555C54.6639 40.6813 54.6481 40.8229 54.6323 40.9487C53.9687 40.9172 53.3209 40.87 52.6572 40.8386C52.6572 40.9644 52.6414 41.1059 52.6414 41.2318C51.9778 41.2003 51.33 41.1531 50.6664 41.1217C50.6664 41.2475 50.6506 41.389 50.6506 41.5148C49.6551 41.7193 48.6439 41.9395 47.6485 42.1439C47.6485 42.2697 47.6327 42.4113 47.6169 42.5371C47.2851 42.5214 46.9532 42.5056 46.6372 42.4742C46.4634 42.7258 46.2738 42.9932 46.1 43.2448C43.1295 43.2133 40.1748 43.1662 37.2043 43.1347C37.2043 43.2605 37.2043 43.4021 37.1727 43.5279C36.8409 43.5122 36.5091 43.4964 36.1931 43.465C35.8455 43.8424 35.4821 44.2199 35.1345 44.613C33.7756 45.0691 32.2904 44.3142 31.1685 44.786C30.9947 45.0377 30.8051 45.305 30.6313 45.5567C30.2995 45.5409 29.9677 45.5252 29.6517 45.4938L28.6247 46.2329C28.6247 46.5003 28.5931 46.7676 28.5773 47.035C27.8978 47.3967 27.2184 47.7584 26.539 48.1202C26.3652 48.3718 26.1756 48.6391 26.0018 48.8908C25.0221 48.8279 24.0267 48.7807 23.0471 48.7178C23.0471 48.8436 23.0313 48.9851 23.0155 49.111C22.5257 49.0795 22.0358 49.048 21.5302 49.0323C21.5302 49.1581 21.5302 49.2997 21.5144 49.4255C21.0088 49.5356 20.519 49.6299 20.0134 49.74C20.0134 50.0074 19.9818 50.2747 19.966 50.5421C19.4604 50.778 18.9548 51.0139 18.4333 51.2498C18.4175 51.5172 18.4017 51.7845 18.3859 52.0519C18.0541 52.162 17.7223 52.2878 17.3747 52.3979C17.3747 52.5237 17.3589 52.6652 17.3589 52.7911C17.0271 52.7753 16.6953 52.7596 16.3793 52.7281C16.3793 52.854 16.3635 52.9955 16.3635 53.1213C14.9888 53.7032 16.0633 52.8068 14.8308 53.829C14.6728 53.829 14.499 53.8133 14.341 53.7976C14.341 54.0649 14.3094 54.3323 14.2936 54.5996C14.1356 54.5996 13.9618 54.5839 13.8038 54.5682C13.8038 54.8356 13.7722 55.1029 13.7564 55.3703C13.5984 55.3703 13.4246 55.3545 13.2666 55.3388C13.235 55.8735 13.2034 56.4082 13.1718 56.943C12.84 57.0531 12.4923 57.1789 12.1605 57.289C12.1605 57.4148 12.1447 57.5563 12.1289 57.6821C11.7971 57.6664 11.4653 57.6507 11.1493 57.6192C11.1493 57.745 11.1335 57.8866 11.1177 58.0124C9.53765 58.6729 8.63702 58.6887 8.0208 60.2456C7.10437 60.9691 7.26237 63.564 7.24657 65.0109C5.44532 65.2311 5.0345 65.8916 3.70726 66.4106C3.51765 66.9296 3.31225 67.4643 3.12264 67.9833C2.96464 67.9833 2.79083 67.9675 2.63283 67.9518C2.69603 69.556 2.77503 71.1758 2.83823 72.78C2.33262 73.0159 1.827 73.2518 1.30558 73.4877C1.11598 74.0067 0.91057 74.5414 0.720964 75.0604C0.562959 75.0604 0.389153 75.0447 0.231148 75.0289C-0.353471 76.1298 0.341752 78.1114 0.515557 78.6619C0.483956 79.1966 0.452355 79.7313 0.420754 80.266L0.452355 80.4233Z" fill="#E5ECFE"/>
</svg>
